<?xml version="1.0" encoding="UTF-8" standalone="no"?>
<!-- Created with Inkscape (http://www.inkscape.org/) -->

<svg
   xmlns:dc="http://purl.org/dc/elements/1.1/"
   xmlns:cc="http://creativecommons.org/ns#"
   xmlns:rdf="http://www.w3.org/1999/02/22-rdf-syntax-ns#"
   xmlns:svg="http://www.w3.org/2000/svg"
   xmlns="http://www.w3.org/2000/svg"
   xmlns:xlink="http://www.w3.org/1999/xlink"
   xmlns:sodipodi="http://sodipodi.sourceforge.net/DTD/sodipodi-0.dtd"
   xmlns:inkscape="http://www.inkscape.org/namespaces/inkscape"
   width="48"
   height="48"
   viewBox="0 0 48 48"
   id="svg2"
   version="1.1"
   inkscape:version="0.91 r13725"
   sodipodi:docname="addmark.svg">
  <defs
     id="defs4">
    <radialGradient
       inkscape:collect="always"
       xlink:href="#linearGradient4748"
       id="radialGradient4754"
       cx="20.085659"
       cy="1024.5741"
       fx="20.085659"
       fy="1024.5741"
       r="22.986376"
       gradientTransform="matrix(1.3570135,0,0,1.357015,-3.0777941,-361.68589)"
       gradientUnits="userSpaceOnUse" />
    <linearGradient
       inkscape:collect="always"
       id="linearGradient4748">
      <stop
         style="stop-color:#b5ff00;stop-opacity:1"
         offset="0"
         id="stop4750" />
      <stop
         style="stop-color:#54ab20;stop-opacity:1"
         offset="1"
         id="stop4752" />
    </linearGradient>
  </defs>
  <sodipodi:namedview
     id="base"
     pagecolor="#ffffff"
     bordercolor="#666666"
     borderopacity="1.0"
     inkscape:pageopacity="0.0"
     inkscape:pageshadow="2"
     inkscape:zoom="11.2"
     inkscape:cx="38.215599"
     inkscape:cy="17.605823"
     inkscape:document-units="px"
     inkscape:current-layer="layer1"
     showgrid="false"
     units="px"
     inkscape:window-width="1920"
     inkscape:window-height="1177"
     inkscape:window-x="-8"
     inkscape:window-y="-8"
     inkscape:window-maximized="1" />
  <metadata
     id="metadata7">
    <rdf:RDF>
      <cc:Work
         rdf:about="">
        <dc:format>image/svg+xml</dc:format>
        <dc:type
           rdf:resource="http://purl.org/dc/dcmitype/StillImage" />
        <dc:title></dc:title>
      </cc:Work>
    </rdf:RDF>
  </metadata>
  <g
     inkscape:label="Layer 1"
     inkscape:groupmode="layer"
     id="layer1"
     transform="translate(0,-1004.3622)">
    <path
       style="opacity:1;fill:url(#radialGradient4754);fill-opacity:1;fill-rule:evenodd;stroke:#0b5220;stroke-width:1.8;stroke-linecap:round;stroke-linejoin:miter;stroke-miterlimit:4;stroke-dasharray:none;stroke-dashoffset:0;stroke-opacity:1"
       d="m 21.971294,1005.3382 c -2.255356,0 -4.07215,1.8156 -4.071041,4.0711 0.0023,4.6495 -0.0028,4.3402 -0.0027,8.7492 9.3e-5,2.2462 -1.801827,4.0537 -4.044536,4.0684 -1.912203,0.014 -4.0374673,0 -8.7702283,0 -2.2553563,0 -4.0710403,1.8156 -4.0710403,4.0711 l 0,4.1823 c 0,2.2554 1.815684,4.0711 4.0710403,4.0711 l 8.7437243,0 c 2.255356,0 4.070727,1.8156 4.07104,4.071 6.67e-4,4.7931 0.0028,4.5452 0.0027,8.7463 -4.8e-5,2.2554 1.815685,4.0711 4.071041,4.0711 l 4.182359,0 c 2.255357,0 4.072104,-1.8157 4.07104,-4.0711 -0.0022,-4.6485 0.0028,-4.3381 0.0027,-8.7463 -9.2e-5,-2.2554 1.815684,-4.071 4.071041,-4.071 l 8.743724,0 c 2.255357,0 4.071041,-1.8157 4.071041,-4.0711 l 0,-4.1823 c 0,-2.2555 -1.815684,-4.0711 -4.071041,-4.0711 -4.73276,0 -6.858026,0.014 -8.770229,0 -2.24275,-0.015 -4.044222,-1.8222 -4.044536,-4.0684 -6.67e-4,-4.7942 -0.0028,-4.5472 -0.0027,-8.7492 4.7e-5,-2.2555 -1.815683,-4.0711 -4.07104,-4.0711 z"
       id="rect4728"
       inkscape:connector-curvature="0"
       sodipodi:nodetypes="sssssssssssssssssssssssss" />
  </g>
</svg>
