<?xml version="1.0" encoding="UTF-8" standalone="no"?>
<!-- Created with Inkscape (http://www.inkscape.org/) -->

<svg
   xmlns:dc="http://purl.org/dc/elements/1.1/"
   xmlns:cc="http://creativecommons.org/ns#"
   xmlns:rdf="http://www.w3.org/1999/02/22-rdf-syntax-ns#"
   xmlns:svg="http://www.w3.org/2000/svg"
   xmlns="http://www.w3.org/2000/svg"
   xmlns:xlink="http://www.w3.org/1999/xlink"
   xmlns:sodipodi="http://sodipodi.sourceforge.net/DTD/sodipodi-0.dtd"
   xmlns:inkscape="http://www.inkscape.org/namespaces/inkscape"
   width="48"
   height="48"
   viewBox="0 0 48 48"
   id="svg5029"
   version="1.1"
   inkscape:version="0.91 r13725"
   sodipodi:docname="addmark.svg">
  <defs
     id="defs5031">
    <linearGradient
       inkscape:collect="always"
       id="linearGradient4748">
      <stop
         style="stop-color:#b5ff00;stop-opacity:1"
         offset="0"
         id="stop4750" />
      <stop
         style="stop-color:#54ab20;stop-opacity:1"
         offset="1"
         id="stop4752" />
    </linearGradient>
    <radialGradient
       inkscape:collect="always"
       xlink:href="#linearGradient4748"
       id="radialGradient4754"
       cx="24"
       cy="1028.3622"
       fx="24"
       fy="1028.3622"
       r="22.986375"
       gradientTransform="matrix(1,0,0,1.0000011,0,-0.00111621)"
       gradientUnits="userSpaceOnUse" />
  </defs>
  <sodipodi:namedview
     id="base"
     pagecolor="#ffffff"
     bordercolor="#666666"
     borderopacity="1.0"
     inkscape:pageopacity="0.0"
     inkscape:pageshadow="2"
     inkscape:zoom="2.8284271"
     inkscape:cx="-38.522843"
     inkscape:cy="32.569788"
     inkscape:document-units="px"
     inkscape:current-layer="layer1"
     showgrid="false"
     units="px"
     inkscape:window-width="1126"
     inkscape:window-height="1136"
     inkscape:window-x="26"
     inkscape:window-y="26"
     inkscape:window-maximized="0" />
  <metadata
     id="metadata5034">
    <rdf:RDF>
      <cc:Work
         rdf:about="">
        <dc:format>image/svg+xml</dc:format>
        <dc:type
           rdf:resource="http://purl.org/dc/dcmitype/StillImage" />
        <dc:title />
      </cc:Work>
    </rdf:RDF>
  </metadata>
  <g
     inkscape:label="Layer 1"
     inkscape:groupmode="layer"
     id="layer1"
     transform="translate(0,-1004.3622)">
    <path
       style="opacity:1;fill:url(#radialGradient4754);fill-opacity:1;fill-rule:evenodd;stroke:#0b5220;stroke-width:1.8;stroke-linecap:round;stroke-linejoin:miter;stroke-miterlimit:4;stroke-dasharray:none;stroke-dashoffset:0;stroke-opacity:1"
       d="m 20.458984,1005.3758 c -1.662,0 -3.000817,1.338 -3,3 0.0017,3.4263 -0.0021,7.1983 -0.002,10.4473 6.8e-5,1.6553 -1.327789,2.9873 -2.980469,2.9981 -1.409126,0.01 -6.9752601,0 -10.4628901,0 -1.662,0 -3,1.338 -3,3.0001 l 0,7.082 c 0,1.662 1.338,3 3,3 l 10.4433591,0 c 1.662,0 2.999769,1.338 3,3 4.91e-4,3.5321 0.0021,7.3494 0.002,10.4453 -3.5e-5,1.662 1.338,3 3,3 l 7.082032,0 c 1.662,0 3.000784,-1.338 3,-3 -0.0016,-3.4256 0.0021,-7.1969 0.002,-10.4453 -6.8e-5,-1.662 1.338,-3 3,-3 l 10.443359,0 c 1.662,0 3,-1.338 3,-3 l 0,-7.082 c 0,-1.6621 -1.338,-3.0001 -3,-3.0001 -3.48763,0 -9.053764,0.01 -10.46289,0 -1.65271,-0.011 -2.980238,-1.3428 -2.980469,-2.9981 -4.92e-4,-3.5328 -0.0021,-7.3508 -0.002,-10.4473 3.5e-5,-1.662 -1.338,-3 -3,-3 z"
       id="rect4728"
       inkscape:connector-curvature="0"
       sodipodi:nodetypes="sssssssssssssssssssssssss" />
  </g>
</svg>
