<?xml version="1.0" encoding="UTF-8" standalone="no"?>
<svg
   xmlns:dc="http://purl.org/dc/elements/1.1/"
   xmlns:cc="http://creativecommons.org/ns#"
   xmlns:rdf="http://www.w3.org/1999/02/22-rdf-syntax-ns#"
   xmlns:svg="http://www.w3.org/2000/svg"
   xmlns="http://www.w3.org/2000/svg"
   xmlns:xlink="http://www.w3.org/1999/xlink"
   xmlns:sodipodi="http://sodipodi.sourceforge.net/DTD/sodipodi-0.dtd"
   xmlns:inkscape="http://www.inkscape.org/namespaces/inkscape"
   version="1.1"
   id="svg4176"
   viewBox="0 0 48 48"
   height="48"
   width="48"
   inkscape:version="0.91 r13725"
   sodipodi:docname="flagen.svg">
  <sodipodi:namedview
     pagecolor="#ffffff"
     bordercolor="#666666"
     borderopacity="1"
     objecttolerance="10"
     gridtolerance="10"
     guidetolerance="10"
     inkscape:pageopacity="0"
     inkscape:pageshadow="2"
     inkscape:window-width="1081"
     inkscape:window-height="728"
     id="namedview5909"
     showgrid="false"
     inkscape:zoom="4.9166667"
     inkscape:cx="24.766107"
     inkscape:cy="23.31281"
     inkscape:window-x="0"
     inkscape:window-y="0"
     inkscape:window-maximized="0"
     inkscape:current-layer="svg4176" />
  <defs
     id="defs4178">
    <linearGradient
       id="linearGradient4764">
      <stop
         id="stop4766"
         offset="0"
         style="stop-color:#494949;stop-opacity:1" />
      <stop
         id="stop4768"
         offset="1"
         style="stop-color:#6d6d6d;stop-opacity:1" />
    </linearGradient>
    <linearGradient
       id="linearGradient4746">
      <stop
         id="stop4748"
         offset="0"
         style="stop-color:#ffffff;stop-opacity:0" />
      <stop
         style="stop-color:#000000;stop-opacity:0.05882353"
         offset="0.26540932"
         id="stop4754" />
      <stop
         id="stop4758"
         offset="0.45036569"
         style="stop-color:#000000;stop-opacity:0.17254902" />
      <stop
         style="stop-color:#000000;stop-opacity:0.19607843"
         offset="0.55155087"
         id="stop4762" />
      <stop
         style="stop-color:#000000;stop-opacity:0.18431373"
         offset="0.64031416"
         id="stop4760" />
      <stop
         id="stop4756"
         offset="0.74516153"
         style="stop-color:#000000;stop-opacity:0.13725491" />
      <stop
         id="stop4750"
         offset="1"
         style="stop-color:#000000;stop-opacity:0" />
    </linearGradient>
    <linearGradient
       gradientUnits="userSpaceOnUse"
       y2="1022.2883"
       x2="40.759075"
       y1="1031.7526"
       x1="5.4297953"
       id="linearGradient4752"
       xlink:href="#linearGradient4746"
       gradientTransform="translate(0,-1004.3622)" />
    <linearGradient
       gradientUnits="userSpaceOnUse"
       y2="1010.8227"
       x2="29.029366"
       y1="1041.4476"
       x1="16.345484"
       id="linearGradient4770"
       xlink:href="#linearGradient4764"
       gradientTransform="translate(0,-1004.3622)" />
  </defs>
  <metadata
     id="metadata4181">
    <rdf:RDF>
      <cc:Work
         rdf:about="">
        <dc:format>image/svg+xml</dc:format>
        <dc:type
           rdf:resource="http://purl.org/dc/dcmitype/StillImage" />
        <dc:title />
      </cc:Work>
    </rdf:RDF>
  </metadata>
  <g
     id="g6459"
     transform="translate(-0.11599574,-5.2334603)">
    <path
       style="display:inline;fill:none;fill-rule:evenodd;stroke:#494949;stroke-width:1.29999995;stroke-linecap:butt;stroke-linejoin:miter;stroke-miterlimit:4;stroke-dasharray:none;stroke-opacity:1"
       d="M 1.0101526,8.2884 10.827572,47.4949"
       id="path4183"
       inkscape:connector-curvature="0" />
    <path
       style="fill:#4667de;fill-opacity:1;fill-rule:evenodd;stroke:none;stroke-width:1px;stroke-linecap:butt;stroke-linejoin:miter;stroke-opacity:1"
       d="M 1.0101526,8.2884 7.7024132,34.9943 C 24.873099,27.0335 27.955241,37.6238 47.098362,37.204 L 38.954007,13.5286 C 23.108223,12.7319 25.272549,0.8921 1.0101526,8.2884 Z"
       id="back"
       inkscape:connector-curvature="0" />
    <path
       id="path4259"
       d="M 7.0957031,6.7089844 C 5.2688942,7.0879015 3.2534083,7.6050965 1.0097656,8.2890625 l 0.5644532,2.2480465 c 6.485475,2.18756 11.5402612,5.019942 14.7617192,8.777344 1.133814,-1.068472 2.313058,-1.986073 3.544921,-2.695312 l 1.734375,3.009765 1.197266,-0.708984 C 19.473238,13.284567 13.916511,9.4800252 7.0957031,6.7089844 Z m 14.5195309,12.9199216 -3.535156,2.09375 c -0.500145,-0.844046 -1.08835,-1.64331 -1.74414,-2.408203 -1.831497,1.725947 -3.543503,3.849136 -5.160157,6.150391 -1.549698,2.205945 -2.9623751,4.56449 -4.1308591,6.902344 l 0.6582031,2.626953 c 2.194042,-1.017218 4.154286,-1.728061 5.951172,-2.201172 0.753534,-1.319789 1.559681,-2.6377 2.431641,-3.878907 2.32343,-3.307327 5.056561,-6.098223 6.789062,-7.095703 l -1.259766,-2.189453 z m 13.208985,-6.615234 c -1.194992,0.989141 -2.373474,1.854668 -3.46875,2.519531 -2.330219,1.414508 -4.254682,1.726954 -4.720703,1.595703 l -1.355469,4.8125 c 2.96233,0.834314 5.798489,-0.391726 8.669922,-2.134765 1.886702,-1.145281 3.801096,-2.646933 5.667969,-4.345703 l -0.664063,-1.931641 c -1.532806,-0.07707 -2.892927,-0.2593 -4.128906,-0.515625 z m -1.666016,8.537109 -3.548828,3.523438 c 0.930975,0.938254 1.96308,3.104555 4.408203,6.013672 1.448172,1.72298 3.425674,3.655298 6.242188,5.759765 2.047893,0.26386 4.293216,0.411273 6.83789,0.355469 l -0.771484,-2.242187 c -4.343494,-2.775269 -6.838036,-5.135739 -8.480469,-7.089844 -2.044668,-2.43267 -2.789569,-4.407541 -4.6875,-6.320313 z"
       style="display:inline;fill:#ffffff;fill-opacity:1;fill-rule:evenodd;stroke:none;stroke-width:1px;stroke-linecap:butt;stroke-linejoin:miter;stroke-opacity:1"
       inkscape:connector-curvature="0" />
    <path
       id="path4263"
       d="M 3.2890625,7.6289062 C 2.5554023,7.8295543 1.7976379,8.0488826 1.0097656,8.2890625 l 0.2265625,0.90625 c 5.12105,1.7170945 10.3914339,4.0146615 14.2753909,7.6835935 l 2.455078,-1.380859 C 14.299277,12.23104 8.393224,9.4789842 3.2890625,7.6289062 Z M 36.111328,13.246094 c -2.107061,2.0216 -4.523353,3.710207 -9.685547,5.376953 l 3.097657,1.068359 c 3.622416,-1.604242 6.767838,-4.128216 8.917968,-6.201172 -0.821134,-0.05524 -1.601224,-0.132964 -2.330078,-0.24414 z m -16.339844,6.728515 c -4.885524,3.477994 -8.550733,9.137097 -11.1230465,14.601563 1.1830456,-0.516714 2.3039795,-0.949284 3.3613285,-1.294922 2.458884,-4.657656 6.04085,-9.355713 9.716796,-11.869141 l -1.955078,-1.4375 z m 14.304688,4.279297 -2.369141,0.279297 c 2.931085,4.936146 7.623509,9.388879 12.521485,12.644531 0.918479,0.03413 1.866947,0.04737 2.86914,0.02539 L 46.767578,36.244141 C 41.171346,32.897996 35.961542,27.588623 34.076172,24.253906 Z"
       style="display:inline;fill:#ff0000;fill-opacity:1;fill-rule:evenodd;stroke:none;stroke-width:1px;stroke-linecap:butt;stroke-linejoin:miter;stroke-opacity:1"
       inkscape:connector-curvature="0" />
    <path
       id="path4255"
       d="M 16.705078,5.9941406 19.091797,14.28125 C 18.389468,14.19823 17.663835,14.137981 16.892578,14.117188 13.260971,14.019213 8.8390006,14.65367 3.0449219,16.412109 l 2.140625,8.539063 C 13.209314,22.027863 17.798105,21.870134 21.546875,22.808594 l 2.837891,9.853515 c 2.885123,0.68099 5.700371,1.781401 9.015625,2.738282 l -2.660157,-8.896485 c 3.462262,1.389017 7.718069,2.645942 13.640625,2.800782 l -2.689453,-7.814454 c -5.418156,-0.344737 -8.761958,-1.935971 -12.15039,-3.617187 -0.528928,-0.26245 -1.075569,-0.52179 -1.615235,-0.783203 L 25.537109,9.0996094 C 22.99613,7.6821527 20.434528,6.3845153 16.705078,5.9941406 Z"
       style="display:inline;fill:#ffffff;fill-opacity:1;fill-rule:evenodd;stroke:none;stroke-width:1px;stroke-linecap:butt;stroke-linejoin:miter;stroke-opacity:1"
       inkscape:connector-curvature="0" />
    <path
       id="path4252"
       d="m 18.458984,6.2480469 2.91211,10.1386721 c -4.139519,-0.959275 -9.457147,-0.87448 -17.9062502,1.697265 l 1.2929687,5.158204 C 13.636395,19.993913 18.64315,20.068542 22.785156,21.310547 l 3.398438,11.830078 c 1.818942,0.528743 3.670916,1.167388 5.673828,1.794922 L 28.439453,23.642578 c 3.766392,1.757112 8.037839,3.634499 15.318359,3.84961 l -1.46289,-4.248047 C 35.038729,22.915241 31.104486,20.399712 26.847656,18.384766 L 23.75,8.1503906 C 22.172674,7.3512571 20.499675,6.6519859 18.458984,6.2480469 Z"
       style="display:inline;fill:#ff0000;fill-opacity:1;fill-rule:evenodd;stroke:none;stroke-width:1px;stroke-linecap:butt;stroke-linejoin:miter;stroke-opacity:1"
       inkscape:connector-curvature="0" />
    <path
       id="shading"
       d="M 1.0101526,8.2884 7.7024132,34.9943 C 24.873099,27.0335 27.955241,37.6238 47.098362,37.204 L 38.954007,13.5286 C 23.108223,12.7319 25.272549,0.8921 1.0101526,8.2884 Z"
       style="fill:url(#linearGradient4752);fill-opacity:1;fill-rule:evenodd;stroke:none;stroke-width:1px;stroke-linecap:butt;stroke-linejoin:miter;stroke-opacity:1"
       inkscape:connector-curvature="0" />
    <path
       id="flagborder"
       d="M 1.0101526,8.2884 7.7024132,34.9943 C 24.873099,27.0335 27.955241,37.6238 47.098362,37.204 L 38.954007,13.5286 C 23.108223,12.7319 25.272549,0.8921 1.0101526,8.2884 Z"
       style="fill:none;fill-rule:evenodd;stroke:url(#linearGradient4770);stroke-width:1.29999995;stroke-linecap:butt;stroke-linejoin:miter;stroke-miterlimit:4;stroke-dasharray:none;stroke-opacity:1"
       inkscape:connector-curvature="0" />
  </g>
</svg>
