<?xml version="1.0" encoding="UTF-8" standalone="no"?>
<svg
   xmlns:dc="http://purl.org/dc/elements/1.1/"
   xmlns:cc="http://creativecommons.org/ns#"
   xmlns:rdf="http://www.w3.org/1999/02/22-rdf-syntax-ns#"
   xmlns:svg="http://www.w3.org/2000/svg"
   xmlns="http://www.w3.org/2000/svg"
   xmlns:xlink="http://www.w3.org/1999/xlink"
   xmlns:sodipodi="http://sodipodi.sourceforge.net/DTD/sodipodi-0.dtd"
   xmlns:inkscape="http://www.inkscape.org/namespaces/inkscape"
   version="1.1"
   id="svg4176"
   viewBox="0 0 48 48"
   height="48"
   width="48"
   inkscape:version="0.91 r13725"
   sodipodi:docname="flaggen.svg">
  <sodipodi:namedview
     pagecolor="#ffffff"
     bordercolor="#666666"
     borderopacity="1"
     objecttolerance="10"
     gridtolerance="10"
     guidetolerance="10"
     inkscape:pageopacity="0"
     inkscape:pageshadow="2"
     inkscape:window-width="1021"
     inkscape:window-height="724"
     id="namedview6503"
     showgrid="false"
     inkscape:zoom="4.9166667"
     inkscape:cx="22.347769"
     inkscape:cy="24"
     inkscape:window-x="0"
     inkscape:window-y="0"
     inkscape:window-maximized="0"
     inkscape:current-layer="svg4176" />
  <defs
     id="defs4178">
    <linearGradient
       id="linearGradient4764">
      <stop
         id="stop4766"
         offset="0"
         style="stop-color:#494949;stop-opacity:1" />
      <stop
         id="stop4768"
         offset="1"
         style="stop-color:#6d6d6d;stop-opacity:1" />
    </linearGradient>
    <linearGradient
       id="linearGradient4746">
      <stop
         id="stop4748"
         offset="0"
         style="stop-color:#ffffff;stop-opacity:0" />
      <stop
         style="stop-color:#000000;stop-opacity:0.05882353"
         offset="0.26540932"
         id="stop4754" />
      <stop
         id="stop4758"
         offset="0.45036569"
         style="stop-color:#000000;stop-opacity:0.17254902" />
      <stop
         style="stop-color:#000000;stop-opacity:0.19607843"
         offset="0.55155087"
         id="stop4762" />
      <stop
         style="stop-color:#000000;stop-opacity:0.18431373"
         offset="0.64031416"
         id="stop4760" />
      <stop
         id="stop4756"
         offset="0.74516153"
         style="stop-color:#000000;stop-opacity:0.13725491" />
      <stop
         id="stop4750"
         offset="1"
         style="stop-color:#000000;stop-opacity:0" />
    </linearGradient>
    <linearGradient
       gradientUnits="userSpaceOnUse"
       y2="1022.2883"
       x2="40.759075"
       y1="1031.7526"
       x1="5.4297953"
       id="linearGradient4752"
       xlink:href="#linearGradient4746"
       gradientTransform="translate(0,-1004.3622)" />
    <linearGradient
       gradientUnits="userSpaceOnUse"
       y2="1010.8227"
       x2="29.029366"
       y1="1041.4476"
       x1="16.345484"
       id="linearGradient4770"
       xlink:href="#linearGradient4764"
       gradientTransform="translate(0,-1004.3622)" />
  </defs>
  <metadata
     id="metadata4181">
    <rdf:RDF>
      <cc:Work
         rdf:about="">
        <dc:format>image/svg+xml</dc:format>
        <dc:type
           rdf:resource="http://purl.org/dc/dcmitype/StillImage" />
        <dc:title />
      </cc:Work>
    </rdf:RDF>
  </metadata>
  <g
     id="g7061"
     transform="translate(-0.11599595,-5.2334603)">
    <path
       style="display:inline;fill:none;fill-rule:evenodd;stroke:#494949;stroke-width:1.29999995;stroke-linecap:butt;stroke-linejoin:miter;stroke-miterlimit:4;stroke-dasharray:none;stroke-opacity:1"
       d="M 1.0101526,8.2884 10.827572,47.4949"
       id="path4183"
       inkscape:connector-curvature="0" />
    <path
       style="fill:#65de46;fill-opacity:1;fill-rule:evenodd;stroke:none;stroke-width:1px;stroke-linecap:butt;stroke-linejoin:miter;stroke-opacity:1"
       d="M 1.0101526,8.2884 7.7024132,34.9943 C 24.873099,27.0335 27.955241,37.6238 47.098362,37.204 L 38.954007,13.5286 C 23.108223,12.7319 25.272549,0.8921 1.0101526,8.2884 Z"
       id="path4339"
       inkscape:connector-curvature="0" />
    <path
       id="path4213"
       d="M 12.769531,14.4316 C 10.082986,14.6854 6.939075,15.331 3.111328,16.541 l -0.0332,0 2.294922,9.1582 0.03125,-0.016 c 3.906351,-1.5018 7.082794,-2.2359 9.826172,-2.4707 l -2.460938,-8.7774 z"
       style="fill:#3ed07e;fill-opacity:1;fill-rule:evenodd;stroke:#000000;stroke-width:0.5;stroke-linecap:butt;stroke-linejoin:miter;stroke-miterlimit:4;stroke-dasharray:none;stroke-opacity:1"
       inkscape:connector-curvature="0" />
    <path
       id="path4245"
       d="m 33.365234,19.9961 2.40625,8.0879 c 2.384528,0.4897 5.097868,0.7726 8.357422,0.6543 l 0.05469,-0.01 -2.59375,-7.5371 -0.08789,0.01 c -3.26878,-0.043 -5.874244,-0.5244 -8.136719,-1.2051 z"
       style="fill:#3ed07e;fill-opacity:1;fill-rule:evenodd;stroke:#000000;stroke-width:0.5;stroke-linecap:butt;stroke-linejoin:miter;stroke-miterlimit:4;stroke-dasharray:none;stroke-opacity:1"
       inkscape:connector-curvature="0" />
    <path
       id="path4229"
       d="m 23.306641,15.7988 2.638671,9.084 c 2.996208,1.0882 5.977192,2.4107 9.826172,3.2012 l -2.40625,-8.0879 C 29.471513,18.8246 26.60602,17.0603 23.306641,15.7988 Z"
       style="fill:#3ed07e;fill-opacity:1;fill-rule:evenodd;stroke:#000000;stroke-width:0.5;stroke-linecap:butt;stroke-linejoin:miter;stroke-miterlimit:4;stroke-dasharray:none;stroke-opacity:1"
       inkscape:connector-curvature="0" />
    <path
       id="back"
       d="m 14.757812,14.3047 c -0.63096,0.015 -1.29933,0.062 -1.988281,0.1269 l 2.460938,8.7774 c 4.295953,-0.3678 7.519747,0.5134 10.714843,1.6738 l -2.638671,-9.084 C 20.894406,14.8765 18.2489,14.2214 14.757812,14.3047 Z"
       style="fill:#3ed07e;fill-opacity:1;fill-rule:evenodd;stroke:#000000;stroke-width:0.5;stroke-linecap:butt;stroke-linejoin:miter;stroke-miterlimit:4;stroke-dasharray:none;stroke-opacity:1"
       inkscape:connector-curvature="0" />
    <path
       id="path4267"
       d="M 10.445312,6.1406 C 7.811104,6.4801 4.722248,7.1573 1.009766,8.2891 l 2.082031,8.3027 0.01953,-0.051 c 3.827747,-1.21 6.971658,-1.8556 9.658203,-2.1094 l -2.324219,-8.291 z"
       style="fill:#3ed07e;fill-opacity:1;fill-rule:evenodd;stroke:#000000;stroke-width:0.5;stroke-linecap:butt;stroke-linejoin:miter;stroke-miterlimit:4;stroke-dasharray:none;stroke-opacity:1"
       inkscape:connector-curvature="0" />
    <path
       id="path4269"
       d="m 30.931641,11.8203 2.433593,8.1758 c 2.262475,0.6807 4.867939,1.1626 8.136719,1.2051 l 0.08984,0 -2.638672,-7.668 c -3.344793,-0.1682 -5.86369,-0.8415 -8.021484,-1.709 z"
       style="fill:#3ed07e;fill-opacity:1;fill-rule:evenodd;stroke:#000000;stroke-width:0.5;stroke-linecap:butt;stroke-linejoin:miter;stroke-miterlimit:4;stroke-dasharray:none;stroke-opacity:1"
       inkscape:connector-curvature="0" />
    <path
       id="path4271"
       d="m 20.707031,6.8496 2.59961,8.9492 c 3.299379,1.2615 6.164872,3.0258 10.058593,4.1973 L 30.9375,11.8398 C 27.092044,10.3 24.461192,8.1051 20.707031,6.8496 Z"
       style="fill:#3ed07e;fill-opacity:1;fill-rule:evenodd;stroke:#000000;stroke-width:0.5;stroke-linecap:butt;stroke-linejoin:miter;stroke-miterlimit:4;stroke-dasharray:none;stroke-opacity:1"
       inkscape:connector-curvature="0" />
    <path
       id="path4273"
       d="m 14.945312,5.875 c -1.340963,-0.032 -2.830334,0.05 -4.5,0.2656 l 2.324219,8.291 c 4.500891,-0.4251 7.6889,0.2782 10.53711,1.3672 L 20.710938,6.8613 C 19.067316,6.3102 17.220437,5.9292 14.945312,5.875 Z"
       style="fill:#3ed07e;fill-opacity:1;fill-rule:evenodd;stroke:#000000;stroke-width:0.5;stroke-linecap:butt;stroke-linejoin:miter;stroke-miterlimit:4;stroke-dasharray:none;stroke-opacity:1"
       inkscape:connector-curvature="0" />
    <path
       id="path4283"
       d="m 15.230469,23.209 c -2.743378,0.2348 -5.919821,0.9689 -9.826172,2.4707 l -0.03516,0 2.333984,9.3125 c 3.970007,-1.8406 7.181202,-2.6817 10.017578,-2.9043 l -2.490234,-8.8808 z"
       style="fill:#3ed07e;fill-opacity:1;fill-rule:evenodd;stroke:#000000;stroke-width:0.5;stroke-linecap:butt;stroke-linejoin:miter;stroke-miterlimit:4;stroke-dasharray:none;stroke-opacity:1"
       inkscape:connector-curvature="0" />
    <path
       id="path4285"
       d="m 35.771484,28.084 2.517578,8.4609 c 2.550467,0.4522 5.417921,0.7326 8.808594,0.6582 l -2.917968,-8.4824 -0.05078,0.018 c -3.259554,0.1183 -5.972894,-0.1646 -8.357422,-0.6543 z"
       style="fill:#3ed07e;fill-opacity:1;fill-rule:evenodd;stroke:#000000;stroke-width:0.5;stroke-linecap:butt;stroke-linejoin:miter;stroke-miterlimit:4;stroke-dasharray:none;stroke-opacity:1"
       inkscape:connector-curvature="0" />
    <path
       id="path4287"
       d="m 25.945312,24.8828 2.615235,9.002 c 2.867418,0.9363 5.930441,1.9988 9.730469,2.6679 L 35.771484,28.084 c -3.84898,-0.7905 -6.829964,-2.113 -9.826172,-3.2012 z"
       style="fill:#3ed07e;fill-opacity:1;fill-rule:evenodd;stroke:#000000;stroke-width:0.5;stroke-linecap:butt;stroke-linejoin:miter;stroke-miterlimit:4;stroke-dasharray:none;stroke-opacity:1"
       inkscape:connector-curvature="0" />
    <path
       id="path4289"
       d="m 17.111328,23.1152 c -0.601903,0 -1.233327,0.038 -1.880859,0.094 l 2.490234,8.8808 c 4.016418,-0.3152 7.290373,0.6357 10.839844,1.793 l -2.613281,-9 c -2.714059,-0.9858 -5.4439,-1.7796 -8.835938,-1.7676 z"
       style="fill:#3ed07e;fill-opacity:1;fill-rule:evenodd;stroke:#000000;stroke-width:0.5;stroke-linecap:butt;stroke-linejoin:miter;stroke-miterlimit:4;stroke-dasharray:none;stroke-opacity:1"
       inkscape:connector-curvature="0" />
    <path
       id="shading"
       d="m 1.010153,8.2884 6.69226,26.7059 c 17.170686,-7.9608 20.252828,2.6295 39.395949,2.2097 L 38.954007,13.5286 C 23.108223,12.7319 25.272549,0.8921 1.010153,8.2884 Z"
       style="fill:url(#linearGradient4752);fill-opacity:1;fill-rule:evenodd;stroke:none;stroke-width:1px;stroke-linecap:butt;stroke-linejoin:miter;stroke-opacity:1"
       inkscape:connector-curvature="0" />
    <path
       id="flagborder"
       d="m 1.010153,8.2884 6.69226,26.7059 c 17.170686,-7.9608 20.252828,2.6295 39.395949,2.2097 L 38.954007,13.5286 C 23.108223,12.7319 25.272549,0.8921 1.010153,8.2884 Z"
       style="fill:none;fill-rule:evenodd;stroke:url(#linearGradient4770);stroke-width:1.29999995;stroke-linecap:butt;stroke-linejoin:miter;stroke-miterlimit:4;stroke-dasharray:none;stroke-opacity:1"
       inkscape:connector-curvature="0" />
  </g>
</svg>
