<?xml version="1.0" encoding="UTF-8" standalone="no"?>
<svg
   xmlns:dc="http://purl.org/dc/elements/1.1/"
   xmlns:cc="http://creativecommons.org/ns#"
   xmlns:rdf="http://www.w3.org/1999/02/22-rdf-syntax-ns#"
   xmlns:svg="http://www.w3.org/2000/svg"
   xmlns="http://www.w3.org/2000/svg"
   xmlns:xlink="http://www.w3.org/1999/xlink"
   version="1.1"
   id="svg4834"
   viewBox="0 0 48 48"
   height="48"
   width="48">
  <defs
     id="defs4836">
    <linearGradient
       id="linearGradient4764">
      <stop
         id="stop4766"
         offset="0"
         style="stop-color:#494949;stop-opacity:1" />
      <stop
         id="stop4768"
         offset="1"
         style="stop-color:#6d6d6d;stop-opacity:1" />
    </linearGradient>
    <linearGradient
       id="linearGradient4746">
      <stop
         id="stop4748"
         offset="0"
         style="stop-color:#ffffff;stop-opacity:0" />
      <stop
         style="stop-color:#000000;stop-opacity:0.05882353"
         offset="0.26540932"
         id="stop4754" />
      <stop
         id="stop4758"
         offset="0.45036569"
         style="stop-color:#000000;stop-opacity:0.17254902" />
      <stop
         style="stop-color:#000000;stop-opacity:0.19607843"
         offset="0.55155087"
         id="stop4762" />
      <stop
         style="stop-color:#000000;stop-opacity:0.18431373"
         offset="0.64031416"
         id="stop4760" />
      <stop
         id="stop4756"
         offset="0.74516153"
         style="stop-color:#000000;stop-opacity:0.13725491" />
      <stop
         id="stop4750"
         offset="1"
         style="stop-color:#000000;stop-opacity:0" />
    </linearGradient>
    <linearGradient
       gradientUnits="userSpaceOnUse"
       y2="1010.8227"
       x2="29.029366"
       y1="1041.4476"
       x1="16.345484"
       id="linearGradient4770-1"
       xlink:href="#linearGradient4764"
       gradientTransform="translate(36.062576,43.253305)" />
    <linearGradient
       gradientUnits="userSpaceOnUse"
       y2="1022.2883"
       x2="40.759075"
       y1="1031.7526"
       x1="5.4297953"
       id="linearGradient4752-0"
       xlink:href="#linearGradient4746"
       gradientTransform="translate(36.062576,43.253305)" />
    <linearGradient
       gradientUnits="userSpaceOnUse"
       y2="1010.8227"
       x2="29.029366"
       y1="1041.4476"
       x1="16.345484"
       id="linearGradient4770-6"
       xlink:href="#linearGradient4764"
       gradientTransform="matrix(0.7263,0,0,0.7263,13.196766,294.57536)" />
    <linearGradient
       gradientUnits="userSpaceOnUse"
       y2="1022.2883"
       x2="40.759075"
       y1="1031.7526"
       x1="5.4297953"
       id="linearGradient4752-6"
       xlink:href="#linearGradient4746"
       gradientTransform="matrix(0.7263,0,0,0.7263,13.196766,294.57536)" />
  </defs>
  <metadata
     id="metadata4839">
    <rdf:RDF>
      <cc:Work
         rdf:about="">
        <dc:format>image/svg+xml</dc:format>
        <dc:type
           rdf:resource="http://purl.org/dc/dcmitype/StillImage" />
        <dc:title></dc:title>
      </cc:Work>
    </rdf:RDF>
  </metadata>
  <g
     transform="translate(0,-1004.3622)"
     id="layer1">
    <path
       style="display:inline;fill:#65de46;fill-opacity:1;fill-rule:evenodd;stroke:none;stroke-width:1px;stroke-linecap:butt;stroke-linejoin:miter;stroke-opacity:1"
       d="m 13.93044,1030.0635 4.86059,19.3965 c 12.471071,-5.782 14.709631,1.9098 28.613279,1.6049 l -5.915245,-17.1955 c -11.508793,-0.5786 -9.936843,-9.1779 -27.558624,-3.8059 z"
       id="path4339" />
    <path
       id="path4213"
       d="m 22.471277,1034.5253 c -1.951238,0.1843 -4.234661,0.6532 -7.014753,1.532 l -0.02411,0 1.666802,6.6516 0.0227,-0.012 c 2.837182,-1.0907 5.144233,-1.6239 7.136751,-1.7945 l -1.787382,-6.375 z"
       style="display:inline;fill:#3ed07e;fill-opacity:1;fill-rule:evenodd;stroke:#000000;stroke-width:0.36315;stroke-linecap:butt;stroke-linejoin:miter;stroke-miterlimit:4;stroke-dasharray:none;stroke-opacity:1" />
    <path
       id="path4245"
       d="m 37.429939,1038.5668 1.747659,5.8742 c 1.731883,0.3557 3.702581,0.5612 6.069996,0.4752 l 0.03972,-0.01 -1.883841,-5.4742 -0.06383,0.01 c -2.374115,-0.031 -4.266464,-0.3808 -5.909699,-0.8752 z"
       style="display:inline;fill:#3ed07e;fill-opacity:1;fill-rule:evenodd;stroke:#000000;stroke-width:0.36315;stroke-linecap:butt;stroke-linejoin:miter;stroke-miterlimit:4;stroke-dasharray:none;stroke-opacity:1" />
    <path
       id="path4229"
       d="m 30.124382,1035.5183 1.916467,6.5977 c 2.176146,0.7903 4.341235,1.7509 7.136749,2.325 l -1.747659,-5.8742 c -2.82801,-0.8509 -4.909218,-2.1323 -7.305557,-3.0485 z"
       style="display:inline;fill:#3ed07e;fill-opacity:1;fill-rule:evenodd;stroke:#000000;stroke-width:0.36315;stroke-linecap:butt;stroke-linejoin:miter;stroke-miterlimit:4;stroke-dasharray:none;stroke-opacity:1" />
    <path
       id="back-42"
       d="m 23.915368,1034.4331 c -0.458269,0.011 -0.943706,0.045 -1.444091,0.092 l 1.787382,6.375 c 3.12015,-0.2671 5.461592,0.3729 7.78219,1.2157 l -1.916467,-6.5977 c -1.752006,-0.6699 -3.673437,-1.1457 -6.209014,-1.0852 z"
       style="display:inline;fill:#3ed07e;fill-opacity:1;fill-rule:evenodd;stroke:#000000;stroke-width:0.36315;stroke-linecap:butt;stroke-linejoin:miter;stroke-miterlimit:4;stroke-dasharray:none;stroke-opacity:1" />
    <path
       id="path4267"
       d="m 20.783196,1028.5035 c -1.913225,0.2466 -4.156661,0.7385 -6.853037,1.5605 l 1.512179,6.0302 0.01419,-0.037 c 2.780093,-0.8788 5.063515,-1.3477 7.014753,-1.5321 l -1.68808,-6.0217 z"
       style="display:inline;fill:#3ed07e;fill-opacity:1;fill-rule:evenodd;stroke:#000000;stroke-width:0.36315;stroke-linecap:butt;stroke-linejoin:miter;stroke-miterlimit:4;stroke-dasharray:none;stroke-opacity:1" />
    <path
       id="path4269"
       d="m 35.66242,1032.6287 1.767519,5.9381 c 1.643235,0.4944 3.535584,0.8444 5.909699,0.8752 l 0.06525,0 -1.916467,-5.5692 c -2.429323,-0.1222 -4.258798,-0.6112 -5.826004,-1.2413 z"
       style="display:inline;fill:#3ed07e;fill-opacity:1;fill-rule:evenodd;stroke:#000000;stroke-width:0.36315;stroke-linecap:butt;stroke-linejoin:miter;stroke-miterlimit:4;stroke-dasharray:none;stroke-opacity:1" />
    <path
       id="path4271"
       d="m 28.236286,1029.0185 1.888096,6.4998 c 2.396339,0.9162 4.477547,2.1976 7.305557,3.0485 l -1.763264,-5.924 c -2.792954,-1.1183 -4.703742,-2.7125 -7.430389,-3.6243 z"
       style="display:inline;fill:#3ed07e;fill-opacity:1;fill-rule:evenodd;stroke:#000000;stroke-width:0.36315;stroke-linecap:butt;stroke-linejoin:miter;stroke-miterlimit:4;stroke-dasharray:none;stroke-opacity:1" />
    <path
       id="path4273"
       d="m 24.051549,1028.3106 c -0.973944,-0.023 -2.055674,0.036 -3.268353,0.1929 l 1.688081,6.0218 c 3.269,-0.3088 5.584451,0.202 7.653105,0.993 l -1.885259,-6.4913 c -1.193762,-0.4003 -2.535151,-0.677 -4.187574,-0.7164 z"
       style="display:inline;fill:#3ed07e;fill-opacity:1;fill-rule:evenodd;stroke:#000000;stroke-width:0.36315;stroke-linecap:butt;stroke-linejoin:miter;stroke-miterlimit:4;stroke-dasharray:none;stroke-opacity:1" />
    <path
       id="path4283"
       d="m 24.258659,1040.9003 c -1.992519,0.1705 -4.299569,0.7037 -7.136752,1.7945 l -0.02554,0 1.695173,6.7636 c 2.883416,-1.3368 5.21571,-1.9477 7.27577,-2.1094 l -1.808657,-6.4501 z"
       style="display:inline;fill:#3ed07e;fill-opacity:1;fill-rule:evenodd;stroke:#000000;stroke-width:0.36315;stroke-linecap:butt;stroke-linejoin:miter;stroke-miterlimit:4;stroke-dasharray:none;stroke-opacity:1" />
    <path
       id="path4285"
       d="m 39.177598,1044.441 1.828517,6.1452 c 1.852404,0.3284 3.935036,0.5321 6.397682,0.478 l -2.119321,-6.1608 -0.03688,0.013 c -2.367414,0.086 -4.338113,-0.1195 -6.069996,-0.4752 z"
       style="display:inline;fill:#3ed07e;fill-opacity:1;fill-rule:evenodd;stroke:#000000;stroke-width:0.36315;stroke-linecap:butt;stroke-linejoin:miter;stroke-miterlimit:4;stroke-dasharray:none;stroke-opacity:1" />
    <path
       id="path4287"
       d="m 32.040849,1042.116 1.899445,6.5381 c 2.082606,0.6801 4.30728,1.4518 7.06724,1.9377 l -1.829936,-6.1508 c -2.795514,-0.5741 -4.960603,-1.5347 -7.136749,-2.325 z"
       style="display:inline;fill:#3ed07e;fill-opacity:1;fill-rule:evenodd;stroke:#000000;stroke-width:0.36315;stroke-linecap:butt;stroke-linejoin:miter;stroke-miterlimit:4;stroke-dasharray:none;stroke-opacity:1" />
    <path
       id="path4289"
       d="m 25.624727,1040.8322 c -0.437163,0 -0.895766,0.028 -1.366068,0.068 l 1.808657,6.4502 c 2.917124,-0.229 5.294998,0.4617 7.872978,1.3022 l -1.898026,-6.5367 c -1.971221,-0.716 -3.953904,-1.2925 -6.417541,-1.2838 z"
       style="display:inline;fill:#3ed07e;fill-opacity:1;fill-rule:evenodd;stroke:#000000;stroke-width:0.36315;stroke-linecap:butt;stroke-linejoin:miter;stroke-miterlimit:4;stroke-dasharray:none;stroke-opacity:1" />
    <path
       id="shading-4"
       d="m 13.93044,1030.0635 4.860589,19.3965 c 12.471072,-5.782 14.709632,1.9098 28.61328,1.6049 l -5.915245,-17.1955 c -11.508793,-0.5786 -9.936843,-9.1779 -27.558624,-3.8059 z"
       style="display:inline;fill:url(#linearGradient4752-6);fill-opacity:1;fill-rule:evenodd;stroke:none;stroke-width:1px;stroke-linecap:butt;stroke-linejoin:miter;stroke-opacity:1" />
    <path
       id="flagborder-0"
       d="m 13.93044,1030.0635 4.860589,19.3965 c 12.471072,-5.782 14.709632,1.9098 28.61328,1.6049 l -5.915245,-17.1955 c -11.508793,-0.5786 -9.936843,-9.1779 -27.558624,-3.8059 z"
       style="display:inline;fill:none;fill-rule:evenodd;stroke:url(#linearGradient4770-6);stroke-width:1.29999995;stroke-linecap:butt;stroke-linejoin:miter;stroke-miterlimit:4;stroke-dasharray:none;stroke-opacity:1" />
    <path
       style="display:inline;fill:none;fill-rule:evenodd;stroke:#494949;stroke-width:1.30000007;stroke-linecap:butt;stroke-linejoin:miter;stroke-miterlimit:4;stroke-dasharray:none;stroke-opacity:1"
       d="m 13.927028,1030.0829 5.386997,21.5133"
       id="path4183" />
    <g
       transform="matrix(0.72599356,0,0,0.72599356,-26.533834,240.54097)"
       id="g5522">
      <path
         id="path4183-5"
         d="m 37.072728,1055.9039 9.81742,39.2065"
         style="display:inline;fill:none;fill-rule:evenodd;stroke:#494949;stroke-width:1.79064949;stroke-linecap:butt;stroke-linejoin:miter;stroke-miterlimit:4;stroke-dasharray:none;stroke-opacity:1" />
      <path
         id="back-4"
         d="m 37.072728,1055.9039 6.692261,26.7059 c 17.170686,-7.9608 20.252828,2.6295 39.395949,2.2097 l -8.144355,-23.6754 c -15.845784,-0.7967 -13.681458,-12.6365 -37.943855,-5.2402 z"
         style="display:inline;fill:#ffffff;fill-rule:evenodd;stroke:none;stroke-width:1px;stroke-linecap:butt;stroke-linejoin:miter;stroke-opacity:1" />
      <path
         style="display:inline;opacity:1;fill:#ff0000;fill-opacity:1;fill-rule:evenodd;stroke:none;stroke-width:0.80000001;stroke-linecap:butt;stroke-linejoin:miter;stroke-miterlimit:4;stroke-dasharray:none;stroke-dashoffset:1.28400004;stroke-opacity:1"
         d="m 67.835672,1068.0109 c 1.892913,5.3767 -2.608626,8.5233 -6.507683,7.4613 -3.974382,-1.0825 -7.228827,-3.7956 -8.41511,-7.4613 -1.919992,-5.9333 2.836289,-8.7414 6.788189,-7.5736 4.176919,1.2342 6.982955,4.3022 8.134604,7.5736 z"
         id="redcircle" />
      <path
         style="display:inline;fill:url(#linearGradient4752-0);fill-opacity:1;fill-rule:evenodd;stroke:none;stroke-width:1px;stroke-linecap:butt;stroke-linejoin:miter;stroke-opacity:1"
         d="m 37.072728,1055.9039 6.692261,26.7059 c 17.170686,-7.9608 20.252828,2.6295 39.395949,2.2097 l -8.144355,-23.6754 c -15.845784,-0.7967 -13.681458,-12.6365 -37.943855,-5.2402 z"
         id="shading-8" />
      <path
         style="display:inline;fill:none;fill-rule:evenodd;stroke:url(#linearGradient4770-1);stroke-width:1.79064949;stroke-linecap:butt;stroke-linejoin:miter;stroke-miterlimit:4;stroke-dasharray:none;stroke-opacity:1"
         d="m 37.072728,1055.9039 6.692261,26.7059 c 17.170686,-7.9608 20.252828,2.6295 39.395949,2.2097 l -8.144355,-23.6754 c -15.845784,-0.7967 -13.681458,-12.6365 -37.943855,-5.2402 z"
         id="flagborder-6" />
    </g>
  </g>
</svg>
