<?xml version="1.0" encoding="UTF-8" standalone="no"?>
<!-- Created with Inkscape (http://www.inkscape.org/) -->

<svg
   xmlns:dc="http://purl.org/dc/elements/1.1/"
   xmlns:cc="http://creativecommons.org/ns#"
   xmlns:rdf="http://www.w3.org/1999/02/22-rdf-syntax-ns#"
   xmlns:svg="http://www.w3.org/2000/svg"
   xmlns="http://www.w3.org/2000/svg"
   xmlns:sodipodi="http://sodipodi.sourceforge.net/DTD/sodipodi-0.dtd"
   xmlns:inkscape="http://www.inkscape.org/namespaces/inkscape"
   width="48"
   height="48"
   viewBox="0 0 48 48"
   id="svg4156"
   version="1.1"
   inkscape:version="0.91 r13725"
   sodipodi:docname="genstrokes.svg">
  <defs
     id="defs4158" />
  <sodipodi:namedview
     id="base"
     pagecolor="#ffffff"
     bordercolor="#666666"
     borderopacity="1.0"
     inkscape:pageopacity="0.0"
     inkscape:pageshadow="2"
     inkscape:zoom="11.2"
     inkscape:cx="20.357143"
     inkscape:cy="22.857143"
     inkscape:document-units="px"
     inkscape:current-layer="layer1"
     showgrid="false"
     units="px"
     inkscape:window-width="1920"
     inkscape:window-height="1177"
     inkscape:window-x="-8"
     inkscape:window-y="-8"
     inkscape:window-maximized="1" />
  <metadata
     id="metadata4161">
    <rdf:RDF>
      <cc:Work
         rdf:about="">
        <dc:format>image/svg+xml</dc:format>
        <dc:type
           rdf:resource="http://purl.org/dc/dcmitype/StillImage" />
        <dc:title></dc:title>
      </cc:Work>
    </rdf:RDF>
  </metadata>
  <g
     inkscape:label="Layer 1"
     inkscape:groupmode="layer"
     id="layer1"
     transform="translate(0,-1004.3622)">
    <g
       style="font-style:normal;font-variant:normal;font-weight:normal;font-stretch:normal;font-size:35px;line-height:125%;font-family:NSimSun;-inkscape-font-specification:NSimSun;letter-spacing:0px;word-spacing:0px;fill:#000000;fill-opacity:1;stroke:none;stroke-width:1px;stroke-linecap:butt;stroke-linejoin:miter;stroke-opacity:1"
       id="text4730">
      <path
         d="m 28.476563,1026.6201 q -0.136718,-0.957 0.546875,-0.6836 0.820313,0.1367 1.640625,0.6836 0.820313,0.5469 0.820313,1.0938 0.136719,0.4101 -0.410156,1.6406 -0.683594,1.2305 -1.640625,3.5547 2.324218,-0.8203 3.964843,-0.5469 1.640625,0.1367 2.460938,1.3672 0.820312,1.0937 0.820312,2.4609 0,1.5039 -0.957031,5.1953 -0.957031,3.6914 -1.914062,5.3321 -0.820313,1.5039 -1.640625,2.1875 -0.820313,0.6836 -1.914063,1.0937 -1.09375,0.4102 -1.503906,-0.6836 -0.546875,-1.0937 -1.230469,-1.7773 -0.546875,-0.8203 -0.957031,-1.2305 -0.410156,-0.5469 -0.410156,-0.8203 0,-0.1367 -0.136719,0 0,0 0.136719,0 0.273437,0 0.546875,0.1367 0.820312,0.4102 1.777343,0.8203 0.957032,0.4102 1.777344,0.5469 0.820313,0.1367 1.777344,-1.2305 0.957031,-1.3671 1.777344,-4.2382 0.820312,-3.0079 0.820312,-4.6485 0,-1.7773 -0.683594,-2.4609 -0.683593,-0.6836 -1.777343,-0.6836 -0.957032,0 -3.144532,0.6836 -2.460937,5.7422 -4.101562,8.6133 -1.777344,2.8711 -2.460938,4.1015 -0.820312,1.3672 -1.230468,1.6407 l -0.410157,0.4101 q -0.410156,0 -0.683593,-0.5469 -0.136719,-0.6836 -0.136719,-1.0937 0,-0.6836 0.546875,-1.0938 0.683594,-0.6836 1.230469,-1.3672 0.546875,-0.8203 2.050781,-3.5546 1.640625,-2.8711 3.007812,-6.5625 -3.007812,0.8203 -4.101562,1.3671 -0.410156,0.2735 -0.957031,0.2735 -0.546875,0 -1.230469,-0.6836 -0.546875,-0.6836 -0.683594,-1.0938 0,-0.5468 0.820313,-0.5468 3.007812,0.2734 6.699218,-0.9571 0.957032,-2.4609 1.09375,-3.5547 0.273438,-1.0937 0.273438,-1.6406 0,-0.6836 -0.273438,-1.5039 z m 12.304688,6.9727 q -0.820313,-0.8203 -1.09375,-1.2305 -0.136719,-0.4102 2.050781,0.957 2.324219,1.3672 3.691406,2.8711 1.367188,1.5039 1.640625,2.5977 0.273438,0.957 0.273438,1.3672 0,0.5468 -0.410156,1.7773 -0.273438,1.0938 -0.957032,1.6406 -0.546875,0.4102 -0.683593,0.4102 -0.410157,0 -0.683594,-0.4102 -0.683594,-0.6836 -1.640625,-1.2304 -0.957031,-0.6836 -2.050781,-1.3672 l -0.820313,-0.4102 q 0,-0.1367 0.546875,0 0.546875,0 2.050781,0.1367 1.367188,0.2735 1.640625,0.1368 0.410157,-0.1368 0.410157,-0.8203 0.136718,-0.8204 -0.546875,-2.0508 -0.546875,-1.3672 -1.640625,-2.461 -0.957032,-1.2304 -1.777344,-1.914 z"
         style=""
         id="path4746" />
    </g>
    <g
       style="font-style:normal;font-weight:normal;font-size:35px;line-height:125%;font-family:Sans;letter-spacing:0px;word-spacing:0px;fill:#000000;fill-opacity:1;stroke:none;stroke-width:1px;stroke-linecap:butt;stroke-linejoin:miter;stroke-opacity:1"
       id="text4734">
      <path
         d="m 12.519531,1009.2345 q 2.871094,-0.4102 5.195313,-0.957 2.324219,-0.5469 3.144531,-0.9571 0.546875,-0.2734 0.820313,-0.2734 0.136718,0 0.546875,0.2734 0.410156,0.2735 0.820312,0.8203 0.546875,0.5469 0.683594,1.0938 0.273437,0.4102 -0.410156,0.6836 -0.683594,0.2734 -2.871094,1.9141 -2.324219,1.6406 -5.742188,3.9648 -0.136718,1.2305 -0.273437,7.5195 6.699219,-0.5468 8.339844,-0.6836 1.503906,-0.1367 2.324218,0.2735 0.957032,0.2734 1.09375,0.6836 0.273438,0.2734 0.273438,0.5468 0,0.2735 -0.546875,0.4102 -0.410156,0.1367 -1.503906,0 -1.09375,0 -5.195313,0.1367 -3.964844,0 -7.382812,0.4102 -3.417969,0.2734 -5.1953128,0.5468 -1.7773437,0.1368 -3.28125,0.4102 -1.5039062,0.4102 -2.3242187,-0.4102 -0.68359376,-0.957 -0.68359376,-1.2304 0,-0.5469 0.95703126,-0.4102 1.5039062,0.2735 3.5546875,0.1367 2.1875,-0.1367 7.9296875,-0.6836 0,-2.3242 -0.136719,-4.7851 0,-2.5977 -0.273437,-3.418 -0.273438,-0.8203 0.136718,-0.957 0.410157,-0.1367 0.820313,0 0.546875,0.1367 1.367187,0.6836 2.871094,-2.461 4.238282,-3.8281 1.503906,-1.5039 1.640625,-1.7774 0.136718,-0.4101 -2.460938,0.1367 -2.460937,0.4102 -6.289062,1.0938 -3.8281253,0.5469 -5.1953128,0.957 -1.2304687,0.2735 -2.4609375,-0.957 -1.09375,-1.3672 0.4101563,-1.0938 1.640625,0.1368 3.4179687,0.1368 1.7773438,-0.1368 4.5117183,-0.4102 z"
         style="font-style:normal;font-variant:normal;font-weight:normal;font-stretch:normal;font-size:35px;font-family:NSimSun;-inkscape-font-specification:NSimSun"
         id="path4743" />
    </g>
  </g>
</svg>
