<?xml version="1.0" encoding="UTF-8" standalone="no"?>
<!-- Created with Inkscape (http://www.inkscape.org/) -->

<svg
   xmlns:dc="http://purl.org/dc/elements/1.1/"
   xmlns:cc="http://creativecommons.org/ns#"
   xmlns:rdf="http://www.w3.org/1999/02/22-rdf-syntax-ns#"
   xmlns:svg="http://www.w3.org/2000/svg"
   xmlns="http://www.w3.org/2000/svg"
   xmlns:xlink="http://www.w3.org/1999/xlink"
   xmlns:sodipodi="http://sodipodi.sourceforge.net/DTD/sodipodi-0.dtd"
   xmlns:inkscape="http://www.inkscape.org/namespaces/inkscape"
   width="48"
   height="48"
   viewBox="0 0 48 48"
   id="svg4156"
   version="1.1"
   inkscape:version="0.92.2 (5c3e80d, 2017-08-06)"
   sodipodi:docname="genstrokes.svg">
  <defs
     id="defs4158">
    <linearGradient
       inkscape:collect="always"
       id="linearGradient3382">
      <stop
         style="stop-color:#89d8f9;stop-opacity:1"
         offset="0"
         id="stop3378" />
      <stop
         style="stop-color:#0c8ec8;stop-opacity:1"
         offset="1"
         id="stop3380" />
    </linearGradient>
    <radialGradient
       inkscape:collect="always"
       xlink:href="#linearGradient3382"
       id="radialGradient3386"
       cx="22.81308"
       cy="1027.5052"
       fx="22.81308"
       fy="1027.5052"
       r="23.823025"
       gradientTransform="matrix(0.96416856,0,0,0.89974587,1.6602407,103.68116)"
       gradientUnits="userSpaceOnUse" />
  </defs>
  <sodipodi:namedview
     id="base"
     pagecolor="#ffffff"
     bordercolor="#666666"
     borderopacity="1.0"
     inkscape:pageopacity="0.0"
     inkscape:pageshadow="2"
     inkscape:zoom="0.35"
     inkscape:cx="26.241359"
     inkscape:cy="28.034015"
     inkscape:document-units="px"
     inkscape:current-layer="text4734"
     showgrid="false"
     units="px"
     inkscape:window-width="1920"
     inkscape:window-height="1177"
     inkscape:window-x="-8"
     inkscape:window-y="-8"
     inkscape:window-maximized="1" />
  <metadata
     id="metadata4161">
    <rdf:RDF>
      <cc:Work
         rdf:about="">
        <dc:format>image/svg+xml</dc:format>
        <dc:type
           rdf:resource="http://purl.org/dc/dcmitype/StillImage" />
        <dc:title />
      </cc:Work>
    </rdf:RDF>
  </metadata>
  <g
     inkscape:label="Layer 1"
     inkscape:groupmode="layer"
     id="layer1"
     transform="translate(0,-1004.3622)">
    <g
       style="font-style:normal;font-variant:normal;font-weight:normal;font-stretch:normal;font-size:35px;line-height:125%;font-family:NSimSun;-inkscape-font-specification:NSimSun;letter-spacing:0px;word-spacing:0px;fill:#000000;fill-opacity:1;stroke:none;stroke-width:1px;stroke-linecap:butt;stroke-linejoin:miter;stroke-opacity:1"
       id="text4730"
       transform="translate(-0.94701795,-0.50507624)" />
    <g
       style="font-style:normal;font-weight:normal;font-size:35px;line-height:125%;font-family:Sans;letter-spacing:0px;word-spacing:0px;fill:#000000;fill-opacity:1;stroke:none;stroke-width:1px;stroke-linecap:butt;stroke-linejoin:miter;stroke-opacity:1"
       id="text4734"
       transform="translate(0.25253809,-0.12626907)">
      <path
         style="font-style:normal;font-variant:normal;font-weight:normal;font-stretch:normal;font-size:35px;font-family:NSimSun;-inkscape-font-specification:NSimSun;fill:url(#radialGradient3386);fill-opacity:1;stroke:#035161;stroke-width:1.79999995;stroke-miterlimit:4;stroke-dasharray:none;stroke-opacity:1;paint-order:normal"
         d="m 21.714844,1007.3516 c -0.608686,0 -0.923718,0.1861 -1.328125,0.3906 -0.253166,0.128 -1.177876,0.4404 -2.527344,0.7617 -1.338167,0.3185 -2.84798,0.5991 -4.525391,0.8418 -0.0036,5e-4 -0.0061,0 -0.0098,0 -1.571269,0.1585 -2.870086,0.2751 -3.8945315,0.3554 -1.0120978,0 -1.9821313,-0.037 -2.5348266,-0.096 -0.5526954,-0.059 -0.8389084,-0.1001 -1.2229859,-0.038 -0.3840775,0.062 -1.0343245,0.3882 -1.2597656,0.9961 -0.2254412,0.6078 -0.04812,1.0472 0.089844,1.3476 0.1379635,0.3005 0.3077128,0.5374 0.9179329,1.1866 0.61022,0.6492 1.8771388,1.2186 2.8656149,0.9696 0.988476,-0.249 2.5391328,-0.5505 4.8004368,-0.8774 0.01568,0 0.03131,-0.01 0.04687,-0.01 1.665295,-0.3009 2.870412,-0.5083 4.09961,-0.7207 -0.563793,0.5323 -1.16551,1.093 -1.996094,1.8242 -0.199208,-0.092 -0.394972,-0.2409 -0.607422,-0.2988 -0.488539,-0.1558 -1.052454,-0.1635 -1.537109,0 -0.541504,0.1826 -1.028205,0.8516 -1.097656,1.3398 -0.06945,0.4883 0.02879,0.8342 0.144531,1.1856 0.0348,0.1056 0.179687,1.1608 0.209522,2.4833 0.02984,1.3225 0.04223,2.3257 0.0581,3.3329 -2.5261985,0.2371 -4.7855735,0.4435 -5.8339842,0.5097 h -0.00586 c -1.1445958,0.077 -2.1011502,0.033 -2.707804,-0.071 -0.6066539,-0.1037 -1.0174909,-0.1508 -1.5519613,0.08 -0.5344703,0.231 -1.0078125,1.0039 -1.0078125,1.5488 0,0.6224 0.1729767,0.7768 0.3144531,1.0351 0.1414765,0.2584 0.317625,0.5263 0.9227529,1.1953 0.6051278,0.669 1.9487012,0.8474 2.9024672,0.6213 0.9537659,-0.2261 1.8866739,-0.3446 2.9491425,-0.4683 1.0624686,-0.1237 2.5928453,-0.2905 4.6209023,-0.4926 2.028057,-0.2021 4.179905,-0.3231 6.585277,-0.3641 2.405372,-0.041 3.971802,-0.08 4.545957,-0.04 0.574156,0.04 1.06996,0.1149 1.754741,-0.1071 0.236479,-0.062 0.477618,-0.1456 0.746094,-0.3418 -0.183086,0.4399 -0.188371,0.8301 -0.07425,1.3033 0.114126,0.4732 0.164085,0.7937 0.164085,1.0307 0,0.1103 -0.05566,0.5573 -0.165915,1.102 -0.110256,0.5447 -0.428141,1.5144 -0.777448,2.5094 -1.806849,0.5411 -3.441281,0.7812 -4.399781,0.7117 -0.9585,-0.069 -1.392951,-0.028 -1.852172,0.2822 -0.45922,0.3105 -0.763672,0.9709 -0.763672,1.4609 6.9e-5,0.14 0.02249,0.2791 0.06641,0.4121 0.176213,0.535 0.457171,0.9229 0.95789,1.4829 0.500719,0.5601 1.126478,1.0308 2.00695,1.0308 0.548943,0 1.124744,-0.1595 1.329747,-0.2966 0.205002,-0.137 0.626414,-0.2526 0.764003,-0.3089 -0.465255,1.0445 -0.898632,2.2063 -1.59679,3.4731 -0.698158,1.2668 -1.306465,2.324 -1.573166,2.7324 -0.282642,0.3532 -0.601061,0.7121 -1.015244,1.064 -0.414183,0.3519 -0.816787,1.1735 -0.816787,1.9302 0,0.3874 0.05453,0.7828 0.296535,1.4626 0.242005,0.6798 0.922977,1.3401 1.754246,1.3401 0.351502,0 0.688385,-0.1407 1.271157,-0.6223 0.582771,-0.4816 0.809367,-1.0044 1.169033,-1.6243 0.359666,-0.62 0.864605,-1.4435 1.190666,-1.9956 0.10894,0.4202 0.232433,0.8071 0.474251,1.0984 0.241819,0.2912 0.493394,0.6104 0.868015,1.0829 0.374622,0.4725 0.671017,0.8896 0.881423,1.3749 0.210407,0.4853 0.591567,1.0522 1.217715,1.3403 0.626149,0.2881 1.308831,0.2062 1.841797,0 0.778889,-0.2953 1.485294,-0.7021 2.095703,-1.2168 0.68242,-0.5755 1.233606,-1.3584 1.767578,-2.3457 0.686944,-1.1956 1.259582,-2.8666 1.84375,-5.1465 0.582159,-2.2718 0.896485,-3.8504 0.896485,-5.0332 0,-1.0715 -0.344413,-2.1113 -0.97461,-2.9765 -0.6931,-1.0326 -1.863327,-1.6698 -3.125,-1.7891 -0.46263,-0.073 -0.95142,-0.042 -1.441406,-0.01 0.10728,-0.2179 0.264446,-0.6178 0.428393,-0.9616 0.163947,-0.3438 0.30019,-0.7082 0.389962,-1.0716 0.07517,-0.3044 0.0876,-0.6581 0.0039,-1.0762 -0.09423,-0.8523 -0.642162,-1.4722 -1.362613,-1.9558 -0.72045,-0.4837 -1.622423,-0.679 -2.445981,-0.8216 -0.341612,0.025 -0.411719,0.1222 -0.680104,0.4128 0.177078,-0.2548 0.06096,-0.348 0.06096,-0.6765 -0.19242,-1.1556 -1.057591,-1.8301 -1.953125,-2.289 -0.831412,-0.419 -1.753451,-0.4775 -2.787109,-0.3828 h -0.0039 c -0.784998,0.066 -3.253609,0.2708 -5.978516,0.4961 0.05979,-2.1978 0.119855,-4.0823 0.166016,-4.6758 1.768594,-1.2201 3.369074,-2.3338 4.649591,-3.2774 1.280516,-0.9437 2.256719,-1.5309 2.26838,-1.5356 0.338308,-0.1369 0.725191,-0.3035 1.035157,-0.8262 0.289745,-0.4886 0.161487,-1.2085 -0.06055,-1.623 -0.176666,-0.463 -0.405341,-0.8991 -0.748047,-1.2539 -0.284321,-0.3681 -0.583825,-0.7031 -0.962891,-0.959 -0.150513,-0.1015 -0.28886,-0.1864 -0.449218,-0.2676 -0.160359,-0.081 -0.291088,-0.205 -0.777344,-0.205 z m 16.296875,22.8574 c -0.230655,-0.018 -0.765279,-0.025 -1.191407,0.5 -0.426127,0.5253 -0.3054,1.0811 -0.230468,1.3086 0.274049,0.6464 0.876749,1.1659 1.273883,1.5707 0.493927,0.4628 0.972994,0.9769 1.56182,1.6568 0.588826,0.6798 0.972351,1.2643 1.231669,1.839 0.259318,0.5746 0.226871,0.6344 0.266609,0.8084 -0.585311,-0.083 -1.365365,-0.1259 -2.146484,-0.166 -0.133807,-0.029 -0.250633,-0.066 -0.447266,-0.066 -0.151527,0 -0.350348,-0.013 -0.685547,0.1562 -0.335198,0.169 -0.753906,0.7648 -0.753906,1.2207 2.89e-4,0.4962 0.279714,0.9501 0.722656,1.1738 l 0.669922,0.3399 c 0.614628,0.3898 1.190617,0.7782 1.755529,1.1466 0.564911,0.3684 0.957565,0.6718 1.199413,0.9828 0.241849,0.3111 0.936634,0.7707 1.623183,0.7707 0.703337,0 0.727949,-0.1829 0.896484,-0.2852 0.168536,-0.1023 0.325517,-0.2137 0.768697,-0.5668 0.44318,-0.3532 0.857194,-1.1358 1.071144,-1.9875 0.245934,-0.7511 0.416016,-1.3155 0.416016,-1.9453 0,-0.5305 -0.120593,-0.9603 -0.291016,-1.5644 -0.253562,-1.0154 -0.871551,-1.9155 -1.761718,-2.9063 -0.927972,-1.0328 -2.131621,-1.9698 -3.597657,-2.8437 -0.661674,-0.4181 -1.151643,-0.7096 -1.564453,-0.9043 -0.208702,-0.099 -0.325799,-0.2025 -0.787109,-0.2383 z m -6.904297,3.9512 c 0.375987,0 0.495075,0.065 0.65625,0.2285 0.0061,0.01 0.230469,0.3971 0.230469,1.3047 0,0.7725 -0.213965,2.1071 -0.685547,3.8593 -0.467626,1.6539 -0.981131,2.8309 -1.40625,3.4453 -0.20808,0.3008 -0.36575,0.4453 -0.451172,0.5137 -0.332211,-0.069 -0.69563,-0.1664 -1.126953,-0.3535 -0.549508,-0.2383 -1.05698,-0.476 -1.521485,-0.7109 -0.412309,-0.231 -1.0625,-0.4901 -1.201172,-0.2557 1.38781,-2.5158 2.672265,-5.4201 3.607424,-7.5938 0.856013,-0.2341 1.698577,-0.4355 1.898438,-0.4355 z"
         id="path4743"
         inkscape:connector-curvature="0"
         sodipodi:nodetypes="cccccccsccccccccccccccccccsccccccccccscccccccscccccsccccccccsccccscccccccccccccccccsccccccccccccccsccccccscccsccccccccsccccccccc" />
    </g>
  </g>
</svg>
