<?xml version="1.0" encoding="UTF-8" standalone="no"?>
<svg
   xmlns:dc="http://purl.org/dc/elements/1.1/"
   xmlns:cc="http://creativecommons.org/ns#"
   xmlns:rdf="http://www.w3.org/1999/02/22-rdf-syntax-ns#"
   xmlns:svg="http://www.w3.org/2000/svg"
   xmlns="http://www.w3.org/2000/svg"
   xmlns:xlink="http://www.w3.org/1999/xlink"
   xmlns:sodipodi="http://sodipodi.sourceforge.net/DTD/sodipodi-0.dtd"
   xmlns:inkscape="http://www.inkscape.org/namespaces/inkscape"
   version="1.1"
   id="svg4270"
   viewBox="0 0 48 48"
   height="48"
   width="48"
   inkscape:version="0.91 r13725"
   sodipodi:docname="kanjisearch.svg">
  <sodipodi:namedview
     pagecolor="#ffffff"
     bordercolor="#666666"
     borderopacity="1"
     objecttolerance="10"
     gridtolerance="10"
     guidetolerance="10"
     inkscape:pageopacity="0"
     inkscape:pageshadow="2"
     inkscape:window-width="1920"
     inkscape:window-height="1177"
     id="namedview7714"
     showgrid="false"
     inkscape:zoom="13.906433"
     inkscape:cx="22.308784"
     inkscape:cy="21.986543"
     inkscape:window-x="-8"
     inkscape:window-y="-8"
     inkscape:window-maximized="1"
     inkscape:current-layer="svg4270" />
  <defs
     id="defs4272">
    <linearGradient
       id="linearGradient4892">
      <stop
         style="stop-color:#ffffff;stop-opacity:0.70588237"
         offset="0"
         id="stop4894" />
      <stop
         id="stop4896"
         offset="0.63236153"
         style="stop-color:#ffffff;stop-opacity:0.627451" />
      <stop
         style="stop-color:#ffffff;stop-opacity:0;"
         offset="1"
         id="stop4898" />
    </linearGradient>
    <linearGradient
       id="linearGradient4876">
      <stop
         id="stop4878"
         offset="0"
         style="stop-color:#ffffff;stop-opacity:0.6511628" />
      <stop
         style="stop-color:#ffffff;stop-opacity:0.54883718"
         offset="0.50396097"
         id="stop4884" />
      <stop
         id="stop4880"
         offset="1"
         style="stop-color:#ffffff;stop-opacity:0;" />
    </linearGradient>
    <linearGradient
       id="linearGradient4864">
      <stop
         id="stop4866"
         offset="0"
         style="stop-color:#4b94ff;stop-opacity:0" />
      <stop
         style="stop-color:#647184;stop-opacity:0.54418606"
         offset="0.85652494"
         id="stop4872" />
      <stop
         id="stop4868"
         offset="1"
         style="stop-color:#597088;stop-opacity:1" />
    </linearGradient>
    <linearGradient
       id="linearGradient4846">
      <stop
         id="stop4848"
         offset="0"
         style="stop-color:#ffffff;stop-opacity:1;" />
      <stop
         id="stop4850"
         offset="1"
         style="stop-color:#ffffff;stop-opacity:0;" />
    </linearGradient>
    <radialGradient
       gradientUnits="userSpaceOnUse"
       gradientTransform="matrix(1.8993907,-0.03490105,0.04025995,10.199796,-260.71882,-10572.124)"
       r="0.82825649"
       fy="1038.724"
       fx="99.843987"
       cy="1038.724"
       cx="99.843987"
       id="radialGradient4852"
       xlink:href="#linearGradient4846" />
    <radialGradient
       gradientUnits="userSpaceOnUse"
       gradientTransform="matrix(-0.72268832,-0.65171657,-0.62349497,0.69250982,677.97858,-674.23134)"
       r="10.080303"
       fy="1018.4792"
       fx="22.767853"
       cy="1018.4792"
       cx="22.767853"
       id="radialGradient4870"
       xlink:href="#linearGradient4864" />
    <radialGradient
       gradientTransform="matrix(1.1405059,4.6252363e-6,-4.4486773e-6,1.0972582,-55.029073,-1121.0202)"
       gradientUnits="userSpaceOnUse"
       r="5.3033009"
       fy="1015.681"
       fx="25.195166"
       cy="1015.681"
       cx="25.195166"
       id="radialGradient4882"
       xlink:href="#linearGradient4892" />
    <radialGradient
       r="5.3033009"
       fy="1015.681"
       fx="25.195166"
       cy="1015.681"
       cx="25.195166"
       gradientTransform="matrix(0.49998873,2.0901158e-6,-2.1586669e-6,0.51652331,-48.124472,-528.15756)"
       gradientUnits="userSpaceOnUse"
       id="radialGradient4890"
       xlink:href="#linearGradient4876" />
    <radialGradient
       xlink:href="#linearGradient4846"
       id="radialGradient4852-2"
       cx="99.843987"
       cy="1038.724"
       fx="99.843987"
       fy="1038.724"
       r="0.82825649"
       gradientTransform="matrix(3.6093066,-0.33396042,1.0664216,17.581466,-1498.2026,-18210.366)"
       gradientUnits="userSpaceOnUse" />
    <radialGradient
       xlink:href="#linearGradient4864"
       id="radialGradient4870-0"
       cx="22.767853"
       cy="1018.4792"
       fx="22.767853"
       fy="1018.4792"
       r="10.080303"
       gradientTransform="matrix(-0.75983631,-0.68521643,-0.65554417,0.72810656,713.85096,-709.584)"
       gradientUnits="userSpaceOnUse" />
    <radialGradient
       xlink:href="#linearGradient4876"
       id="radialGradient4890-1"
       gradientUnits="userSpaceOnUse"
       gradientTransform="matrix(0.5256894,2.197553e-6,-2.2696278e-6,0.5430739,-50.928647,-556.49815)"
       cx="25.195166"
       cy="1015.681"
       fx="25.195166"
       fy="1015.681"
       r="5.3033009" />
    <radialGradient
       xlink:href="#linearGradient4892"
       id="radialGradient4882-9"
       cx="25.195166"
       cy="1015.681"
       fx="25.195166"
       fy="1015.681"
       r="5.3033009"
       gradientUnits="userSpaceOnUse"
       gradientTransform="matrix(1.1991308,4.862985e-6,-4.6773504e-6,1.15366,-58.188161,-1179.8354)" />
    <radialGradient
       xlink:href="#linearGradient4846"
       id="radialGradient4205"
       cx="17.616879"
       cy="7.1157136"
       fx="17.616879"
       fy="7.1157136"
       r="9.8317337"
       gradientTransform="matrix(0.90905284,0.90905284,-0.84911359,0.84911359,9.5723862,-15.001017)"
       gradientUnits="userSpaceOnUse" />
    <radialGradient
       xlink:href="#linearGradient4846"
       id="radialGradient4215"
       cx="27.960089"
       cy="23.592018"
       fx="27.960089"
       fy="23.592018"
       r="9.3335304"
       gradientTransform="matrix(0.63044421,-1.0919614,1.1999353,0.69278294,-11.994777,37.852093)"
       gradientUnits="userSpaceOnUse" />
    <radialGradient
       xlink:href="#linearGradient4846"
       id="radialGradient4852-3"
       cx="99.843987"
       cy="1038.724"
       fx="99.843987"
       fy="1038.724"
       r="0.82825649"
       gradientTransform="matrix(1.9426303,-2.1993127,9.8111001,10.197796,-10396.338,-10335.875)"
       gradientUnits="userSpaceOnUse" />
    <radialGradient
       xlink:href="#linearGradient4864"
       id="radialGradient4870-0-6"
       cx="22.767853"
       cy="1018.4792"
       fx="22.767853"
       fy="1018.4792"
       r="10.080303"
       gradientTransform="matrix(-0.6123183,-0.55218545,-0.52827389,0.58674871,526.1941,-562.6314)"
       gradientUnits="userSpaceOnUse" />
    <radialGradient
       xlink:href="#linearGradient4876"
       id="radialGradient4890-1-2"
       gradientUnits="userSpaceOnUse"
       gradientTransform="matrix(0.4236297,1.7709102e-6,-1.8289921e-6,0.43763909,-9.5506263,-409.69763)"
       cx="25.195166"
       cy="1015.681"
       fx="25.195166"
       fy="1015.681"
       r="5.3033009" />
    <radialGradient
       xlink:href="#linearGradient4892"
       id="radialGradient4882-9-4"
       cx="25.195166"
       cy="1015.681"
       fx="25.195166"
       fy="1015.681"
       r="5.3033009"
       gradientUnits="userSpaceOnUse"
       gradientTransform="matrix(0.96632615,3.9188634e-6,-3.7692686e-6,0.92968325,-15.400746,-912.01743)" />
    <radialGradient
       xlink:href="#linearGradient4846"
       id="radialGradient4205-8"
       cx="17.616879"
       cy="7.1157136"
       fx="17.616879"
       fy="7.1157136"
       r="9.8317337"
       gradientTransform="matrix(0.73256526,0.73256526,-0.68426288,0.68426288,-41.352679,-2.8978611)"
       gradientUnits="userSpaceOnUse" />
    <radialGradient
       xlink:href="#linearGradient4846"
       id="radialGradient4215-5"
       cx="27.960089"
       cy="23.592018"
       fx="27.960089"
       fy="23.592018"
       r="9.3335304"
       gradientTransform="matrix(0.50804695,-0.87996317,0.96697453,0.55828295,-58.732698,39.694109)"
       gradientUnits="userSpaceOnUse" />
  </defs>
  <metadata
     id="metadata4275">
    <rdf:RDF>
      <cc:Work
         rdf:about="">
        <dc:format>image/svg+xml</dc:format>
        <dc:type
           rdf:resource="http://purl.org/dc/dcmitype/StillImage" />
        <dc:title></dc:title>
      </cc:Work>
    </rdf:RDF>
  </metadata>
  <text
     xml:space="preserve"
     style="font-style:normal;font-weight:normal;font-size:30px;line-height:125%;font-family:Sans;letter-spacing:0px;word-spacing:0px;fill:#000000;fill-opacity:1;stroke:none;stroke-width:1px;stroke-linecap:butt;stroke-linejoin:miter;stroke-opacity:1"
     x="-0.2678577"
     y="25.232161"
     id="text4168"><tspan
       x="-0.2678577"
       y="25.232161"
       id="tspan4178" /></text>
  <rect
     style="opacity:1;fill:#ffffff;fill-opacity:1;fill-rule:evenodd;stroke:none;stroke-width:7;stroke-linecap:butt;stroke-linejoin:bevel;stroke-miterlimit:4;stroke-dasharray:none;stroke-dashoffset:1.28400004;stroke-opacity:1"
     id="rect7058"
     width="35.666954"
     height="35.810768"
     x="4.5168195"
     y="4.4814963" />
  <rect
     style="opacity:1;fill:#ffffff;fill-opacity:1;fill-rule:evenodd;stroke:none;stroke-width:5;stroke-linecap:butt;stroke-linejoin:bevel;stroke-miterlimit:4;stroke-dasharray:none;stroke-dashoffset:1.28400004;stroke-opacity:1"
     id="rect6975"
     width="36.242222"
     height="36.242218"
     x="4.4449105"
     y="4.1938605" />
  <path
     inkscape:connector-curvature="0"
     d="m -31.004681,15.740699 c 3.102519,-2.63385 7.751115,-2.251643 10.382441,0.853633 2.630567,3.105275 2.248205,7.756581 -0.854114,10.389669 -3.102015,2.633341 -7.749746,2.251726 -10.381385,-0.852532 -2.631681,-3.105023 -2.249764,-7.757343 0.853058,-10.39077 z m -2.753432,-3.22847 c -4.41367,3.760137 -5.373802,10.204622 -2.241046,15.08537 3.132759,4.880748 9.391035,6.689518 14.577793,4.267742 0,0 1.172739,-0.757976 2.729337,1.078754 1.698985,2.004916 3.245013,4.456179 4.351991,6.103456 1.331569,1.9817 3.019762,4.100575 4.720783,5.555521 1.6681506,1.426986 2.9792479,1.791231 3.9177131,0.994705 0.9384671,-0.796527 0.7931938,-2.150478 -0.3410874,-4.03059 -1.1566611,-1.917051 -2.9701196,-3.929846 -4.7061017,-5.567975 -1.44316,-1.361914 -3.607359,-3.288541 -5.306348,-5.293372 -1.556596,-1.836645 -0.610237,-2.882695 -0.610237,-2.882695 3.230615,-4.743744 2.45417,-11.215002 -1.854508,-15.095453 -4.30866,-3.880282 -10.824271,-3.9750923 -15.238343,-0.215463 z"
     style="opacity:1;fill:none;fill-opacity:1;fill-rule:evenodd;stroke:#ffffff;stroke-width:5.86153173;stroke-linecap:round;stroke-linejoin:round;stroke-miterlimit:4;stroke-dasharray:none;stroke-dashoffset:1.28400004;stroke-opacity:1"
     id="path6936" />
  <rect
     style="opacity:1;fill:#000000;fill-opacity:1;fill-rule:evenodd;stroke:none;stroke-width:5;stroke-linecap:butt;stroke-linejoin:bevel;stroke-miterlimit:4;stroke-dasharray:none;stroke-dashoffset:1.28400004;stroke-opacity:1"
     id="rect6979"
     width="2.8763666"
     height="38.902855"
     x="3.0067286"
     y="2.8994963" />
  <rect
     y="2.8994963"
     x="15.006726"
     height="38.902855"
     width="2.8763666"
     id="rect6983"
     style="opacity:1;fill:#000000;fill-opacity:1;fill-rule:evenodd;stroke:none;stroke-width:5;stroke-linecap:butt;stroke-linejoin:bevel;stroke-miterlimit:4;stroke-dasharray:none;stroke-dashoffset:1.28400004;stroke-opacity:1" />
  <rect
     style="opacity:1;fill:#000000;fill-opacity:1;fill-rule:evenodd;stroke:none;stroke-width:5;stroke-linecap:butt;stroke-linejoin:bevel;stroke-miterlimit:4;stroke-dasharray:none;stroke-dashoffset:1.28400004;stroke-opacity:1"
     id="rect6985"
     width="2.8763657"
     height="38.902855"
     x="27.006725"
     y="2.8994963" />
  <rect
     y="2.8994963"
     x="39.006752"
     height="38.902855"
     width="2.8763657"
     id="rect6987"
     style="opacity:1;fill:#000000;fill-opacity:1;fill-rule:evenodd;stroke:none;stroke-width:5;stroke-linecap:butt;stroke-linejoin:bevel;stroke-miterlimit:4;stroke-dasharray:none;stroke-dashoffset:1.28400004;stroke-opacity:1" />
  <rect
     y="-41.860401"
     x="2.9486964"
     height="38.830948"
     width="2.8763666"
     id="rect6991"
     style="opacity:1;fill:#000000;fill-opacity:1;fill-rule:evenodd;stroke:none;stroke-width:5;stroke-linecap:butt;stroke-linejoin:bevel;stroke-miterlimit:4;stroke-dasharray:none;stroke-dashoffset:1.28400004;stroke-opacity:1"
     transform="matrix(0,1,-1,0,0,0)" />
  <rect
     style="opacity:1;fill:#000000;fill-opacity:1;fill-rule:evenodd;stroke:none;stroke-width:5;stroke-linecap:butt;stroke-linejoin:bevel;stroke-miterlimit:4;stroke-dasharray:none;stroke-dashoffset:1.28400004;stroke-opacity:1"
     id="rect6993"
     width="2.8763666"
     height="38.830948"
     x="14.948694"
     y="-41.860401"
     transform="matrix(0,1,-1,0,0,0)" />
  <rect
     y="-41.860401"
     x="26.948692"
     height="38.830948"
     width="2.8763676"
     id="rect6995"
     style="opacity:1;fill:#000000;fill-opacity:1;fill-rule:evenodd;stroke:none;stroke-width:5;stroke-linecap:butt;stroke-linejoin:bevel;stroke-miterlimit:4;stroke-dasharray:none;stroke-dashoffset:1.28400004;stroke-opacity:1"
     transform="matrix(0,1,-1,0,0,0)" />
  <rect
     style="opacity:1;fill:#000000;fill-opacity:1;fill-rule:evenodd;stroke:none;stroke-width:5;stroke-linecap:butt;stroke-linejoin:bevel;stroke-miterlimit:4;stroke-dasharray:none;stroke-dashoffset:1.28400004;stroke-opacity:1"
     id="rect6997"
     width="2.8763657"
     height="38.830948"
     x="38.948719"
     y="-41.860401"
     transform="matrix(0,1,-1,0,0,0)" />
  <g
     id="g7092"
     transform="translate(3.0067288,2.9348196)">
    <g
       id="text7060"
       style="font-style:normal;font-variant:normal;font-weight:normal;font-stretch:normal;font-size:40px;line-height:125%;font-family:HGSeikaishotaiPRO;-inkscape-font-specification:HGSeikaishotaiPRO;letter-spacing:0px;word-spacing:0px;fill:#000000;fill-opacity:1;stroke:none;stroke-width:1px;stroke-linecap:butt;stroke-linejoin:miter;stroke-opacity:1">
      <path
         inkscape:connector-curvature="0"
         id="path7065"
         d="m 8.1476915,5.4282363 c 0.413149,-0.326843 1.116245,0.055791 1.2784547,0.4477512 C 9.2542681,6.1702915 8.8310738,6.1653858 8.6141736,6.4289972 8.2354144,6.6995396 7.8566551,6.9700819 7.4778959,7.2406243 7.7528393,7.7051384 8.2551231,8.0381856 8.7671315,7.7387526 9.3238539,7.7530856 9.8241569,7.5079248 10.348002,7.4098818 10.770635,7.3820126 11.278919,7.500168 11.47822,7.9156978 11.240045,8.4729833 10.568381,8.0288873 10.129021,8.1363591 9.4286475,8.1674086 8.7256986,8.1747625 8.0294923,8.2650193 8.1708019,9.5119917 8.1737936,10.826583 7.664651,11.997487 7.207369,12.535608 6.8117153,11.685279 6.5546587,11.380893 6.340433,11.305875 5.9625633,10.715917 6.4349874,10.922625 6.9250351,11.189597 7.4543621,10.827078 7.3715175,10.284842 7.4509314,9.6859647 7.3580798,9.0812684 7.4101293,8.4809445 7.0425918,8.182512 6.5565425,8.6096859 6.1308436,8.5577827 5.4953261,8.6602279 4.8684088,8.8131593 4.2497876,8.985598 3.7392534,8.9368793 3.9114335,8.3001586 4.3880016,8.4985972 5.3677672,8.3283576 6.3436432,8.1368325 7.3202969,7.9498193 7.5658775,7.5421734 6.6435887,7.277047 6.8812462,7.0308786 7.2083307,7.1699574 7.599226,7.0720919 7.6821887,6.6991184 7.8767561,6.4199567 8.0713234,6.140795 8.2658908,5.8616333 7.7793322,5.6017893 7.3304126,6.0554545 6.8685652,6.1546442 6.5137998,6.2374086 6.1601167,6.4498589 5.7768418,6.3590644 5.4542902,6.338547 5.1836399,5.9117465 5.6622669,5.8967815 6.2359305,5.8248846 6.8050451,5.7397186 7.3682758,5.603442 7.6287609,5.5481192 7.8885341,5.4894699 8.1476915,5.4282363 Z M 7.005099,2.7884533 C 7.4125403,2.7510792 7.9945889,3.0106222 7.9333311,3.491878 7.6920777,3.7388853 7.7488497,4.3735607 8.2058299,4.1764591 8.5574139,4.0566366 8.9580455,4.0785493 9.3286698,4.0124483 9.7451483,3.9900094 10.139014,3.8659231 10.530169,3.774038 10.917268,3.8885672 11.576191,4.1473285 11.546157,4.6143933 11.255707,4.9818783 10.655639,4.741658 10.289932,5.0720055 10.07777,5.1957315 9.4375409,5.4430134 9.7630151,4.9885764 10.085962,4.7946084 10.389686,4.198672 9.7722692,4.2823901 8.9039339,4.3540993 8.0383933,4.46467 7.1759324,4.5889156 6.4222769,4.702899 5.671065,4.8326746 4.9165558,4.9410725 4.4353311,5.2365817 4.8106724,6.0599077 4.2355585,6.2677159 3.7666098,6.2966742 3.6328735,5.5458747 3.9567225,5.2833877 4.2534208,5.0022663 4.3869522,4.3402176 4.6182222,4.191428 4.72238,4.587053 5.0655048,4.7894547 5.4209011,4.5526869 5.9397899,4.4640118 6.4658587,4.4168136 6.9796385,4.2990891 7.2916804,3.8264095 6.8962421,3.3069373 6.7096117,2.8710189 6.7832246,2.7888649 6.9025667,2.7788173 7.005099,2.7884533 Z" />
    </g>
    <g
       transform="translate(11.793103,0)"
       style="font-style:normal;font-variant:normal;font-weight:normal;font-stretch:normal;font-size:40px;line-height:125%;font-family:HGSeikaishotaiPRO;-inkscape-font-specification:HGSeikaishotaiPRO;letter-spacing:0px;word-spacing:0px;fill:#000000;fill-opacity:1;stroke:none;stroke-width:1px;stroke-linecap:butt;stroke-linejoin:miter;stroke-opacity:1"
       id="g7084">
      <path
         d="m 8.1476915,5.4282363 c 0.413149,-0.326843 1.116245,0.055791 1.2784547,0.4477512 C 9.2542681,6.1702915 8.8310738,6.1653858 8.6141736,6.4289972 8.2354144,6.6995396 7.8566551,6.9700819 7.4778959,7.2406243 7.7528393,7.7051384 8.2551231,8.0381856 8.7671315,7.7387526 9.3238539,7.7530856 9.8241569,7.5079248 10.348002,7.4098818 10.770635,7.3820126 11.278919,7.500168 11.47822,7.9156978 11.240045,8.4729833 10.568381,8.0288873 10.129021,8.1363591 9.4286475,8.1674086 8.7256986,8.1747625 8.0294923,8.2650193 8.1708019,9.5119917 8.1737936,10.826583 7.664651,11.997487 7.207369,12.535608 6.8117153,11.685279 6.5546587,11.380893 6.340433,11.305875 5.9625633,10.715917 6.4349874,10.922625 6.9250351,11.189597 7.4543621,10.827078 7.3715175,10.284842 7.4509314,9.6859647 7.3580798,9.0812684 7.4101293,8.4809445 7.0425918,8.182512 6.5565425,8.6096859 6.1308436,8.5577827 5.4953261,8.6602279 4.8684088,8.8131593 4.2497876,8.985598 3.7392534,8.9368793 3.9114335,8.3001586 4.3880016,8.4985972 5.3677672,8.3283576 6.3436432,8.1368325 7.3202969,7.9498193 7.5658775,7.5421734 6.6435887,7.277047 6.8812462,7.0308786 7.2083307,7.1699574 7.599226,7.0720919 7.6821887,6.6991184 7.8767561,6.4199567 8.0713234,6.140795 8.2658908,5.8616333 7.7793322,5.6017893 7.3304126,6.0554545 6.8685652,6.1546442 6.5137998,6.2374086 6.1601167,6.4498589 5.7768418,6.3590644 5.4542902,6.338547 5.1836399,5.9117465 5.6622669,5.8967815 6.2359305,5.8248846 6.8050451,5.7397186 7.3682758,5.603442 7.6287609,5.5481192 7.8885341,5.4894699 8.1476915,5.4282363 Z M 7.005099,2.7884533 C 7.4125403,2.7510792 7.9945889,3.0106222 7.9333311,3.491878 7.6920777,3.7388853 7.7488497,4.3735607 8.2058299,4.1764591 8.5574139,4.0566366 8.9580455,4.0785493 9.3286698,4.0124483 9.7451483,3.9900094 10.139014,3.8659231 10.530169,3.774038 10.917268,3.8885672 11.576191,4.1473285 11.546157,4.6143933 11.255707,4.9818783 10.655639,4.741658 10.289932,5.0720055 10.07777,5.1957315 9.4375409,5.4430134 9.7630151,4.9885764 10.085962,4.7946084 10.389686,4.198672 9.7722692,4.2823901 8.9039339,4.3540993 8.0383933,4.46467 7.1759324,4.5889156 6.4222769,4.702899 5.671065,4.8326746 4.9165558,4.9410725 4.4353311,5.2365817 4.8106724,6.0599077 4.2355585,6.2677159 3.7666098,6.2966742 3.6328735,5.5458747 3.9567225,5.2833877 4.2534208,5.0022663 4.3869522,4.3402176 4.6182222,4.191428 4.72238,4.587053 5.0655048,4.7894547 5.4209011,4.5526869 5.9397899,4.4640118 6.4658587,4.4168136 6.9796385,4.2990891 7.2916804,3.8264095 6.8962421,3.3069373 6.7096117,2.8710189 6.7832246,2.7888649 6.9025667,2.7788173 7.005099,2.7884533 Z"
         id="path7086"
         inkscape:connector-curvature="0" />
    </g>
    <g
       id="g7088"
       style="font-style:normal;font-variant:normal;font-weight:normal;font-stretch:normal;font-size:40px;line-height:125%;font-family:HGSeikaishotaiPRO;-inkscape-font-specification:HGSeikaishotaiPRO;letter-spacing:0px;word-spacing:0px;fill:#000000;fill-opacity:1;stroke:none;stroke-width:1px;stroke-linecap:butt;stroke-linejoin:miter;stroke-opacity:1"
       transform="translate(23.658115,0)">
      <path
         inkscape:connector-curvature="0"
         id="path7090"
         d="m 8.1476915,5.4282363 c 0.413149,-0.326843 1.116245,0.055791 1.2784547,0.4477512 C 9.2542681,6.1702915 8.8310738,6.1653858 8.6141736,6.4289972 8.2354144,6.6995396 7.8566551,6.9700819 7.4778959,7.2406243 7.7528393,7.7051384 8.2551231,8.0381856 8.7671315,7.7387526 9.3238539,7.7530856 9.8241569,7.5079248 10.348002,7.4098818 10.770635,7.3820126 11.278919,7.500168 11.47822,7.9156978 11.240045,8.4729833 10.568381,8.0288873 10.129021,8.1363591 9.4286475,8.1674086 8.7256986,8.1747625 8.0294923,8.2650193 8.1708019,9.5119917 8.1737936,10.826583 7.664651,11.997487 7.207369,12.535608 6.8117153,11.685279 6.5546587,11.380893 6.340433,11.305875 5.9625633,10.715917 6.4349874,10.922625 6.9250351,11.189597 7.4543621,10.827078 7.3715175,10.284842 7.4509314,9.6859647 7.3580798,9.0812684 7.4101293,8.4809445 7.0425918,8.182512 6.5565425,8.6096859 6.1308436,8.5577827 5.4953261,8.6602279 4.8684088,8.8131593 4.2497876,8.985598 3.7392534,8.9368793 3.9114335,8.3001586 4.3880016,8.4985972 5.3677672,8.3283576 6.3436432,8.1368325 7.3202969,7.9498193 7.5658775,7.5421734 6.6435887,7.277047 6.8812462,7.0308786 7.2083307,7.1699574 7.599226,7.0720919 7.6821887,6.6991184 7.8767561,6.4199567 8.0713234,6.140795 8.2658908,5.8616333 7.7793322,5.6017893 7.3304126,6.0554545 6.8685652,6.1546442 6.5137998,6.2374086 6.1601167,6.4498589 5.7768418,6.3590644 5.4542902,6.338547 5.1836399,5.9117465 5.6622669,5.8967815 6.2359305,5.8248846 6.8050451,5.7397186 7.3682758,5.603442 7.6287609,5.5481192 7.8885341,5.4894699 8.1476915,5.4282363 Z M 7.005099,2.7884533 C 7.4125403,2.7510792 7.9945889,3.0106222 7.9333311,3.491878 7.6920777,3.7388853 7.7488497,4.3735607 8.2058299,4.1764591 8.5574139,4.0566366 8.9580455,4.0785493 9.3286698,4.0124483 9.7451483,3.9900094 10.139014,3.8659231 10.530169,3.774038 10.917268,3.8885672 11.576191,4.1473285 11.546157,4.6143933 11.255707,4.9818783 10.655639,4.741658 10.289932,5.0720055 10.07777,5.1957315 9.4375409,5.4430134 9.7630151,4.9885764 10.085962,4.7946084 10.389686,4.198672 9.7722692,4.2823901 8.9039339,4.3540993 8.0383933,4.46467 7.1759324,4.5889156 6.4222769,4.702899 5.671065,4.8326746 4.9165558,4.9410725 4.4353311,5.2365817 4.8106724,6.0599077 4.2355585,6.2677159 3.7666098,6.2966742 3.6328735,5.5458747 3.9567225,5.2833877 4.2534208,5.0022663 4.3869522,4.3402176 4.6182222,4.191428 4.72238,4.587053 5.0655048,4.7894547 5.4209011,4.5526869 5.9397899,4.4640118 6.4658587,4.4168136 6.9796385,4.2990891 7.2916804,3.8264095 6.8962421,3.3069373 6.7096117,2.8710189 6.7832246,2.7888649 6.9025667,2.7788173 7.005099,2.7884533 Z" />
    </g>
  </g>
  <g
     id="g7100"
     transform="translate(3.0067288,14.943648)">
    <g
       style="font-style:normal;font-variant:normal;font-weight:normal;font-stretch:normal;font-size:40px;line-height:125%;font-family:HGSeikaishotaiPRO;-inkscape-font-specification:HGSeikaishotaiPRO;letter-spacing:0px;word-spacing:0px;fill:#000000;fill-opacity:1;stroke:none;stroke-width:1px;stroke-linecap:butt;stroke-linejoin:miter;stroke-opacity:1"
       id="g7102">
      <path
         d="m 8.1476915,5.4282363 c 0.413149,-0.326843 1.116245,0.055791 1.2784547,0.4477512 C 9.2542681,6.1702915 8.8310738,6.1653858 8.6141736,6.4289972 8.2354144,6.6995396 7.8566551,6.9700819 7.4778959,7.2406243 7.7528393,7.7051384 8.2551231,8.0381856 8.7671315,7.7387526 9.3238539,7.7530856 9.8241569,7.5079248 10.348002,7.4098818 10.770635,7.3820126 11.278919,7.500168 11.47822,7.9156978 11.240045,8.4729833 10.568381,8.0288873 10.129021,8.1363591 9.4286475,8.1674086 8.7256986,8.1747625 8.0294923,8.2650193 8.1708019,9.5119917 8.1737936,10.826583 7.664651,11.997487 7.207369,12.535608 6.8117153,11.685279 6.5546587,11.380893 6.340433,11.305875 5.9625633,10.715917 6.4349874,10.922625 6.9250351,11.189597 7.4543621,10.827078 7.3715175,10.284842 7.4509314,9.6859647 7.3580798,9.0812684 7.4101293,8.4809445 7.0425918,8.182512 6.5565425,8.6096859 6.1308436,8.5577827 5.4953261,8.6602279 4.8684088,8.8131593 4.2497876,8.985598 3.7392534,8.9368793 3.9114335,8.3001586 4.3880016,8.4985972 5.3677672,8.3283576 6.3436432,8.1368325 7.3202969,7.9498193 7.5658775,7.5421734 6.6435887,7.277047 6.8812462,7.0308786 7.2083307,7.1699574 7.599226,7.0720919 7.6821887,6.6991184 7.8767561,6.4199567 8.0713234,6.140795 8.2658908,5.8616333 7.7793322,5.6017893 7.3304126,6.0554545 6.8685652,6.1546442 6.5137998,6.2374086 6.1601167,6.4498589 5.7768418,6.3590644 5.4542902,6.338547 5.1836399,5.9117465 5.6622669,5.8967815 6.2359305,5.8248846 6.8050451,5.7397186 7.3682758,5.603442 7.6287609,5.5481192 7.8885341,5.4894699 8.1476915,5.4282363 Z M 7.005099,2.7884533 C 7.4125403,2.7510792 7.9945889,3.0106222 7.9333311,3.491878 7.6920777,3.7388853 7.7488497,4.3735607 8.2058299,4.1764591 8.5574139,4.0566366 8.9580455,4.0785493 9.3286698,4.0124483 9.7451483,3.9900094 10.139014,3.8659231 10.530169,3.774038 10.917268,3.8885672 11.576191,4.1473285 11.546157,4.6143933 11.255707,4.9818783 10.655639,4.741658 10.289932,5.0720055 10.07777,5.1957315 9.4375409,5.4430134 9.7630151,4.9885764 10.085962,4.7946084 10.389686,4.198672 9.7722692,4.2823901 8.9039339,4.3540993 8.0383933,4.46467 7.1759324,4.5889156 6.4222769,4.702899 5.671065,4.8326746 4.9165558,4.9410725 4.4353311,5.2365817 4.8106724,6.0599077 4.2355585,6.2677159 3.7666098,6.2966742 3.6328735,5.5458747 3.9567225,5.2833877 4.2534208,5.0022663 4.3869522,4.3402176 4.6182222,4.191428 4.72238,4.587053 5.0655048,4.7894547 5.4209011,4.5526869 5.9397899,4.4640118 6.4658587,4.4168136 6.9796385,4.2990891 7.2916804,3.8264095 6.8962421,3.3069373 6.7096117,2.8710189 6.7832246,2.7888649 6.9025667,2.7788173 7.005099,2.7884533 Z"
         id="path7104"
         inkscape:connector-curvature="0" />
    </g>
    <g
       id="g7106"
       style="font-style:normal;font-variant:normal;font-weight:normal;font-stretch:normal;font-size:40px;line-height:125%;font-family:HGSeikaishotaiPRO;-inkscape-font-specification:HGSeikaishotaiPRO;letter-spacing:0px;word-spacing:0px;fill:#000000;fill-opacity:1;stroke:none;stroke-width:1px;stroke-linecap:butt;stroke-linejoin:miter;stroke-opacity:1"
       transform="translate(11.793103,0)">
      <path
         inkscape:connector-curvature="0"
         id="path7108"
         d="m 8.1476915,5.4282363 c 0.413149,-0.326843 1.116245,0.055791 1.2784547,0.4477512 C 9.2542681,6.1702915 8.8310738,6.1653858 8.6141736,6.4289972 8.2354144,6.6995396 7.8566551,6.9700819 7.4778959,7.2406243 7.7528393,7.7051384 8.2551231,8.0381856 8.7671315,7.7387526 9.3238539,7.7530856 9.8241569,7.5079248 10.348002,7.4098818 10.770635,7.3820126 11.278919,7.500168 11.47822,7.9156978 11.240045,8.4729833 10.568381,8.0288873 10.129021,8.1363591 9.4286475,8.1674086 8.7256986,8.1747625 8.0294923,8.2650193 8.1708019,9.5119917 8.1737936,10.826583 7.664651,11.997487 7.207369,12.535608 6.8117153,11.685279 6.5546587,11.380893 6.340433,11.305875 5.9625633,10.715917 6.4349874,10.922625 6.9250351,11.189597 7.4543621,10.827078 7.3715175,10.284842 7.4509314,9.6859647 7.3580798,9.0812684 7.4101293,8.4809445 7.0425918,8.182512 6.5565425,8.6096859 6.1308436,8.5577827 5.4953261,8.6602279 4.8684088,8.8131593 4.2497876,8.985598 3.7392534,8.9368793 3.9114335,8.3001586 4.3880016,8.4985972 5.3677672,8.3283576 6.3436432,8.1368325 7.3202969,7.9498193 7.5658775,7.5421734 6.6435887,7.277047 6.8812462,7.0308786 7.2083307,7.1699574 7.599226,7.0720919 7.6821887,6.6991184 7.8767561,6.4199567 8.0713234,6.140795 8.2658908,5.8616333 7.7793322,5.6017893 7.3304126,6.0554545 6.8685652,6.1546442 6.5137998,6.2374086 6.1601167,6.4498589 5.7768418,6.3590644 5.4542902,6.338547 5.1836399,5.9117465 5.6622669,5.8967815 6.2359305,5.8248846 6.8050451,5.7397186 7.3682758,5.603442 7.6287609,5.5481192 7.8885341,5.4894699 8.1476915,5.4282363 Z M 7.005099,2.7884533 C 7.4125403,2.7510792 7.9945889,3.0106222 7.9333311,3.491878 7.6920777,3.7388853 7.7488497,4.3735607 8.2058299,4.1764591 8.5574139,4.0566366 8.9580455,4.0785493 9.3286698,4.0124483 9.7451483,3.9900094 10.139014,3.8659231 10.530169,3.774038 10.917268,3.8885672 11.576191,4.1473285 11.546157,4.6143933 11.255707,4.9818783 10.655639,4.741658 10.289932,5.0720055 10.07777,5.1957315 9.4375409,5.4430134 9.7630151,4.9885764 10.085962,4.7946084 10.389686,4.198672 9.7722692,4.2823901 8.9039339,4.3540993 8.0383933,4.46467 7.1759324,4.5889156 6.4222769,4.702899 5.671065,4.8326746 4.9165558,4.9410725 4.4353311,5.2365817 4.8106724,6.0599077 4.2355585,6.2677159 3.7666098,6.2966742 3.6328735,5.5458747 3.9567225,5.2833877 4.2534208,5.0022663 4.3869522,4.3402176 4.6182222,4.191428 4.72238,4.587053 5.0655048,4.7894547 5.4209011,4.5526869 5.9397899,4.4640118 6.4658587,4.4168136 6.9796385,4.2990891 7.2916804,3.8264095 6.8962421,3.3069373 6.7096117,2.8710189 6.7832246,2.7888649 6.9025667,2.7788173 7.005099,2.7884533 Z" />
    </g>
    <g
       transform="translate(23.658115,0)"
       style="font-style:normal;font-variant:normal;font-weight:normal;font-stretch:normal;font-size:40px;line-height:125%;font-family:HGSeikaishotaiPRO;-inkscape-font-specification:HGSeikaishotaiPRO;letter-spacing:0px;word-spacing:0px;fill:#000000;fill-opacity:1;stroke:none;stroke-width:1px;stroke-linecap:butt;stroke-linejoin:miter;stroke-opacity:1"
       id="g7110">
      <path
         d="m 8.1476915,5.4282363 c 0.413149,-0.326843 1.116245,0.055791 1.2784547,0.4477512 C 9.2542681,6.1702915 8.8310738,6.1653858 8.6141736,6.4289972 8.2354144,6.6995396 7.8566551,6.9700819 7.4778959,7.2406243 7.7528393,7.7051384 8.2551231,8.0381856 8.7671315,7.7387526 9.3238539,7.7530856 9.8241569,7.5079248 10.348002,7.4098818 10.770635,7.3820126 11.278919,7.500168 11.47822,7.9156978 11.240045,8.4729833 10.568381,8.0288873 10.129021,8.1363591 9.4286475,8.1674086 8.7256986,8.1747625 8.0294923,8.2650193 8.1708019,9.5119917 8.1737936,10.826583 7.664651,11.997487 7.207369,12.535608 6.8117153,11.685279 6.5546587,11.380893 6.340433,11.305875 5.9625633,10.715917 6.4349874,10.922625 6.9250351,11.189597 7.4543621,10.827078 7.3715175,10.284842 7.4509314,9.6859647 7.3580798,9.0812684 7.4101293,8.4809445 7.0425918,8.182512 6.5565425,8.6096859 6.1308436,8.5577827 5.4953261,8.6602279 4.8684088,8.8131593 4.2497876,8.985598 3.7392534,8.9368793 3.9114335,8.3001586 4.3880016,8.4985972 5.3677672,8.3283576 6.3436432,8.1368325 7.3202969,7.9498193 7.5658775,7.5421734 6.6435887,7.277047 6.8812462,7.0308786 7.2083307,7.1699574 7.599226,7.0720919 7.6821887,6.6991184 7.8767561,6.4199567 8.0713234,6.140795 8.2658908,5.8616333 7.7793322,5.6017893 7.3304126,6.0554545 6.8685652,6.1546442 6.5137998,6.2374086 6.1601167,6.4498589 5.7768418,6.3590644 5.4542902,6.338547 5.1836399,5.9117465 5.6622669,5.8967815 6.2359305,5.8248846 6.8050451,5.7397186 7.3682758,5.603442 7.6287609,5.5481192 7.8885341,5.4894699 8.1476915,5.4282363 Z M 7.005099,2.7884533 C 7.4125403,2.7510792 7.9945889,3.0106222 7.9333311,3.491878 7.6920777,3.7388853 7.7488497,4.3735607 8.2058299,4.1764591 8.5574139,4.0566366 8.9580455,4.0785493 9.3286698,4.0124483 9.7451483,3.9900094 10.139014,3.8659231 10.530169,3.774038 10.917268,3.8885672 11.576191,4.1473285 11.546157,4.6143933 11.255707,4.9818783 10.655639,4.741658 10.289932,5.0720055 10.07777,5.1957315 9.4375409,5.4430134 9.7630151,4.9885764 10.085962,4.7946084 10.389686,4.198672 9.7722692,4.2823901 8.9039339,4.3540993 8.0383933,4.46467 7.1759324,4.5889156 6.4222769,4.702899 5.671065,4.8326746 4.9165558,4.9410725 4.4353311,5.2365817 4.8106724,6.0599077 4.2355585,6.2677159 3.7666098,6.2966742 3.6328735,5.5458747 3.9567225,5.2833877 4.2534208,5.0022663 4.3869522,4.3402176 4.6182222,4.191428 4.72238,4.587053 5.0655048,4.7894547 5.4209011,4.5526869 5.9397899,4.4640118 6.4658587,4.4168136 6.9796385,4.2990891 7.2916804,3.8264095 6.8962421,3.3069373 6.7096117,2.8710189 6.7832246,2.7888649 6.9025667,2.7788173 7.005099,2.7884533 Z"
         id="path7112"
         inkscape:connector-curvature="0" />
    </g>
  </g>
  <g
     transform="translate(3.0067288,26.88057)"
     id="g7114">
    <g
       id="g7116"
       style="font-style:normal;font-variant:normal;font-weight:normal;font-stretch:normal;font-size:40px;line-height:125%;font-family:HGSeikaishotaiPRO;-inkscape-font-specification:HGSeikaishotaiPRO;letter-spacing:0px;word-spacing:0px;fill:#000000;fill-opacity:1;stroke:none;stroke-width:1px;stroke-linecap:butt;stroke-linejoin:miter;stroke-opacity:1">
      <path
         inkscape:connector-curvature="0"
         id="path7118"
         d="m 8.1476915,5.4282363 c 0.413149,-0.326843 1.116245,0.055791 1.2784547,0.4477512 C 9.2542681,6.1702915 8.8310738,6.1653858 8.6141736,6.4289972 8.2354144,6.6995396 7.8566551,6.9700819 7.4778959,7.2406243 7.7528393,7.7051384 8.2551231,8.0381856 8.7671315,7.7387526 9.3238539,7.7530856 9.8241569,7.5079248 10.348002,7.4098818 10.770635,7.3820126 11.278919,7.500168 11.47822,7.9156978 11.240045,8.4729833 10.568381,8.0288873 10.129021,8.1363591 9.4286475,8.1674086 8.7256986,8.1747625 8.0294923,8.2650193 8.1708019,9.5119917 8.1737936,10.826583 7.664651,11.997487 7.207369,12.535608 6.8117153,11.685279 6.5546587,11.380893 6.340433,11.305875 5.9625633,10.715917 6.4349874,10.922625 6.9250351,11.189597 7.4543621,10.827078 7.3715175,10.284842 7.4509314,9.6859647 7.3580798,9.0812684 7.4101293,8.4809445 7.0425918,8.182512 6.5565425,8.6096859 6.1308436,8.5577827 5.4953261,8.6602279 4.8684088,8.8131593 4.2497876,8.985598 3.7392534,8.9368793 3.9114335,8.3001586 4.3880016,8.4985972 5.3677672,8.3283576 6.3436432,8.1368325 7.3202969,7.9498193 7.5658775,7.5421734 6.6435887,7.277047 6.8812462,7.0308786 7.2083307,7.1699574 7.599226,7.0720919 7.6821887,6.6991184 7.8767561,6.4199567 8.0713234,6.140795 8.2658908,5.8616333 7.7793322,5.6017893 7.3304126,6.0554545 6.8685652,6.1546442 6.5137998,6.2374086 6.1601167,6.4498589 5.7768418,6.3590644 5.4542902,6.338547 5.1836399,5.9117465 5.6622669,5.8967815 6.2359305,5.8248846 6.8050451,5.7397186 7.3682758,5.603442 7.6287609,5.5481192 7.8885341,5.4894699 8.1476915,5.4282363 Z M 7.005099,2.7884533 C 7.4125403,2.7510792 7.9945889,3.0106222 7.9333311,3.491878 7.6920777,3.7388853 7.7488497,4.3735607 8.2058299,4.1764591 8.5574139,4.0566366 8.9580455,4.0785493 9.3286698,4.0124483 9.7451483,3.9900094 10.139014,3.8659231 10.530169,3.774038 10.917268,3.8885672 11.576191,4.1473285 11.546157,4.6143933 11.255707,4.9818783 10.655639,4.741658 10.289932,5.0720055 10.07777,5.1957315 9.4375409,5.4430134 9.7630151,4.9885764 10.085962,4.7946084 10.389686,4.198672 9.7722692,4.2823901 8.9039339,4.3540993 8.0383933,4.46467 7.1759324,4.5889156 6.4222769,4.702899 5.671065,4.8326746 4.9165558,4.9410725 4.4353311,5.2365817 4.8106724,6.0599077 4.2355585,6.2677159 3.7666098,6.2966742 3.6328735,5.5458747 3.9567225,5.2833877 4.2534208,5.0022663 4.3869522,4.3402176 4.6182222,4.191428 4.72238,4.587053 5.0655048,4.7894547 5.4209011,4.5526869 5.9397899,4.4640118 6.4658587,4.4168136 6.9796385,4.2990891 7.2916804,3.8264095 6.8962421,3.3069373 6.7096117,2.8710189 6.7832246,2.7888649 6.9025667,2.7788173 7.005099,2.7884533 Z" />
    </g>
    <g
       transform="translate(11.793103,0)"
       style="font-style:normal;font-variant:normal;font-weight:normal;font-stretch:normal;font-size:40px;line-height:125%;font-family:HGSeikaishotaiPRO;-inkscape-font-specification:HGSeikaishotaiPRO;letter-spacing:0px;word-spacing:0px;fill:#000000;fill-opacity:1;stroke:none;stroke-width:1px;stroke-linecap:butt;stroke-linejoin:miter;stroke-opacity:1"
       id="g7120">
      <path
         d="m 8.1476915,5.4282363 c 0.413149,-0.326843 1.116245,0.055791 1.2784547,0.4477512 C 9.2542681,6.1702915 8.8310738,6.1653858 8.6141736,6.4289972 8.2354144,6.6995396 7.8566551,6.9700819 7.4778959,7.2406243 7.7528393,7.7051384 8.2551231,8.0381856 8.7671315,7.7387526 9.3238539,7.7530856 9.8241569,7.5079248 10.348002,7.4098818 10.770635,7.3820126 11.278919,7.500168 11.47822,7.9156978 11.240045,8.4729833 10.568381,8.0288873 10.129021,8.1363591 9.4286475,8.1674086 8.7256986,8.1747625 8.0294923,8.2650193 8.1708019,9.5119917 8.1737936,10.826583 7.664651,11.997487 7.207369,12.535608 6.8117153,11.685279 6.5546587,11.380893 6.340433,11.305875 5.9625633,10.715917 6.4349874,10.922625 6.9250351,11.189597 7.4543621,10.827078 7.3715175,10.284842 7.4509314,9.6859647 7.3580798,9.0812684 7.4101293,8.4809445 7.0425918,8.182512 6.5565425,8.6096859 6.1308436,8.5577827 5.4953261,8.6602279 4.8684088,8.8131593 4.2497876,8.985598 3.7392534,8.9368793 3.9114335,8.3001586 4.3880016,8.4985972 5.3677672,8.3283576 6.3436432,8.1368325 7.3202969,7.9498193 7.5658775,7.5421734 6.6435887,7.277047 6.8812462,7.0308786 7.2083307,7.1699574 7.599226,7.0720919 7.6821887,6.6991184 7.8767561,6.4199567 8.0713234,6.140795 8.2658908,5.8616333 7.7793322,5.6017893 7.3304126,6.0554545 6.8685652,6.1546442 6.5137998,6.2374086 6.1601167,6.4498589 5.7768418,6.3590644 5.4542902,6.338547 5.1836399,5.9117465 5.6622669,5.8967815 6.2359305,5.8248846 6.8050451,5.7397186 7.3682758,5.603442 7.6287609,5.5481192 7.8885341,5.4894699 8.1476915,5.4282363 Z M 7.005099,2.7884533 C 7.4125403,2.7510792 7.9945889,3.0106222 7.9333311,3.491878 7.6920777,3.7388853 7.7488497,4.3735607 8.2058299,4.1764591 8.5574139,4.0566366 8.9580455,4.0785493 9.3286698,4.0124483 9.7451483,3.9900094 10.139014,3.8659231 10.530169,3.774038 10.917268,3.8885672 11.576191,4.1473285 11.546157,4.6143933 11.255707,4.9818783 10.655639,4.741658 10.289932,5.0720055 10.07777,5.1957315 9.4375409,5.4430134 9.7630151,4.9885764 10.085962,4.7946084 10.389686,4.198672 9.7722692,4.2823901 8.9039339,4.3540993 8.0383933,4.46467 7.1759324,4.5889156 6.4222769,4.702899 5.671065,4.8326746 4.9165558,4.9410725 4.4353311,5.2365817 4.8106724,6.0599077 4.2355585,6.2677159 3.7666098,6.2966742 3.6328735,5.5458747 3.9567225,5.2833877 4.2534208,5.0022663 4.3869522,4.3402176 4.6182222,4.191428 4.72238,4.587053 5.0655048,4.7894547 5.4209011,4.5526869 5.9397899,4.4640118 6.4658587,4.4168136 6.9796385,4.2990891 7.2916804,3.8264095 6.8962421,3.3069373 6.7096117,2.8710189 6.7832246,2.7888649 6.9025667,2.7788173 7.005099,2.7884533 Z"
         id="path7122"
         inkscape:connector-curvature="0" />
    </g>
    <g
       id="g7124"
       style="font-style:normal;font-variant:normal;font-weight:normal;font-stretch:normal;font-size:40px;line-height:125%;font-family:HGSeikaishotaiPRO;-inkscape-font-specification:HGSeikaishotaiPRO;letter-spacing:0px;word-spacing:0px;fill:#000000;fill-opacity:1;stroke:none;stroke-width:1px;stroke-linecap:butt;stroke-linejoin:miter;stroke-opacity:1"
       transform="translate(23.658115,0)">
      <path
         inkscape:connector-curvature="0"
         id="path7126"
         d="m 8.1476915,5.4282363 c 0.413149,-0.326843 1.116245,0.055791 1.2784547,0.4477512 C 9.2542681,6.1702915 8.8310738,6.1653858 8.6141736,6.4289972 8.2354144,6.6995396 7.8566551,6.9700819 7.4778959,7.2406243 7.7528393,7.7051384 8.2551231,8.0381856 8.7671315,7.7387526 9.3238539,7.7530856 9.8241569,7.5079248 10.348002,7.4098818 10.770635,7.3820126 11.278919,7.500168 11.47822,7.9156978 11.240045,8.4729833 10.568381,8.0288873 10.129021,8.1363591 9.4286475,8.1674086 8.7256986,8.1747625 8.0294923,8.2650193 8.1708019,9.5119917 8.1737936,10.826583 7.664651,11.997487 7.207369,12.535608 6.8117153,11.685279 6.5546587,11.380893 6.340433,11.305875 5.9625633,10.715917 6.4349874,10.922625 6.9250351,11.189597 7.4543621,10.827078 7.3715175,10.284842 7.4509314,9.6859647 7.3580798,9.0812684 7.4101293,8.4809445 7.0425918,8.182512 6.5565425,8.6096859 6.1308436,8.5577827 5.4953261,8.6602279 4.8684088,8.8131593 4.2497876,8.985598 3.7392534,8.9368793 3.9114335,8.3001586 4.3880016,8.4985972 5.3677672,8.3283576 6.3436432,8.1368325 7.3202969,7.9498193 7.5658775,7.5421734 6.6435887,7.277047 6.8812462,7.0308786 7.2083307,7.1699574 7.599226,7.0720919 7.6821887,6.6991184 7.8767561,6.4199567 8.0713234,6.140795 8.2658908,5.8616333 7.7793322,5.6017893 7.3304126,6.0554545 6.8685652,6.1546442 6.5137998,6.2374086 6.1601167,6.4498589 5.7768418,6.3590644 5.4542902,6.338547 5.1836399,5.9117465 5.6622669,5.8967815 6.2359305,5.8248846 6.8050451,5.7397186 7.3682758,5.603442 7.6287609,5.5481192 7.8885341,5.4894699 8.1476915,5.4282363 Z M 7.005099,2.7884533 C 7.4125403,2.7510792 7.9945889,3.0106222 7.9333311,3.491878 7.6920777,3.7388853 7.7488497,4.3735607 8.2058299,4.1764591 8.5574139,4.0566366 8.9580455,4.0785493 9.3286698,4.0124483 9.7451483,3.9900094 10.139014,3.8659231 10.530169,3.774038 10.917268,3.8885672 11.576191,4.1473285 11.546157,4.6143933 11.255707,4.9818783 10.655639,4.741658 10.289932,5.0720055 10.07777,5.1957315 9.4375409,5.4430134 9.7630151,4.9885764 10.085962,4.7946084 10.389686,4.198672 9.7722692,4.2823901 8.9039339,4.3540993 8.0383933,4.46467 7.1759324,4.5889156 6.4222769,4.702899 5.671065,4.8326746 4.9165558,4.9410725 4.4353311,5.2365817 4.8106724,6.0599077 4.2355585,6.2677159 3.7666098,6.2966742 3.6328735,5.5458747 3.9567225,5.2833877 4.2534208,5.0022663 4.3869522,4.3402176 4.6182222,4.191428 4.72238,4.587053 5.0655048,4.7894547 5.4209011,4.5526869 5.9397899,4.4640118 6.4658587,4.4168136 6.9796385,4.2990891 7.2916804,3.8264095 6.8962421,3.3069373 6.7096117,2.8710189 6.7832246,2.7888649 6.9025667,2.7788173 7.005099,2.7884533 Z" />
    </g>
  </g>
</svg>
