<?xml version="1.0" encoding="UTF-8" standalone="no"?>
<svg
   xmlns:dc="http://purl.org/dc/elements/1.1/"
   xmlns:cc="http://creativecommons.org/ns#"
   xmlns:rdf="http://www.w3.org/1999/02/22-rdf-syntax-ns#"
   xmlns:svg="http://www.w3.org/2000/svg"
   xmlns="http://www.w3.org/2000/svg"
   xmlns:xlink="http://www.w3.org/1999/xlink"
   version="1.1"
   id="svg2"
   viewBox="0 0 48 48"
   height="48"
   width="48">
  <defs
     id="defs4">
    <linearGradient
       id="linearGradient4146">
      <stop
         id="stop4148"
         offset="0"
         style="stop-color:#000000;stop-opacity:1" />
      <stop
         style="stop-color:#000000;stop-opacity:0.68372095"
         offset="0.7953968"
         id="stop4154" />
      <stop
         id="stop4150"
         offset="1"
         style="stop-color:#bcbcbc;stop-opacity:0" />
    </linearGradient>
    <radialGradient
       gradientUnits="userSpaceOnUse"
       gradientTransform="matrix(2.5058624,0,0,2.4548958,-4.1037379,-1465.5202)"
       r="9.21875"
       fy="1015.8309"
       fx="11.21875"
       cy="1015.8309"
       cx="11.21875"
       id="radialGradient4152"
       xlink:href="#linearGradient4146" />
  </defs>
  <metadata
     id="metadata7">
    <rdf:RDF>
      <cc:Work
         rdf:about="">
        <dc:format>image/svg+xml</dc:format>
        <dc:type
           rdf:resource="http://purl.org/dc/dcmitype/StillImage" />
        <dc:title></dc:title>
      </cc:Work>
    </rdf:RDF>
  </metadata>
  <g
     transform="translate(0,-1004.3622)"
     id="layer1">
    <ellipse
       style="opacity:1;fill:url(#radialGradient4152);fill-opacity:1;fill-rule:evenodd;stroke:none;stroke-width:1.20000005;stroke-linecap:round;stroke-linejoin:round;stroke-miterlimit:4;stroke-dasharray:none;stroke-dashoffset:1.28400004;stroke-opacity:1"
       id="ellipse4144"
       cx="24.008905"
       cy="1028.2386"
       rx="23.100918"
       ry="22.631069" />
    <ellipse
       ry="18.728315"
       rx="19.42975"
       cy="1026.4579"
       cx="22.546675"
       id="path4140"
       style="opacity:1;fill:#ffffff;fill-opacity:1;fill-rule:evenodd;stroke:#000000;stroke-width:2.00218511;stroke-linecap:round;stroke-linejoin:round;stroke-miterlimit:4;stroke-dasharray:none;stroke-dashoffset:1.28400004;stroke-opacity:1" />
    <g
       transform="matrix(1,0,0,1.0628882,0,-64.806563)"
       id="text4136-5"
       style="font-style:normal;font-weight:normal;font-size:29.1732769px;line-height:125%;font-family:Sans;letter-spacing:0px;word-spacing:0px;fill:#000000;fill-opacity:1;stroke:none;stroke-width:1px;stroke-linecap:butt;stroke-linejoin:miter;stroke-opacity:1">
      <path
         id="path5334"
         d="m 24.020484,1026.8573 0,1.4815 11.167895,0 0,2.1652 -11.167895,0 0,6.6095 q 0,1.8234 -1.82333,1.8234 l -3.076869,0 -0.569791,-2.1652 2.734995,0 q 0.455833,0 0.455833,-0.4559 l 0,-5.8118 -11.8516441,0 0,-2.1652 11.8516441,0 0,-2.963 1.139581,0.228 3.190827,-2.1652 -10.939979,0 0,-2.1653 13.219141,0 0.455833,-0.4558 1.937288,1.9373 -0.683749,0.2279 -6.03978,3.8746 z m -0.113958,-10.1423 10.598104,0 0,5.6979 -2.279162,0 0,-3.5327 -19.258921,0 0,3.7606 -2.279162,0 0,-5.9258 10.598104,0 0,-3.0768 2.507079,0 q 1.139581,0.2279 0.113958,0.9116 l 0,2.1652 z" />
    </g>
  </g>
</svg>
