<?xml version="1.0" encoding="UTF-8" standalone="no"?>
<svg
   xmlns:dc="http://purl.org/dc/elements/1.1/"
   xmlns:cc="http://creativecommons.org/ns#"
   xmlns:rdf="http://www.w3.org/1999/02/22-rdf-syntax-ns#"
   xmlns:svg="http://www.w3.org/2000/svg"
   xmlns="http://www.w3.org/2000/svg"
   xmlns:xlink="http://www.w3.org/1999/xlink"
   xmlns:sodipodi="http://sodipodi.sourceforge.net/DTD/sodipodi-0.dtd"
   xmlns:inkscape="http://www.inkscape.org/namespaces/inkscape"
   width="48"
   height="48"
   viewBox="0 0 48 48"
   id="svg4968"
   version="1.1"
   inkscape:version="0.92.2 (5c3e80d, 2017-08-06)"
   sodipodi:docname="magnifier.svg">
  <sodipodi:namedview
     pagecolor="#ffffff"
     bordercolor="#666666"
     borderopacity="1"
     objecttolerance="10"
     gridtolerance="10"
     guidetolerance="10"
     inkscape:pageopacity="0"
     inkscape:pageshadow="2"
     inkscape:window-width="1920"
     inkscape:window-height="1177"
     id="namedview4179"
     showgrid="false"
     showguides="false"
     inkscape:guide-bbox="true"
     inkscape:zoom="9.8333334"
     inkscape:cx="20.47168"
     inkscape:cy="28.676826"
     inkscape:window-x="-8"
     inkscape:window-y="-8"
     inkscape:window-maximized="1"
     inkscape:current-layer="svg4968" />
  <defs
     id="defs4970">
    <linearGradient
       id="linearGradient6164"
       inkscape:collect="always">
      <stop
         id="stop6166"
         offset="0"
         style="stop-color:#636363;stop-opacity:1" />
      <stop
         style="stop-color:#727272;stop-opacity:1"
         offset="0.09490396"
         id="stop6168" />
      <stop
         style="stop-color:#cecece;stop-opacity:1"
         offset="0.55142897"
         id="stop6170" />
      <stop
         id="stop6172"
         offset="0.9194681"
         style="stop-color:#9b9b9b;stop-opacity:1" />
      <stop
         style="stop-color:#a2a2a2;stop-opacity:1"
         offset="1"
         id="stop6174" />
    </linearGradient>
    <linearGradient
       id="linearGradient6152"
       inkscape:collect="always">
      <stop
         id="stop6154"
         offset="0"
         style="stop-color:#4f4f4f;stop-opacity:1" />
      <stop
         style="stop-color:#989898;stop-opacity:1;"
         offset="0.09608981"
         id="stop6220" />
      <stop
         style="stop-color:#5b5b5b;stop-opacity:1"
         offset="0.24240558"
         id="stop6156" />
      <stop
         id="stop6183"
         offset="0.47268724"
         style="stop-color:#979797;stop-opacity:1" />
      <stop
         style="stop-color:#d6d6d6;stop-opacity:1"
         offset="0.77211523"
         id="stop6158" />
      <stop
         id="stop6160"
         offset="0.95454466"
         style="stop-color:#c9c9c9;stop-opacity:1" />
      <stop
         style="stop-color:#a6a6a6;stop-opacity:1"
         offset="1"
         id="stop6162" />
    </linearGradient>
    <linearGradient
       inkscape:collect="always"
       id="linearGradient6092">
      <stop
         style="stop-color:#4b5d60;stop-opacity:1"
         offset="0"
         id="stop6094" />
      <stop
         id="stop6106"
         offset="0.16287553"
         style="stop-color:#35484e;stop-opacity:1" />
      <stop
         style="stop-color:#5b8082;stop-opacity:1"
         offset="0.40883249"
         id="stop6177" />
      <stop
         id="stop6104"
         offset="0.7537573"
         style="stop-color:#c6d8dd;stop-opacity:1" />
      <stop
         style="stop-color:#a2c4d0;stop-opacity:1"
         offset="0.88040137"
         id="stop6108" />
      <stop
         id="stop6102"
         offset="1"
         style="stop-color:#98a5aa;stop-opacity:1" />
    </linearGradient>
    <linearGradient
       inkscape:collect="always"
       id="linearGradient6078">
      <stop
         style="stop-color:#7e7e7e;stop-opacity:1"
         offset="0"
         id="stop6080" />
      <stop
         id="stop6086"
         offset="0.12773858"
         style="stop-color:#9d9d9d;stop-opacity:1" />
      <stop
         style="stop-color:#b8b8b8;stop-opacity:1"
         offset="0.33539993"
         id="stop6090" />
      <stop
         style="stop-color:#919191;stop-opacity:1"
         offset="0.8992095"
         id="stop6088" />
      <stop
         style="stop-color:#b8b8b8;stop-opacity:1"
         offset="1"
         id="stop6082" />
    </linearGradient>
    <radialGradient
       xlink:href="#linearGradient4846"
       id="radialGradient4852"
       cx="99.843987"
       cy="1038.724"
       fx="99.843987"
       fy="1038.724"
       r="0.82825649"
       gradientTransform="matrix(-2.4106434,-2.729165,-12.174763,12.654622,12896.783,-12837.37)"
       gradientUnits="userSpaceOnUse" />
    <linearGradient
       id="linearGradient4846">
      <stop
         style="stop-color:#ffffff;stop-opacity:1;"
         offset="0"
         id="stop4848" />
      <stop
         style="stop-color:#ffffff;stop-opacity:0;"
         offset="1"
         id="stop4850" />
    </linearGradient>
    <radialGradient
       xlink:href="#linearGradient4864-7"
       id="radialGradient4870-0"
       cx="22.767853"
       cy="1018.4792"
       fx="22.767853"
       fy="1018.4792"
       r="10.080303"
       gradientTransform="matrix(-0.75983631,-0.68521643,-0.65554417,0.72810656,713.85096,-709.584)"
       gradientUnits="userSpaceOnUse" />
    <linearGradient
       id="linearGradient4864-7">
      <stop
         style="stop-color:#4b94ff;stop-opacity:0"
         offset="0"
         id="stop4866-3" />
      <stop
         id="stop4872-3"
         offset="0.85652494"
         style="stop-color:#647184;stop-opacity:0.54418606" />
      <stop
         style="stop-color:#597088;stop-opacity:1"
         offset="1"
         id="stop4868-1" />
    </linearGradient>
    <radialGradient
       xlink:href="#linearGradient4876"
       id="radialGradient4890-1"
       gradientUnits="userSpaceOnUse"
       gradientTransform="matrix(0.5256894,2.197553e-6,-2.2696278e-6,0.5430739,-50.928647,-556.49815)"
       cx="25.195166"
       cy="1015.681"
       fx="25.195166"
       fy="1015.681"
       r="5.3033009" />
    <linearGradient
       id="linearGradient4876">
      <stop
         style="stop-color:#ffffff;stop-opacity:1;"
         offset="0"
         id="stop4878" />
      <stop
         id="stop4884"
         offset="0.50396097"
         style="stop-color:#ffffff;stop-opacity:1" />
      <stop
         style="stop-color:#ffffff;stop-opacity:0;"
         offset="1"
         id="stop4880" />
    </linearGradient>
    <radialGradient
       xlink:href="#linearGradient4892"
       id="radialGradient4882-9"
       cx="25.195166"
       cy="1015.681"
       fx="25.195166"
       fy="1015.681"
       r="5.3033009"
       gradientUnits="userSpaceOnUse"
       gradientTransform="matrix(1.1991308,4.862985e-6,-4.6773504e-6,1.15366,-58.188161,-1179.8354)" />
    <linearGradient
       id="linearGradient4892">
      <stop
         id="stop4894"
         offset="0"
         style="stop-color:#ffffff;stop-opacity:1;" />
      <stop
         style="stop-color:#ffffff;stop-opacity:1"
         offset="0.63236153"
         id="stop4896" />
      <stop
         id="stop4898"
         offset="1"
         style="stop-color:#ffffff;stop-opacity:0;" />
    </linearGradient>
    <radialGradient
       xlink:href="#linearGradient4846"
       id="radialGradient4205"
       cx="17.616879"
       cy="7.1157136"
       fx="17.616879"
       fy="7.1157136"
       r="9.8317337"
       gradientTransform="matrix(0.90905284,0.90905284,-0.84911359,0.84911359,9.5723862,-15.001017)"
       gradientUnits="userSpaceOnUse" />
    <radialGradient
       xlink:href="#linearGradient4846"
       id="radialGradient4215"
       cx="27.960089"
       cy="23.592018"
       fx="27.960089"
       fy="23.592018"
       r="9.3335304"
       gradientTransform="matrix(0.63044421,-1.0919614,1.1999353,0.69278294,-11.994777,37.852093)"
       gradientUnits="userSpaceOnUse" />
    <radialGradient
       xlink:href="#linearGradient4846"
       id="radialGradient4852-3"
       cx="99.843987"
       cy="1038.724"
       fx="99.843987"
       fy="1038.724"
       r="0.82825649"
       gradientTransform="matrix(-2.1037665,-2.3817401,-10.624906,11.043678,11259.652,-11201.03)"
       gradientUnits="userSpaceOnUse" />
    <radialGradient
       xlink:href="#linearGradient4864-7"
       id="radialGradient4870-0-6"
       cx="22.767853"
       cy="1018.4792"
       fx="22.767853"
       fy="1018.4792"
       r="10.080303"
       gradientTransform="matrix(0.91820696,-0.62896955,0.43724437,0.87734926,-434.48572,-859.37271)"
       gradientUnits="userSpaceOnUse" />
    <radialGradient
       xlink:href="#linearGradient4876"
       id="radialGradient4890-1-2"
       gradientUnits="userSpaceOnUse"
       gradientTransform="matrix(0.56962696,2.2123026e-6,-2.4575211e-6,0.545835,0.9491444,-518.82571)"
       cx="25.195166"
       cy="1015.681"
       fx="25.195166"
       fy="1015.681"
       r="5.3033009" />
    <radialGradient
       xlink:href="#linearGradient4892"
       id="radialGradient4882-9-4"
       cx="25.195166"
       cy="1015.681"
       fx="25.195166"
       fy="1015.681"
       r="5.3033009"
       gradientUnits="userSpaceOnUse"
       gradientTransform="matrix(1.2993553,4.8958684e-6,-5.0644544e-6,1.1595253,-6.9171297,-1145.3315)" />
    <radialGradient
       xlink:href="#linearGradient4846"
       id="radialGradient4205-8"
       cx="17.616879"
       cy="7.1157136"
       fx="17.616879"
       fy="7.1157136"
       r="9.8317337"
       gradientTransform="matrix(-0.79332969,0.79332969,0.74102075,0.74102075,45.746805,-10.958081)"
       gradientUnits="userSpaceOnUse" />
    <radialGradient
       xlink:href="#linearGradient4846"
       id="radialGradient4215-5"
       cx="27.960089"
       cy="23.592018"
       fx="27.960089"
       fy="23.592018"
       r="9.3335304"
       gradientTransform="matrix(-0.55018816,-0.95295388,-1.0471826,0.6045911,64.568452,35.166785)"
       gradientUnits="userSpaceOnUse" />
    <linearGradient
       inkscape:collect="always"
       xlink:href="#linearGradient6078"
       id="linearGradient6084"
       x1="32.76038"
       y1="25.013323"
       x2="35.733402"
       y2="5.5606861"
       gradientUnits="userSpaceOnUse"
       gradientTransform="matrix(1.0319292,-0.03642438,-0.04795277,1.0219746,3.2949876,5.2044423)" />
    <linearGradient
       inkscape:collect="always"
       xlink:href="#linearGradient6164"
       id="linearGradient6098"
       x1="24.158592"
       y1="26.062212"
       x2="39.203457"
       y2="7.0331511"
       gradientUnits="userSpaceOnUse"
       gradientTransform="matrix(1.0319291,-0.03642437,-0.04795277,1.0219746,3.2949875,5.2044422)" />
    <linearGradient
       inkscape:collect="always"
       xlink:href="#linearGradient6092"
       id="linearGradient6112"
       gradientUnits="userSpaceOnUse"
       x1="14.28413"
       y1="35.001888"
       x2="8.387578"
       y2="27.102102"
       gradientTransform="matrix(1.0319291,-0.03642437,0.03688725,1.01898,-0.65318708,5.3438023)" />
    <linearGradient
       inkscape:collect="always"
       xlink:href="#linearGradient6152"
       id="linearGradient6150"
       x1="19.210318"
       y1="23.287548"
       x2="28.271187"
       y2="0.71186441"
       gradientUnits="userSpaceOnUse"
       gradientTransform="matrix(1.0319291,-0.03642437,-0.04795277,1.0219746,3.2949875,5.2044422)" />
  </defs>
  <metadata
     id="metadata4973">
    <rdf:RDF>
      <cc:Work
         rdf:about="">
        <dc:format>image/svg+xml</dc:format>
        <dc:type
           rdf:resource="http://purl.org/dc/dcmitype/StillImage" />
        <dc:title />
      </cc:Work>
    </rdf:RDF>
  </metadata>
  <path
     style="opacity:1;vector-effect:none;fill:#e5e5e5;fill-opacity:1;fill-rule:evenodd;stroke:#e5e5e5;stroke-width:1.39999998;stroke-linecap:butt;stroke-linejoin:miter;stroke-miterlimit:4;stroke-dasharray:none;stroke-dashoffset:1.28400004;stroke-opacity:1"
     d="m 27.805198,6.9830618 c -8.576559,2.886382 -13.664959,14.2610312 -9.656895,20.7284032 0.19939,0.321734 0.0482,0.704402 -0.244433,1.012461 -0.596184,0.627597 -3.327083,2.003844 -5.358218,3.335407 -4.535331,2.973252 -6.6877337,4.41417 -10.156722,8.256845 -1.69130802,1.873499 -1.90012452,3.120552 -1.57042182,4.765955 0.1593193,0.795098 1.30813702,2.039369 3.65918122,1.580458 2.3656028,-0.461753 3.5259836,-1.456328 5.9033826,-3.329621 3.088314,-2.433466 5.568084,-5.491901 9.443008,-9.700875 0.789709,-0.857787 1.361543,-1.679946 1.773147,-1.306094 1.368,1.242528 2.157281,2.164521 6.491664,3.283171 3.33493,0.860704 9.088461,0.110118 13.609501,-4.851035 5.278422,-5.792265 5.055417,-14.924346 1.327119,-18.896521 C 39.21604,7.8029588 33.480959,5.0729238 27.805198,6.9830618 Z"
     id="path7469"
     inkscape:connector-curvature="0" />
  <path
     style="opacity:1;fill:url(#linearGradient6084);fill-opacity:1;fill-rule:evenodd;stroke:#000000;stroke-width:1.77044857;stroke-linecap:round;stroke-linejoin:round;stroke-miterlimit:4;stroke-dasharray:none;stroke-dashoffset:1.28400004;stroke-opacity:1"
     d="m 38.405515,10.279339 c 0.804504,0.481718 0.71132,0.224824 1.459946,1.70956 2.181611,4.326745 0.800731,8.290395 -1.630605,11.575496 -2.557653,3.455776 -7.738715,5.720334 -11.971939,2.9688 3.46641,4.37127 9.915787,5.277502 13.902423,1.685504 3.986635,-3.591996 4.683737,-10.800239 1.488309,-15.275352 -3.195427,-4.4751124 -0.989759,-2.491101 -3.248134,-2.664008 z"
     id="path6022"
     inkscape:connector-curvature="0"
     sodipodi:nodetypes="cssczzc" />
  <path
     id="path6015"
     style="opacity:1;fill:url(#linearGradient6150);fill-opacity:1;fill-rule:evenodd;stroke:none;stroke-width:0.6762892;stroke-linecap:round;stroke-linejoin:round;stroke-miterlimit:4;stroke-dasharray:none;stroke-dashoffset:1.28400004;stroke-opacity:1"
     d="M 28.499343,8.5453785 C 31.179226,6.6188293 38.293057,6.3534758 43.294608,9.2587148 38.216415,5.1740589 33.635805,3.4170736 27.901107,5.8175632 20.870386,8.7605543 16.549886,18.417737 19.64668,25.092763 c 1.27914,2.757141 3.351736,6.846594 12.048454,8.036193 C 18.680636,30.576673 18.597053,15.66407 28.499343,8.5453785 Z"
     inkscape:connector-curvature="0"
     sodipodi:nodetypes="scsscs" />
  <path
     inkscape:connector-curvature="0"
     style="opacity:1;fill:url(#radialGradient4870-0-6);fill-opacity:1;fill-rule:evenodd;stroke:none;stroke-width:0.83060676;stroke-linecap:round;stroke-linejoin:round;stroke-miterlimit:4;stroke-dasharray:none;stroke-dashoffset:1.28400004;stroke-opacity:1"
     d="m 28.717564,10.091894 c 4.670145,-3.0146382 10.199679,-1.6589664 12.349966,3.027869 2.14939,4.686589 0.106562,10.928258 -4.563083,13.941913 -4.66939,3.014167 -10.198037,1.659328 -12.349049,-3.026208 -2.150831,-4.686449 -0.108203,-10.929554 4.562166,-13.943574 z"
     id="path4858-4-6" />
  <ellipse
     cy="35.568832"
     cx="15.298473"
     id="circle4888-7-9"
     style="opacity:1;fill:url(#radialGradient4890-1-2);fill-opacity:1;fill-rule:evenodd;stroke:none;stroke-width:1.16149545;stroke-linecap:round;stroke-linejoin:round;stroke-miterlimit:4;stroke-dasharray:none;stroke-dashoffset:1.28400004;stroke-opacity:1"
     transform="matrix(0.84019148,-0.54228984,0.41705473,0.90888138,0,0)"
     rx="3.2430286"
     ry="3.0084937" />
  <ellipse
     style="opacity:1;fill:url(#radialGradient4882-9-4);fill-opacity:1;fill-rule:evenodd;stroke:none;stroke-width:1.16149545;stroke-linecap:round;stroke-linejoin:round;stroke-miterlimit:4;stroke-dasharray:none;stroke-dashoffset:1.28400004;stroke-opacity:1"
     id="path4860-9-7"
     cx="25.815163"
     cy="32.376007"
     transform="matrix(0.84019148,-0.54228984,0.41705473,0.90888138,0,0)"
     rx="7.0406733"
     ry="6.5314927" />
  <path
     inkscape:connector-curvature="0"
     d="M 41.65439,12.944104 C 38.787694,8.8365062 33.033242,8.5197965 28.802077,12.236731 c -4.230251,3.717073 -5.335511,10.058596 -2.468799,14.165131 2.866258,4.106824 8.619462,4.424175 12.850665,0.708672 4.231514,-3.716535 5.337654,-10.059349 2.470447,-14.16643 z m 2.65839,-2.316539 c 3.479566,5.006409 2.641441,12.598837 -2.027161,17.720412 C 37.644484,33.439415 28.702651,35.681486 23.80154,28.82821 18.443577,21.336114 22.928429,12.357023 28.499478,8.5457285 34.070461,4.7346257 40.832712,5.6216914 44.312838,10.627574 Z"
     style="opacity:1;fill:url(#linearGradient6098);fill-opacity:1;fill-rule:evenodd;stroke:none;stroke-width:0.6762892;stroke-linecap:round;stroke-linejoin:round;stroke-miterlimit:4;stroke-dasharray:none;stroke-dashoffset:1.28400004;stroke-opacity:1"
     id="path4180-9"
     sodipodi:nodetypes="ccccccssccc" />
  <path
     style="opacity:1;fill:url(#linearGradient6112);fill-opacity:1;fill-rule:evenodd;stroke:none;stroke-width:0.6762892;stroke-linecap:round;stroke-linejoin:round;stroke-miterlimit:4;stroke-dasharray:none;stroke-dashoffset:1.28400004;stroke-opacity:1"
     d="M 16.917765,28.057104 C 12.48465,31.177052 6.7256049,34.270305 3.6772032,38.11298 c -1.5673946,1.975785 -1.9006575,3.119423 -1.5709549,4.764826 0.1593195,0.795098 1.3094696,2.039756 3.6605138,1.580846 2.3656026,-0.461754 3.5252346,-1.456229 5.9026319,-3.329523 3.088313,-2.433465 5.56706,-5.491088 9.441984,-9.70006 2.118291,-2.300905 2.061508,-2.739569 1.801166,-3.895699 -0.193999,-0.86151 -1.103396,-1.566732 -1.844215,-1.551892 -0.935547,0.01875 -2.193356,0.69818 -4.150564,2.075626 z"
     id="path6110"
     inkscape:connector-curvature="0"
     sodipodi:nodetypes="sssssssss" />
  <path
     style="opacity:1;fill:none;fill-opacity:1;fill-rule:evenodd;stroke:none;stroke-width:0.6762892;stroke-linecap:round;stroke-linejoin:round;stroke-miterlimit:4;stroke-dasharray:none;stroke-dashoffset:1.28400004;stroke-opacity:1"
     d="m 32.990513,4.7290725 c -1.61709,-0.00601 -3.296749,0.3387191 -5.088841,1.088872 C 20.87095,8.7609353 16.549938,18.41774 19.646731,25.092766 c 0.159097,0.342924 0.33178,0.705676 0.526642,1.081679 -0.822389,0.284589 -1.855029,0.896355 -3.255284,1.881826 C 12.484974,31.17622 6.7254673,34.270113 3.6770657,38.112788 2.109671,40.088572 1.7769411,41.23334 2.1066438,42.878743 c 0.1593193,0.795098 1.3081371,2.039369 3.6591813,1.580458 2.3656028,-0.461753 3.5259836,-1.456328 5.9033819,-3.329621 3.088314,-2.433466 5.568084,-5.491901 9.443008,-9.700875 0.789709,-0.857787 1.275592,-1.455246 1.562854,-1.929057 1.270076,1.153448 3.053085,2.205949 5.650491,2.93708 1.023789,0.401382 2.092831,0.611878 3.17712,0.661483 0.06654,0.0096 0.125328,0.0222 0.192649,0.0314 -0.03752,-0.0073 -0.07192,-0.01723 -0.109229,-0.0248 3.931078,0.149343 8.027555,-1.826589 10.699448,-4.757722 4.668603,-5.121575 5.507664,-12.713405 2.028098,-17.719812 -0.386831,-0.556427 -0.821172,-1.0538465 -1.282963,-1.5076971 0.08719,0.04807 0.178303,0.08973 0.264274,0.1396659 C 43.10813,9.1089789 42.925679,8.985288 42.740116,8.8414052 42.208196,8.3580674 41.637171,7.9382406 41.031019,7.5856126 38.364362,5.7906392 35.769328,4.7394046 32.990513,4.7290725 Z m 1.870951,4.9252799 c 2.654854,-0.1316029 5.180486,0.9797266 6.793002,3.2902506 2.867206,4.107081 1.761358,10.448741 -2.470156,14.165274 -4.231203,3.715504 -9.984848,3.399041 -12.851106,-0.707784 -2.866712,-4.106536 -1.762027,-10.448134 2.468223,-14.165205 1.851136,-1.626159 3.99515,-2.4801767 6.060037,-2.5825356 z"
     id="path6185"
     inkscape:connector-curvature="0" />
  <path
     style="opacity:1;fill:none;fill-opacity:1;fill-rule:evenodd;stroke:none;stroke-width:0.6762892;stroke-linecap:round;stroke-linejoin:round;stroke-miterlimit:4;stroke-dasharray:none;stroke-dashoffset:1.28400004;stroke-opacity:1"
     d="m 32.990513,4.7290725 c -1.61709,-0.00601 -3.296749,0.3387191 -5.088841,1.088872 C 20.87095,8.7609353 16.549938,18.41774 19.646731,25.092766 c 0.159097,0.342924 0.33178,0.705676 0.526642,1.081679 -0.822389,0.284589 -1.855029,0.896355 -3.255284,1.881826 C 12.484974,31.17622 6.7254673,34.270113 3.6770657,38.112788 2.109671,40.088572 1.7769411,41.23334 2.1066438,42.878743 c 0.1593193,0.795098 1.3081371,2.039369 3.6591813,1.580458 2.3656028,-0.461753 3.5259836,-1.456328 5.9033819,-3.329621 3.088314,-2.433466 5.568084,-5.491901 9.443008,-9.700875 0.789709,-0.857787 1.275592,-1.455246 1.562854,-1.929057 1.270076,1.153448 3.053085,2.205949 5.650491,2.93708 1.023789,0.401382 2.092831,0.611878 3.17712,0.661483 0.06654,0.0096 0.125328,0.0222 0.192649,0.0314 -0.03752,-0.0073 -0.07192,-0.01723 -0.109229,-0.0248 3.931078,0.149343 8.027555,-1.826589 10.699448,-4.757722 4.668603,-5.121575 5.507664,-12.713405 2.028098,-17.719812 -0.386831,-0.556427 -0.821172,-1.0538465 -1.282963,-1.5076971 0.08719,0.04807 0.178303,0.08973 0.264274,0.1396659 C 43.10813,9.1089789 42.925679,8.985288 42.740116,8.8414052 42.208196,8.3580674 41.637171,7.9382406 41.031019,7.5856126 38.364362,5.7906392 35.769328,4.7394046 32.990513,4.7290725 Z m 1.870951,4.9252799 c 1.243245,-0.06162 2.454898,0.1555968 3.561103,0.6345566 0.780529,0.463766 0.701138,0.229847 1.442772,1.700716 2.181611,4.326746 0.801722,8.288941 -1.629614,11.574043 -2.495135,3.371307 -7.486275,5.596124 -11.659149,3.148836 -0.08067,-0.104385 -0.166733,-0.200602 -0.243372,-0.310411 -2.866712,-4.106536 -1.762027,-10.448134 2.468223,-14.165205 1.851136,-1.626159 3.99515,-2.4801767 6.060037,-2.5825356 z m 6.950048,14.1479456 c -0.0263,0.04862 -0.05089,0.09769 -0.0779,0.146013 0.02759,-0.04797 0.05095,-0.09773 0.0779,-0.146013 z m -0.24404,0.419305 c -0.597313,1.005969 -1.346699,1.94016 -2.24482,2.755409 0.873981,-0.811911 1.630296,-1.745808 2.24482,-2.755409 z"
     id="path6200"
     inkscape:connector-curvature="0" />
  <path
     style="opacity:1;fill:none;fill-opacity:1;fill-rule:evenodd;stroke:#000000;stroke-width:1.74361408;stroke-linecap:round;stroke-linejoin:round;stroke-miterlimit:4;stroke-dasharray:none;stroke-dashoffset:1.28400004;stroke-opacity:1"
     d="M 29.093333,4.7796723 C 20.516774,7.6660538 15.428374,19.040703 19.436438,25.508075 c 0.19939,0.321734 0.0482,0.704402 -0.244433,1.012461 -0.596184,0.627597 -3.327083,2.003844 -5.358218,3.335407 -4.5353303,2.973252 -6.687733,4.41417 -10.1567213,8.256845 -1.6913081,1.873499 -1.9001246,3.120552 -1.5704219,4.765955 0.1593193,0.795098 1.3081371,2.039369 3.6591813,1.580458 2.3656028,-0.461753 3.5259836,-1.456328 5.9033819,-3.329621 3.088314,-2.433466 5.568084,-5.491901 9.443008,-9.700875 0.789709,-0.857787 1.361543,-1.679946 1.773147,-1.306094 1.368,1.242528 2.157281,2.164521 6.491664,3.283171 3.33493,0.860704 9.088461,0.110118 13.609501,-4.851035 C 48.264949,22.762482 48.041944,13.630401 44.313646,9.6582264 40.504175,5.5995695 34.769094,2.8695342 29.093333,4.7796723 Z m 5.768131,4.8746801 c 2.654854,-0.1316029 5.180486,0.9797266 6.793002,3.2902506 2.867206,4.107081 1.761548,10.448953 -2.470156,14.165274 -4.231013,3.715716 -9.984848,3.399041 -12.851106,-0.707784 -2.866712,-4.106536 -1.762027,-10.448134 2.468223,-14.165205 1.851136,-1.626159 3.99515,-2.4801767 6.060037,-2.5825356 z"
     id="path6211"
     inkscape:connector-curvature="0"
     sodipodi:nodetypes="ssssssssssssssscsccs" />
</svg>
