<?xml version="1.0" encoding="UTF-8" standalone="no"?>
<svg
   xmlns:dc="http://purl.org/dc/elements/1.1/"
   xmlns:cc="http://creativecommons.org/ns#"
   xmlns:rdf="http://www.w3.org/1999/02/22-rdf-syntax-ns#"
   xmlns:svg="http://www.w3.org/2000/svg"
   xmlns="http://www.w3.org/2000/svg"
   version="1.1"
   id="svg5275"
   viewBox="0 0 48 47.999999"
   height="48"
   width="48">
  <defs
     id="defs5277" />
  <metadata
     id="metadata5280">
    <rdf:RDF>
      <cc:Work
         rdf:about="">
        <dc:format>image/svg+xml</dc:format>
        <dc:type
           rdf:resource="http://purl.org/dc/dcmitype/StillImage" />
        <dc:title></dc:title>
      </cc:Work>
    </rdf:RDF>
  </metadata>
  <g
     transform="translate(0,-1004.3622)"
     id="layer1">
    <path
       id="path4160"
       d="m 10.945312,1000.8535 a 4.2233809,4.2233809 0 0 0 -4.3261714,4.2207 l 0,46.5762 a 4.2233809,4.2233809 0 0 0 7.0214844,3.1621 l 26.316406,-23.2891 a 4.2233809,4.2233809 0 0 0 0,-6.3242 l -26.316406,-23.2871 a 4.2233809,4.2233809 0 0 0 -2.695313,-1.0586 z"
       style="opacity:1;fill:#000000;fill-opacity:1;fill-rule:evenodd;stroke:none;stroke-width:0.80000001;stroke-linecap:butt;stroke-linejoin:miter;stroke-miterlimit:4;stroke-dasharray:none;stroke-dashoffset:1.28400004;stroke-opacity:0.70232556"
       transform="matrix(0.76159148,0,0,0.86693189,1.2602693,136.8421)" />
    <path
       id="rect5838"
       d="m 35.258915,1004.5289 3.28302,0 c 1.74882,0 3.156715,1.4079 3.156715,3.1567 l 0,41.3532 c 0,1.7488 -1.407895,3.1567 -3.156715,3.1567 l -3.28302,0 c -1.74882,0 -3.156715,-1.4079 -3.156715,-3.1567 l 0,-41.3532 c 0,-1.7488 1.407895,-3.1567 3.156715,-3.1567 z"
       style="opacity:1;fill:#000000;fill-opacity:1;fill-rule:evenodd;stroke:none;stroke-width:0.80000001;stroke-linecap:butt;stroke-linejoin:miter;stroke-miterlimit:4;stroke-dasharray:none;stroke-dashoffset:1.28400004;stroke-opacity:0.70232556" />
  </g>
</svg>
