<?xml version="1.0" encoding="UTF-8" standalone="no"?>
<svg
   xmlns:dc="http://purl.org/dc/elements/1.1/"
   xmlns:cc="http://creativecommons.org/ns#"
   xmlns:rdf="http://www.w3.org/1999/02/22-rdf-syntax-ns#"
   xmlns:svg="http://www.w3.org/2000/svg"
   xmlns="http://www.w3.org/2000/svg"
   version="1.1"
   id="svg5840"
   viewBox="0 0 48 48"
   height="48"
   width="48">
  <defs
     id="defs5842" />
  <metadata
     id="metadata5845">
    <rdf:RDF>
      <cc:Work
         rdf:about="">
        <dc:format>image/svg+xml</dc:format>
        <dc:type
           rdf:resource="http://purl.org/dc/dcmitype/StillImage" />
        <dc:title></dc:title>
      </cc:Work>
    </rdf:RDF>
  </metadata>
  <g
     transform="translate(0,-1004.3622)"
     id="layer1">
    <path
       id="rect5838"
       d="m 40.752594,1004.5289 2.272867,0 c 1.748821,0 3.156716,1.4079 3.156716,3.1567 l 0,41.3532 c 0,1.7488 -1.407895,3.1567 -3.156716,3.1567 l -2.272867,0 c -1.74882,0 -3.156715,-1.4079 -3.156715,-3.1567 l 0,-41.3532 c 0,-1.7488 1.407895,-3.1567 3.156715,-3.1567 z"
       style="opacity:1;fill:#000000;fill-opacity:1;fill-rule:evenodd;stroke:none;stroke-width:0.80000001;stroke-linecap:butt;stroke-linejoin:miter;stroke-miterlimit:4;stroke-dasharray:none;stroke-dashoffset:1.28400004;stroke-opacity:0.70232556" />
    <path
       id="path6960"
       d="m 17.371094,1007.1113 a 3.0334216,3.0334216 0 0 0 -3.003906,3.0332 l 0,36.8321 a 3.0334216,3.0334216 0 0 0 5.570312,1.6621 l 12.070312,-18.416 a 3.0334216,3.0334216 0 0 0 0,-3.3243 L 19.9375,1008.4824 a 3.0334216,3.0334216 0 0 0 -2.566406,-1.3711 z"
       style="opacity:1;fill:#000000;fill-opacity:1;fill-rule:evenodd;stroke:none;stroke-width:0.80000001;stroke-linecap:butt;stroke-linejoin:miter;stroke-miterlimit:4;stroke-dasharray:none;stroke-dashoffset:1.28400004;stroke-opacity:0.70232556"
       transform="matrix(1.1118523,0,0,1.1118523,3.6475714,-115.24472)" />
    <path
       id="path6962"
       d="m 17.371094,1007.1113 a 3.0334216,3.0334216 0 0 0 -3.003906,3.0332 l 0,36.8321 a 3.0334216,3.0334216 0 0 0 5.570312,1.6621 l 12.070312,-18.416 a 3.0334216,3.0334216 0 0 0 0,-3.3243 L 19.9375,1008.4824 a 3.0334216,3.0334216 0 0 0 -2.566406,-1.3711 z"
       style="opacity:1;fill:#000000;fill-opacity:1;fill-rule:evenodd;stroke:none;stroke-width:0.80000001;stroke-linecap:butt;stroke-linejoin:miter;stroke-miterlimit:4;stroke-dasharray:none;stroke-dashoffset:1.28400004;stroke-opacity:0.70232556"
       transform="matrix(1.1118523,0,0,1.1118523,-14.156367,-115.24472)" />
  </g>
</svg>
