<?xml version="1.0" encoding="UTF-8" standalone="no"?>
<svg
   xmlns:dc="http://purl.org/dc/elements/1.1/"
   xmlns:cc="http://creativecommons.org/ns#"
   xmlns:rdf="http://www.w3.org/1999/02/22-rdf-syntax-ns#"
   xmlns:svg="http://www.w3.org/2000/svg"
   xmlns="http://www.w3.org/2000/svg"
   version="1.1"
   id="svg2"
   viewBox="0 0 47.999999 48"
   height="48"
   width="48">
  <defs
     id="defs4" />
  <metadata
     id="metadata7">
    <rdf:RDF>
      <cc:Work
         rdf:about="">
        <dc:format>image/svg+xml</dc:format>
        <dc:type
           rdf:resource="http://purl.org/dc/dcmitype/StillImage" />
        <dc:title></dc:title>
      </cc:Work>
    </rdf:RDF>
  </metadata>
  <g
     transform="translate(0,-1004.3622)"
     id="layer1">
    <path
       id="rect4138"
       transform="translate(0,1004.3622)"
       d="M 24.054688 2.9511719 C 20.685169 2.9511719 17.972656 3.9339734 17.972656 5.15625 L 17.972656 17.917969 L 5.2109375 17.917969 C 3.9886609 17.917969 3.0058594 20.630482 3.0058594 24 C 3.0058594 27.369518 3.9886609 30.082031 5.2109375 30.082031 L 17.972656 30.082031 L 17.972656 42.841797 C 17.972656 44.064073 20.685169 45.048828 24.054688 45.048828 C 27.424206 45.048828 30.136719 44.064073 30.136719 42.841797 L 30.136719 30.082031 L 42.896484 30.082031 C 44.118761 30.082031 45.103516 27.369518 45.103516 24 C 45.103516 20.630482 44.118761 17.917969 42.896484 17.917969 L 30.136719 17.917969 L 30.136719 5.15625 C 30.136719 3.9339734 27.424206 2.9511719 24.054688 2.9511719 z "
       style="opacity:1;fill:#000000;fill-opacity:1;fill-rule:evenodd;stroke:#000000;stroke-width:2;stroke-linecap:round;stroke-linejoin:round;stroke-miterlimit:4;stroke-dasharray:none;stroke-dashoffset:1.28400004;stroke-opacity:1" />
  </g>
</svg>
