<?xml version="1.0" encoding="UTF-8" standalone="no"?>
<svg
   xmlns:dc="http://purl.org/dc/elements/1.1/"
   xmlns:cc="http://creativecommons.org/ns#"
   xmlns:rdf="http://www.w3.org/1999/02/22-rdf-syntax-ns#"
   xmlns:svg="http://www.w3.org/2000/svg"
   xmlns="http://www.w3.org/2000/svg"
   xmlns:xlink="http://www.w3.org/1999/xlink"
   id="svg8"
   version="1.1"
   viewBox="0 0 67.733333 67.733333"
   height="256"
   width="256">
  <defs
     id="defs2">
    <linearGradient
       id="linearGradient2315">
      <stop
         id="stop2311"
         offset="0"
         style="stop-color:#ff5353;stop-opacity:1" />
      <stop
         style="stop-color:#f30000;stop-opacity:1"
         offset="0.46676606"
         id="stop2319" />
      <stop
         id="stop2313"
         offset="1"
         style="stop-color:#ea0000;stop-opacity:1" />
    </linearGradient>
    <linearGradient
       id="linearGradient2305">
      <stop
         id="stop2301"
         offset="0"
         style="stop-color:#ffffff;stop-opacity:0" />
      <stop
         style="stop-color:#121212;stop-opacity:0.03137255"
         offset="0.86360139"
         id="stop2309" />
      <stop
         id="stop2303"
         offset="1"
         style="stop-color:#000000;stop-opacity:0.24299066" />
    </linearGradient>
    <linearGradient
       id="linearGradient2277">
      <stop
         id="stop2273"
         offset="0"
         style="stop-color:#ffffff;stop-opacity:1;" />
      <stop
         id="stop2275"
         offset="1"
         style="stop-color:#d8d8d8;stop-opacity:1" />
    </linearGradient>
    <radialGradient
       gradientTransform="matrix(1.0484254,0,0,1.0484254,-2.0320595,-13.603578)"
       gradientUnits="userSpaceOnUse"
       r="33.243375"
       fy="254.23686"
       fx="26.994215"
       cy="254.23686"
       cx="26.994215"
       id="radialGradient2279"
       xlink:href="#linearGradient2277" />
    <radialGradient
       gradientUnits="userSpaceOnUse"
       gradientTransform="matrix(1.0362753,0.07694581,-0.08187214,1.1026215,20.117035,-30.035265)"
       r="27.318628"
       fy="262.25824"
       fx="32.303654"
       cy="262.25824"
       cx="32.303654"
       id="radialGradient2307"
       xlink:href="#linearGradient2305" />
    <radialGradient
       gradientUnits="userSpaceOnUse"
       gradientTransform="matrix(1.0393437,-0.11310794,0.09977276,1.2595595,-6.6212674,-71.539035)"
       r="30.917064"
       fy="260.5766"
       fx="8.3938723"
       cy="260.5766"
       cx="8.3938723"
       id="radialGradient2317"
       xlink:href="#linearGradient2315" />
  </defs>
  <metadata
     id="metadata5">
    <rdf:RDF>
      <cc:Work
         rdf:about="">
        <dc:format>image/svg+xml</dc:format>
        <dc:type
           rdf:resource="http://purl.org/dc/dcmitype/StillImage" />
        <dc:title></dc:title>
      </cc:Work>
    </rdf:RDF>
  </metadata>
  <g
     transform="translate(0,-229.26667)"
     id="layer1">
    <ellipse
       style="color:#000000;clip-rule:nonzero;display:inline;overflow:visible;visibility:visible;opacity:1;isolation:auto;mix-blend-mode:normal;color-interpolation:sRGB;color-interpolation-filters:linearRGB;solid-color:#000000;solid-opacity:1;vector-effect:none;fill:#5a5a5a;fill-opacity:0.11764706;fill-rule:evenodd;stroke:none;stroke-width:4.7958374;stroke-linecap:butt;stroke-linejoin:miter;stroke-miterlimit:4;stroke-dasharray:none;stroke-dashoffset:0;stroke-opacity:0.62616817;paint-order:normal;color-rendering:auto;image-rendering:auto;shape-rendering:auto;text-rendering:auto;enable-background:accumulate"
       id="ellipse2361"
       cx="33.90115"
       cy="263.15793"
       rx="33.017349"
       ry="33.025028" />
    <ellipse
       ry="33.893856"
       rx="33.885975"
       cy="263.15793"
       cx="33.90115"
       id="ellipse2351"
       style="color:#000000;clip-rule:nonzero;display:inline;overflow:visible;visibility:visible;opacity:1;isolation:auto;mix-blend-mode:normal;color-interpolation:sRGB;color-interpolation-filters:linearRGB;solid-color:#000000;solid-opacity:1;vector-effect:none;fill:#5a5a5a;fill-opacity:0.11764706;fill-rule:evenodd;stroke:none;stroke-width:4.7958374;stroke-linecap:butt;stroke-linejoin:miter;stroke-miterlimit:4;stroke-dasharray:none;stroke-dashoffset:0;stroke-opacity:0.62616817;paint-order:normal;color-rendering:auto;image-rendering:auto;shape-rendering:auto;text-rendering:auto;enable-background:accumulate" />
    <ellipse
       style="color:#000000;clip-rule:nonzero;display:inline;overflow:visible;visibility:visible;opacity:1;isolation:auto;mix-blend-mode:normal;color-interpolation:sRGB;color-interpolation-filters:linearRGB;solid-color:#000000;solid-opacity:1;vector-effect:none;fill:#5a5a5a;fill-opacity:0.11764706;fill-rule:evenodd;stroke:none;stroke-width:4.7958374;stroke-linecap:butt;stroke-linejoin:miter;stroke-miterlimit:4;stroke-dasharray:none;stroke-dashoffset:0;stroke-opacity:0.62616817;paint-order:normal;color-rendering:auto;image-rendering:auto;shape-rendering:auto;text-rendering:auto;enable-background:accumulate"
       id="ellipse2349"
       cx="33.90115"
       cy="263.15793"
       rx="32.035568"
       ry="32.043018" />
    <ellipse
       ry="29.869678"
       rx="29.862732"
       cy="263.15793"
       cx="33.90115"
       id="ellipse2321"
       style="color:#000000;clip-rule:nonzero;display:inline;overflow:visible;visibility:visible;opacity:1;isolation:auto;mix-blend-mode:normal;color-interpolation:sRGB;color-interpolation-filters:linearRGB;solid-color:#000000;solid-opacity:1;vector-effect:none;fill:#5a5a5a;fill-opacity:0.11764706;fill-rule:evenodd;stroke:none;stroke-width:4.7958374;stroke-linecap:butt;stroke-linejoin:miter;stroke-miterlimit:4;stroke-dasharray:none;stroke-dashoffset:0;stroke-opacity:0.62616817;paint-order:normal;color-rendering:auto;image-rendering:auto;shape-rendering:auto;text-rendering:auto;enable-background:accumulate" />
    <ellipse
       style="color:#000000;clip-rule:nonzero;display:inline;overflow:visible;visibility:visible;opacity:1;isolation:auto;mix-blend-mode:normal;color-interpolation:sRGB;color-interpolation-filters:linearRGB;solid-color:#000000;solid-opacity:1;vector-effect:none;fill:#5a5a5a;fill-opacity:0.11764706;fill-rule:evenodd;stroke:none;stroke-width:4.7958374;stroke-linecap:butt;stroke-linejoin:miter;stroke-miterlimit:4;stroke-dasharray:none;stroke-dashoffset:0;stroke-opacity:0.62616817;paint-order:normal;color-rendering:auto;image-rendering:auto;shape-rendering:auto;text-rendering:auto;enable-background:accumulate"
       id="ellipse2359"
       cx="33.90115"
       cy="263.15793"
       rx="30.864761"
       ry="30.871941" />
    <ellipse
       ry="28.615828"
       rx="28.609171"
       cy="263.15793"
       cx="33.90115"
       id="ellipse2357"
       style="color:#000000;clip-rule:nonzero;display:inline;overflow:visible;visibility:visible;opacity:1;isolation:auto;mix-blend-mode:normal;color-interpolation:sRGB;color-interpolation-filters:linearRGB;solid-color:#000000;solid-opacity:1;vector-effect:none;fill:#5a5a5a;fill-opacity:0.11764706;fill-rule:evenodd;stroke:none;stroke-width:4.7958374;stroke-linecap:butt;stroke-linejoin:miter;stroke-miterlimit:4;stroke-dasharray:none;stroke-dashoffset:0;stroke-opacity:0.62616817;paint-order:normal;color-rendering:auto;image-rendering:auto;shape-rendering:auto;text-rendering:auto;enable-background:accumulate" />
    <g
       style="stroke-width:0.93460119"
       transform="matrix(1.0699752,0,0,1.069975,-1.7387738,-17.814348)"
       id="g2372">
      <ellipse
         style="color:#000000;clip-rule:nonzero;display:inline;overflow:visible;visibility:visible;opacity:1;isolation:auto;mix-blend-mode:normal;color-interpolation:sRGB;color-interpolation-filters:linearRGB;solid-color:#000000;solid-opacity:1;vector-effect:none;fill:url(#radialGradient2279);fill-opacity:1;fill-rule:evenodd;stroke:#1f1f1f;stroke-width:0.24727987;stroke-linecap:butt;stroke-linejoin:miter;stroke-miterlimit:4;stroke-dasharray:none;stroke-dashoffset:0;stroke-opacity:0.43457947;paint-order:markers stroke fill;color-rendering:auto;image-rendering:auto;shape-rendering:auto;text-rendering:auto;enable-background:accumulate"
         id="path819"
         cx="31.527905"
         cy="260.31259"
         rx="28.641544"
         ry="28.648216" />
      <path
         style="font-style:normal;font-variant:normal;font-weight:normal;font-stretch:normal;font-size:78.65608215px;line-height:125%;font-family:EPSONThickCursive;-inkscape-font-specification:EPSONThickCursive;letter-spacing:0px;word-spacing:0px;fill:url(#radialGradient2317);fill-opacity:1;stroke:#565656;stroke-width:0.49455974;stroke-linecap:butt;stroke-linejoin:miter;stroke-miterlimit:4;stroke-dasharray:none;stroke-opacity:0.75233645"
         d="m 35.052847,233.50211 c -0.273629,-0.002 -0.546959,0.0115 -0.819724,0.0412 -5.13287,0.93769 -7.635167,2.21203 -7.50757,3.82286 0.07656,0.9665 1.020275,1.70307 2.831931,2.20996 1.590256,0.42267 3.029585,0.96996 4.317514,1.64216 -2.976355,1.73199 -5.847283,3.10067 -8.612816,4.10567 3.891608,0.3347 7.783922,0.34416 11.677716,0.0287 l 2.637968,0.76934 c -8.598922,3.26456 -15.839463,6.73316 -21.721939,10.40614 -1.543011,-5.24781 -2.714069,-7.8285 -3.512417,-7.74162 -0.904792,0.0984 -1.380712,0.5294 -1.427612,1.2927 -0.705004,3.97605 -1.690733,7.11647 -2.9576264,9.42063 -1.6117524,2.01675 -2.3200065,4.26016 -2.1243556,6.7301 0.6275302,5.88901 2.325215,8.68266 5.092817,8.38147 1.916032,-0.20851 3.477927,-2.51748 4.68539,-6.9273 1.373569,-5.02365 9.075146,-10.46523 23.105128,-16.32464 4.696507,-1.70257 10.158215,-2.89273 16.385317,-3.5704 -2.391013,3.02224 -5.877134,5.43235 -10.45869,7.23072 -0.987791,-0.2716 -1.800999,-0.37237 -2.439675,-0.30286 -0.319338,0.0347 -1.079594,0.60491 -2.28039,1.71042 l -13.121583,6.13956 c -0.78122,-1.05229 -1.518057,-1.54084 -2.209958,-1.46554 -0.425784,0.0463 -1.033706,0.84378 -1.823661,2.39199 -0.451418,1.07812 -0.647386,1.99299 -0.58784,2.74471 0.902379,3.25955 2.444727,4.77062 4.626876,4.53315 0.585455,-0.0637 1.580616,-0.71383 2.985798,-1.9499 2.295146,-2.19943 5.762658,-4.85122 10.401805,-7.95562 -0.794324,2.84845 -2.096484,5.72479 -3.906298,8.62961 -2.805995,1.17187 -4.115656,2.93938 -3.928511,5.30194 0.119092,1.50344 1.239855,2.43739 3.36234,2.80213 -10.259414,2.6329 -16.242496,4.69242 -17.950004,6.17802 -0.734697,0.60084 -1.353845,1.17704 -1.864295,1.73048 a 28.641543,28.648216 0 0 0 6.376312,2.48518 c 0.136003,-0.0132 0.278216,-0.0254 0.408509,-0.0395 0.85157,-0.0927 2.759959,-0.73355 5.725626,-1.9228 4.030126,-1.3051 8.194252,-2.27321 12.492565,-2.90346 0.09333,1.17826 0.162821,2.29093 0.209673,3.34284 a 28.641543,28.648216 0 0 0 6.376853,-3.86241 c -0.0137,-0.0646 -0.0262,-0.12812 -0.04009,-0.19288 0.08945,-0.009 0.195567,-0.0188 0.290942,-0.0282 a 28.641543,28.648216 0 0 0 6.680797,-7.95888 l -9.190365,1.32359 c -1.294251,-1.42971 -2.974804,-2.65483 -5.041886,-3.67549 2.412284,-2.75376 4.584987,-5.48156 6.518262,-8.18318 2.126856,-0.93551 3.134852,-2.10119 3.024265,-3.49725 -0.0638,-0.80542 -0.448905,-1.60293 -1.155634,-2.39254 3.207858,-0.3491 6.281596,-1.05292 9.223413,-2.10593 a 28.641543,28.648216 0 0 0 -5.943423,-13.50517 c -3.851526,0.77154 -7.43924,1.61531 -10.75776,2.5334 0.434405,-1.29289 0.615719,-2.39535 0.543414,-3.30817 -0.182891,-2.30885 -1.112184,-4.21172 -2.787504,-5.70828 -1.957661,-1.58769 -3.894187,-2.38998 -5.809602,-2.40662 z"
         id="text817" />
      <ellipse
         ry="28.648216"
         rx="28.641544"
         cy="260.31259"
         cx="31.527905"
         id="ellipse2299"
         style="color:#000000;clip-rule:nonzero;display:inline;overflow:visible;visibility:visible;opacity:1;isolation:auto;mix-blend-mode:normal;color-interpolation:sRGB;color-interpolation-filters:linearRGB;solid-color:#000000;solid-opacity:1;vector-effect:none;fill:url(#radialGradient2307);fill-opacity:1;fill-rule:evenodd;stroke:none;stroke-width:8.93323326;stroke-linecap:butt;stroke-linejoin:miter;stroke-miterlimit:4;stroke-dasharray:none;stroke-dashoffset:0;stroke-opacity:1;paint-order:markers stroke fill;color-rendering:auto;image-rendering:auto;shape-rendering:auto;text-rendering:auto;enable-background:accumulate" />
    </g>
  </g>
</svg>
