<?xml version="1.0" encoding="UTF-8" standalone="no"?>
<!-- Created with Inkscape (http://www.inkscape.org/) -->

<svg
   xmlns:dc="http://purl.org/dc/elements/1.1/"
   xmlns:cc="http://creativecommons.org/ns#"
   xmlns:rdf="http://www.w3.org/1999/02/22-rdf-syntax-ns#"
   xmlns:svg="http://www.w3.org/2000/svg"
   xmlns="http://www.w3.org/2000/svg"
   xmlns:sodipodi="http://sodipodi.sourceforge.net/DTD/sodipodi-0.dtd"
   xmlns:inkscape="http://www.inkscape.org/namespaces/inkscape"
   width="48"
   height="48"
   viewBox="0 0 48 48"
   id="svg2"
   version="1.1"
   inkscape:version="0.91 r13725"
   sodipodi:docname="shadow.svg">
  <defs
     id="defs4" />
  <sodipodi:namedview
     id="base"
     pagecolor="#ffffff"
     bordercolor="#666666"
     borderopacity="1.0"
     inkscape:pageopacity="0.0"
     inkscape:pageshadow="2"
     inkscape:zoom="15.839192"
     inkscape:cx="40.92631"
     inkscape:cy="18.494811"
     inkscape:document-units="px"
     inkscape:current-layer="layer1"
     showgrid="false"
     units="px"
     objecttolerance="5"
     guidetolerance="5"
     inkscape:window-width="1920"
     inkscape:window-height="1177"
     inkscape:window-x="-8"
     inkscape:window-y="-8"
     inkscape:window-maximized="1" />
  <metadata
     id="metadata7">
    <rdf:RDF>
      <cc:Work
         rdf:about="">
        <dc:format>image/svg+xml</dc:format>
        <dc:type
           rdf:resource="http://purl.org/dc/dcmitype/StillImage" />
        <dc:title></dc:title>
      </cc:Work>
    </rdf:RDF>
  </metadata>
  <g
     inkscape:label="Layer 1"
     inkscape:groupmode="layer"
     id="layer1"
     transform="translate(0,-1004.3622)">
    <g
       id="g4150"
       style="font-style:normal;font-variant:normal;font-weight:bold;font-stretch:normal;font-size:60px;line-height:125%;font-family:'Malgun Gothic';-inkscape-font-specification:'Malgun Gothic Bold';letter-spacing:0px;word-spacing:0px;fill:#464646;fill-opacity:0.24766356;stroke:none;stroke-width:1px;stroke-linecap:butt;stroke-linejoin:miter;stroke-opacity:1"
       transform="matrix(0.57677306,-0.1288508,0.41481494,0.6580026,0.84621183,343.43214)">
      <path
         transform="translate(0.82188541,3.4232004)"
         style="fill:#464646;fill-opacity:0.24766356"
         d="m -625.29688,888.77344 a 3.3209614,3.3209614 0 0 0 -3.32031,3.32031 l 0,2.48047 -18.47656,0 a 3.3209614,3.3209614 0 0 0 -3.32031,3.32031 l 0,13.0957 a 3.3209614,3.3209614 0 0 0 3.32031,3.32032 l 5.49805,0 0,0.0488 a 3.3209614,3.3209614 0 0 0 3.32031,3.32031 l 11.625,0 c -0.0192,0.0109 -0.0315,0.0203 -0.0508,0.0312 a 3.3209614,3.3209614 0 0 0 -1.66211,2.55664 l -20.04883,0 a 3.3209614,3.3209614 0 0 0 -3.32031,3.32031 l 0,5.77149 a 3.3209614,3.3209614 0 0 0 3.32031,3.32031 l 20.0293,0 0,3.91406 c -1.54004,-0.0299 -3.31497,-0.15915 -5.48828,-0.49609 a 3.3209614,3.3209614 0 0 0 -3.69532,4.21093 l 1.99219,6.82618 a 3.3209614,3.3209614 0 0 0 3.1875,2.39062 l 7.26563,0 c 2.66644,0 5.31416,-0.83159 7.08789,-2.77344 1.77372,-1.94185 2.41406,-4.55307 2.41406,-7.31445 l 0,-6.75781 19.82422,0 a 3.3209614,3.3209614 0 0 0 3.32031,-3.32031 l 0,-5.77149 a 3.3209614,3.3209614 0 0 0 -3.32031,-3.32031 l -12.17774,0 c 1.23377,-0.99585 2.47939,-1.94096 3.68946,-3.04102 a 3.3209614,3.3209614 0 0 0 1.08593,-2.45703 l 0,-0.45898 5.9668,0 a 3.3209614,3.3209614 0 0 0 3.32031,-3.32032 l 0,-13.0957 a 3.3209614,3.3209614 0 0 0 -3.32031,-3.32031 l -18.44726,0 0,-2.48047 a 3.3209614,3.3209614 0 0 0 -3.32032,-3.32031 l -6.29883,0 z"
         id="path4154"
         inkscape:connector-curvature="0" />
    </g>
    <g
       transform="matrix(0.57677306,-0.1288508,0.41481494,0.6580026,2.8462118,345.43214)"
       style="font-style:normal;font-variant:normal;font-weight:bold;font-stretch:normal;font-size:60px;line-height:125%;font-family:'Malgun Gothic';-inkscape-font-specification:'Malgun Gothic Bold';letter-spacing:0px;word-spacing:0px;fill:#434343;fill-opacity:0.27102804;stroke:none;stroke-width:1px;stroke-linecap:butt;stroke-linejoin:miter;stroke-opacity:1"
       id="text4140">
      <path
         d="m -597.23059,910.99097 -6.29883,0 0,-7.20703 -37.26562,0 0,7.20703 -6.29883,0 0,-13.09571 21.79687,0 0,-5.80078 6.29883,0 0,5.80078 21.76758,0 0,13.09571 z m 1.43555,18.36914 -23.14454,0 0,10.07812 q 0,6.76758 -6.18164,6.76758 l -7.26562,0 -1.99219,-6.82617 q 3.7793,0.58594 6.5625,0.58594 2.75391,0 2.75391,-2.98829 l 0,-7.61718 -23.34961,0 0,-5.77149 23.34961,0 0,-2.98828 q 5.88867,-3.33984 9.11133,-6.24023 l -22.32422,0 0,-5.77149 31.75781,0 0,6.18164 q -5.80078,5.27344 -11.89453,8.81836 l 22.61719,0 0,5.77149 z"
         id="path4148"
         inkscape:connector-curvature="0"
         style="fill:#434343;fill-opacity:0.27102804" />
    </g>
    <g
       id="g4157"
       style="font-style:normal;font-variant:normal;font-weight:bold;font-stretch:normal;font-size:60px;line-height:125%;font-family:'Malgun Gothic';-inkscape-font-specification:'Malgun Gothic Bold';letter-spacing:0px;word-spacing:0px;fill:#000000;fill-opacity:1;stroke:none;stroke-width:1px;stroke-linecap:butt;stroke-linejoin:miter;stroke-opacity:1"
       transform="matrix(0.54165664,-0.12100581,0.38955923,0.61794058,9.0221208,379.33502)">
      <path
         style="fill:#000000;fill-opacity:1"
         inkscape:connector-curvature="0"
         id="path4159"
         d="m -597.23059,910.99097 -6.29883,0 0,-7.20703 -37.26562,0 0,7.20703 -6.29883,0 0,-13.09571 21.79687,0 0,-5.80078 6.29883,0 0,5.80078 21.76758,0 0,13.09571 z m 1.43555,18.36914 -23.14454,0 0,10.07812 q 0,6.76758 -6.18164,6.76758 l -7.26562,0 -1.99219,-6.82617 q 3.7793,0.58594 6.5625,0.58594 2.75391,0 2.75391,-2.98829 l 0,-7.61718 -23.34961,0 0,-5.77149 23.34961,0 0,-2.98828 q 5.88867,-3.33984 9.11133,-6.24023 l -22.32422,0 0,-5.77149 31.75781,0 0,6.18164 q -5.80078,5.27344 -11.89453,8.81836 l 22.61719,0 0,5.77149 z" />
    </g>
  </g>
</svg>
