<?xml version="1.0" encoding="UTF-8" standalone="no"?>
<svg
   xmlns:dc="http://purl.org/dc/elements/1.1/"
   xmlns:cc="http://creativecommons.org/ns#"
   xmlns:rdf="http://www.w3.org/1999/02/22-rdf-syntax-ns#"
   xmlns:svg="http://www.w3.org/2000/svg"
   xmlns="http://www.w3.org/2000/svg"
   version="1.1"
   id="svg2"
   viewBox="0 0 48 48"
   height="48"
   width="48">
  <defs
     id="defs4" />
  <metadata
     id="metadata7">
    <rdf:RDF>
      <cc:Work
         rdf:about="">
        <dc:format>image/svg+xml</dc:format>
        <dc:type
           rdf:resource="http://purl.org/dc/dcmitype/StillImage" />
        <dc:title></dc:title>
      </cc:Work>
    </rdf:RDF>
  </metadata>
  <g
     transform="translate(0,-1004.3622)"
     id="layer1">
    <path
       id="rect4152"
       d="m 31.135106,1004.3635 6.430311,0 c 2.29011,0 4.133773,1.8437 4.133773,4.1338 l 0,11.7889 c 0,2.2901 -1.843663,4.1338 -4.133773,4.1338 l -6.430311,0 c -2.29011,0 -4.133773,-1.8437 -4.133773,-4.1338 l 0,-11.7889 c 0,-2.2901 1.843663,-4.1338 4.133773,-4.1338 z"
       style="opacity:1;fill:#1162b5;fill-opacity:1;fill-rule:evenodd;stroke:none;stroke-width:2.4000001;stroke-linecap:round;stroke-linejoin:miter;stroke-miterlimit:4;stroke-dasharray:none;stroke-dashoffset:0;stroke-opacity:0.35514018" />
    <g
       id="text4136"
       style="font-style:normal;font-variant:normal;font-weight:bold;font-stretch:normal;font-size:20.30624962px;line-height:125%;font-family:Sans;-inkscape-font-specification:'Sans Bold';letter-spacing:0px;word-spacing:0px;fill:#ffffff;fill-opacity:1;stroke:none;stroke-width:1px;stroke-linecap:butt;stroke-linejoin:miter;stroke-opacity:1">
      <path
         id="path4801"
         style=""
         d="m 29.262037,1019.0058 3.371155,0 0,-9.5682 -3.460391,0.7139 0,-2.5978 3.440561,-0.7138 3.628949,0 0,12.1659 3.371154,0 0,2.6374 -10.351428,0 0,-2.6374 z" />
    </g>
    <path
       id="rect4154"
       d="m 3.9922537,1024.746 6.4303113,0 c 2.29011,0 4.133773,1.8436 4.133773,4.1337 l 0,11.7889 c 0,2.2902 -1.843663,4.1338 -4.133773,4.1338 l -6.4303113,0 c -2.2901101,0 -4.13377283,-1.8436 -4.13377283,-4.1338 l 0,-11.7889 c 0,-2.2901 1.84366273,-4.1337 4.13377283,-4.1337 z"
       style="opacity:1;fill:#008c51;fill-opacity:1;fill-rule:evenodd;stroke:none;stroke-width:2.4000001;stroke-linecap:round;stroke-linejoin:miter;stroke-miterlimit:4;stroke-dasharray:none;stroke-dashoffset:0;stroke-opacity:0.35514018" />
    <g
       id="text4144"
       style="font-style:normal;font-variant:normal;font-weight:bold;font-stretch:normal;font-size:20.30624962px;line-height:125%;font-family:Sans;-inkscape-font-specification:'Sans Bold';letter-spacing:0px;word-spacing:0px;fill:#ffffff;fill-opacity:1;stroke:none;stroke-width:1px;stroke-linecap:butt;stroke-linejoin:miter;stroke-opacity:1">
      <path
         id="path4804"
         style=""
         d="m 6.0684264,1039.2268 6.5142606,0 0,2.806 -10.7579494,0 0,-2.806 5.4037627,-4.7691 q 0.7238067,-0.6544 1.0708374,-1.2791 0.3470306,-0.6247 0.3470306,-1.2989 0,-1.0411 -0.7039764,-1.6757 -0.6940613,-0.6345 -1.8541351,-0.6345 -0.8923645,0 -1.9532867,0.3867 -1.0609223,0.3767 -2.2705719,1.1303 l 0,-3.2522 q 1.2889709,-0.4263 2.5481964,-0.6445 1.2592254,-0.228 2.468875,-0.228 2.6572632,0 4.1247074,1.17 1.477359,1.17 1.477359,3.2621 0,1.2096 -0.624656,2.2606 -0.624655,1.0411 -2.6275172,2.7961 l -3.1629364,2.7762 z" />
    </g>
    <path
       id="path4148"
       d="m 17.337395,1020.5218 c 7.847461,6.4271 22.492588,13.8017 32.142858,15.7882"
       style="fill:none;fill-rule:evenodd;stroke:#000000;stroke-width:3.79999995;stroke-linecap:round;stroke-linejoin:miter;stroke-miterlimit:4;stroke-dasharray:none;stroke-opacity:1" />
    <path
       id="path4150"
       d="m 22.909004,1025.0653 c -1.339741,8.3693 -3.782787,18.7432 -7.683829,27.6247"
       style="fill:none;fill-rule:evenodd;stroke:#000000;stroke-width:3.79999995;stroke-linecap:round;stroke-linejoin:miter;stroke-miterlimit:4;stroke-dasharray:none;stroke-opacity:1" />
    <path
       id="path4729"
       d="m 27.69953,1015.3361 -10.606602,4.7982 11.364217,-1.2627 z"
       style="fill:#1162b5;fill-opacity:1;fill-rule:evenodd;stroke:none;stroke-width:1px;stroke-linecap:butt;stroke-linejoin:miter;stroke-opacity:1" />
    <path
       style="fill:#008c51;fill-opacity:1;fill-rule:evenodd;stroke:none;stroke-width:1px;stroke-linecap:butt;stroke-linejoin:miter;stroke-opacity:1"
       d="m 13.304855,1029.7308 10.606602,-4.7982 -11.364217,1.2627 z"
       id="path4731" />
    <path
       id="rect4733"
       d="m 31.26637,1039.3932 6.430311,0 c 2.29011,0 4.133773,1.8437 4.133773,4.1338 l 0,11.7889 c 0,2.2901 -1.843663,4.1337 -4.133773,4.1337 l -6.430311,0 c -2.29011,0 -4.133773,-1.8436 -4.133773,-4.1337 l 0,-11.7889 c 0,-2.2901 1.843663,-4.1338 4.133773,-4.1338 z"
       style="opacity:1;fill:#8c2b00;fill-opacity:1;fill-rule:evenodd;stroke:none;stroke-width:2.4000001;stroke-linecap:round;stroke-linejoin:miter;stroke-miterlimit:4;stroke-dasharray:none;stroke-dashoffset:0;stroke-opacity:0.35514018" />
    <g
       id="text4735"
       style="font-style:normal;font-variant:normal;font-weight:bold;font-stretch:normal;font-size:20.30624962px;line-height:125%;font-family:Sans;-inkscape-font-specification:'Sans Bold';letter-spacing:0px;word-spacing:0px;fill:#ffffff;fill-opacity:1;stroke:none;stroke-width:1px;stroke-linecap:butt;stroke-linejoin:miter;stroke-opacity:1">
      <path
         id="path4796"
         style=""
         d="m 36.951661,1048.6983 q 1.497189,0.3867 2.270572,1.3485 0.783298,0.9519 0.783298,2.4292 0,2.2012 -1.685578,3.3513 -1.685577,1.1403 -4.917919,1.1403 -1.140244,0 -2.290403,-0.1884 -1.140243,-0.1785 -2.260656,-0.5453 l 0,-2.9448 q 1.070837,0.5354 2.121844,0.813 1.060922,0.2677 2.082184,0.2677 1.517019,0 2.320148,-0.5255 0.813043,-0.5255 0.813043,-1.5071 0,-1.0113 -0.832874,-1.5269 -0.822958,-0.5255 -2.439129,-0.5255 l -1.526935,0 0,-2.459 1.606256,0 q 1.437698,0 2.141675,-0.4462 0.703976,-0.4561 0.703976,-1.3782 0,-0.8527 -0.684146,-1.3187 -0.684146,-0.466 -1.933456,-0.466 -0.92211,0 -1.864051,0.2082 -0.94194,0.2082 -1.873965,0.6148 l 0,-2.7961 q 1.130328,-0.3173 2.240826,-0.4759 1.110498,-0.1587 2.181336,-0.1587 2.885312,0 4.313095,0.9519 1.437698,0.9419 1.437698,2.8456 0,1.2989 -0.684146,2.1318 -0.684146,0.8229 -2.022693,1.16 z" />
    </g>
  </g>
</svg>
