<?xml version="1.0" encoding="UTF-8" standalone="no"?>
<svg
   xmlns:dc="http://purl.org/dc/elements/1.1/"
   xmlns:cc="http://creativecommons.org/ns#"
   xmlns:rdf="http://www.w3.org/1999/02/22-rdf-syntax-ns#"
   xmlns:svg="http://www.w3.org/2000/svg"
   xmlns="http://www.w3.org/2000/svg"
   xmlns:xlink="http://www.w3.org/1999/xlink"
   xmlns:sodipodi="http://sodipodi.sourceforge.net/DTD/sodipodi-0.dtd"
   xmlns:inkscape="http://www.inkscape.org/namespaces/inkscape"
   version="1.1"
   id="svg2"
   viewBox="0 0 48 48"
   height="48"
   width="48"
   sodipodi:docname="strokenumber.svg"
   inkscape:version="0.92.2 (5c3e80d, 2017-08-06)">
  <sodipodi:namedview
     pagecolor="#ffffff"
     bordercolor="#666666"
     borderopacity="1"
     objecttolerance="10"
     gridtolerance="10"
     guidetolerance="10"
     inkscape:pageopacity="0"
     inkscape:pageshadow="2"
     inkscape:window-width="1920"
     inkscape:window-height="1177"
     id="namedview6018"
     showgrid="false"
     inkscape:zoom="0.61458333"
     inkscape:cx="16.98414"
     inkscape:cy="19.038268"
     inkscape:window-x="-8"
     inkscape:window-y="-8"
     inkscape:window-maximized="1"
     inkscape:current-layer="svg2" />
  <defs
     id="defs4">
    <linearGradient
       id="linearGradient7321"
       inkscape:collect="always">
      <stop
         id="stop7317"
         offset="0"
         style="stop-color:#323232;stop-opacity:1" />
      <stop
         id="stop7319"
         offset="1"
         style="stop-color:#5c5c5c;stop-opacity:1" />
    </linearGradient>
    <linearGradient
       inkscape:collect="always"
       id="linearGradient6589">
      <stop
         style="stop-color:#ebebeb;stop-opacity:1"
         offset="0"
         id="stop6585" />
      <stop
         style="stop-color:#cccccc;stop-opacity:1"
         offset="1"
         id="stop6587" />
    </linearGradient>
    <linearGradient
       inkscape:collect="always"
       xlink:href="#linearGradient7321"
       id="linearGradient6591"
       x1="22.282372"
       y1="16.200994"
       x2="33.44994"
       y2="45.489132"
       gradientUnits="userSpaceOnUse" />
    <linearGradient
       inkscape:collect="always"
       xlink:href="#linearGradient6589"
       id="linearGradient7315"
       gradientUnits="userSpaceOnUse"
       x1="22.282372"
       y1="16.200994"
       x2="33.44994"
       y2="45.489132" />
  </defs>
  <metadata
     id="metadata7">
    <rdf:RDF>
      <cc:Work
         rdf:about="">
        <dc:format>image/svg+xml</dc:format>
        <dc:type
           rdf:resource="http://purl.org/dc/dcmitype/StillImage" />
        <dc:title />
      </cc:Work>
    </rdf:RDF>
  </metadata>
  <path
     style="color:#000000;font-style:normal;font-variant:normal;font-weight:normal;font-stretch:normal;font-size:medium;line-height:normal;font-family:sans-serif;font-variant-ligatures:normal;font-variant-position:normal;font-variant-caps:normal;font-variant-numeric:normal;font-variant-alternates:normal;font-feature-settings:normal;text-indent:0;text-align:start;text-decoration:none;text-decoration-line:none;text-decoration-style:solid;text-decoration-color:#000000;letter-spacing:normal;word-spacing:normal;text-transform:none;writing-mode:lr-tb;direction:ltr;text-orientation:mixed;dominant-baseline:auto;baseline-shift:baseline;text-anchor:start;white-space:normal;shape-padding:0;clip-rule:nonzero;display:inline;overflow:visible;visibility:visible;opacity:1;isolation:auto;mix-blend-mode:normal;color-interpolation:sRGB;color-interpolation-filters:linearRGB;solid-color:#000000;solid-opacity:1;vector-effect:none;fill:url(#linearGradient7315);fill-opacity:1;fill-rule:evenodd;stroke:none;stroke-width:4.5999999;stroke-linecap:round;stroke-linejoin:miter;stroke-miterlimit:4;stroke-dasharray:none;stroke-dashoffset:0;stroke-opacity:1;paint-order:stroke fill markers;color-rendering:auto;image-rendering:auto;shape-rendering:auto;text-rendering:auto;enable-background:accumulate"
     d="m 15.316406,14.242188 a 1.90019,1.90019 0 0 0 -1.183594,3.386718 c 1.415645,1.159418 3.031792,2.337504 4.773438,3.50586 -1.345418,8.12669 -3.729839,18.028478 -7.419922,26.429687 a 1.90019,1.90019 0 1 0 3.478516,1.527344 c 3.644598,-8.297655 5.998772,-17.721112 7.417968,-25.748047 7.849691,4.740515 17.408066,8.960749 24.714844,10.464844 a 1.9002861,1.9002861 0 0 0 0.765625,-3.722656 C 38.750743,28.210128 24.043187,20.833759 16.541016,14.689453 a 1.90019,1.90019 0 0 0 -1.22461,-0.447265 z"
     id="path7313"
     inkscape:connector-curvature="0" />
  <path
     inkscape:connector-curvature="0"
     style="opacity:1;fill:#1162b5;fill-opacity:1;fill-rule:evenodd;stroke:none;stroke-width:2.4000001;stroke-linecap:round;stroke-linejoin:miter;stroke-miterlimit:4;stroke-dasharray:none;stroke-dashoffset:0;stroke-opacity:0.35514018"
     d="m 31.135106,0.0013 h 6.430311 c 2.29011,0 4.133773,1.8437 4.133773,4.1338 V 15.924 c 0,2.2901 -1.843663,4.1338 -4.133773,4.1338 h -6.430311 c -2.29011,0 -4.133773,-1.8437 -4.133773,-4.1338 V 4.1351 c 0,-2.2901 1.843663,-4.1338 4.133773,-4.1338 z"
     id="rect4152" />
  <g
     style="font-style:normal;font-variant:normal;font-weight:bold;font-stretch:normal;font-size:20.30624962px;line-height:125%;font-family:Sans;-inkscape-font-specification:'Sans Bold';letter-spacing:0px;word-spacing:0px;fill:#ffffff;fill-opacity:1;stroke:none;stroke-width:1px;stroke-linecap:butt;stroke-linejoin:miter;stroke-opacity:1"
     id="text4136"
     transform="translate(0,-1004.3622)">
    <path
       inkscape:connector-curvature="0"
       d="m 29.262037,1019.0058 h 3.371155 v -9.5682 l -3.460391,0.7139 v -2.5978 l 3.440561,-0.7138 h 3.628949 v 12.1659 h 3.371154 v 2.6374 H 29.262037 Z"
       id="path4801" />
  </g>
  <path
     inkscape:connector-curvature="0"
     style="opacity:1;fill:#008c51;fill-opacity:1;fill-rule:evenodd;stroke:none;stroke-width:2.4000001;stroke-linecap:round;stroke-linejoin:miter;stroke-miterlimit:4;stroke-dasharray:none;stroke-dashoffset:0;stroke-opacity:0.35514018"
     d="m 3.9922537,20.3838 h 6.4303113 c 2.29011,0 4.133773,1.8436 4.133773,4.1337 v 11.7889 c 0,2.2902 -1.843663,4.1338 -4.133773,4.1338 H 3.9922537 c -2.2901101,0 -4.13377283,-1.8436 -4.13377283,-4.1338 V 24.5175 c 0,-2.2901 1.84366273,-4.1337 4.13377283,-4.1337 z"
     id="rect4154" />
  <g
     style="font-style:normal;font-variant:normal;font-weight:bold;font-stretch:normal;font-size:20.30624962px;line-height:125%;font-family:Sans;-inkscape-font-specification:'Sans Bold';letter-spacing:0px;word-spacing:0px;fill:#ffffff;fill-opacity:1;stroke:none;stroke-width:1px;stroke-linecap:butt;stroke-linejoin:miter;stroke-opacity:1"
     id="text4144"
     transform="translate(0,-1004.3622)">
    <path
       inkscape:connector-curvature="0"
       d="m 6.0684264,1039.2268 h 6.5142606 v 2.806 H 1.8247376 v -2.806 l 5.4037627,-4.7691 q 0.7238067,-0.6544 1.0708374,-1.2791 0.3470306,-0.6247 0.3470306,-1.2989 0,-1.0411 -0.7039764,-1.6757 -0.6940613,-0.6345 -1.8541351,-0.6345 -0.8923645,0 -1.9532867,0.3867 -1.0609223,0.3767 -2.2705719,1.1303 v -3.2522 q 1.2889709,-0.4263 2.5481964,-0.6445 1.2592254,-0.228 2.468875,-0.228 2.6572632,0 4.1247074,1.17 1.477359,1.17 1.477359,3.2621 0,1.2096 -0.624656,2.2606 -0.624655,1.0411 -2.6275172,2.7961 z"
       id="path4804" />
  </g>
  <path
     inkscape:connector-curvature="0"
     style="fill:#1162b5;fill-opacity:1;fill-rule:evenodd;stroke:none;stroke-width:1px;stroke-linecap:butt;stroke-linejoin:miter;stroke-opacity:1"
     d="M 27.69953,10.9739 17.092928,15.7721 28.457145,14.5094 Z"
     id="path4729" />
  <path
     inkscape:connector-curvature="0"
     id="path4731"
     d="M 13.304855,25.3686 23.911457,20.5704 12.54724,21.8331 Z"
     style="fill:#008c51;fill-opacity:1;fill-rule:evenodd;stroke:none;stroke-width:1px;stroke-linecap:butt;stroke-linejoin:miter;stroke-opacity:1" />
  <path
     inkscape:connector-curvature="0"
     style="opacity:1;fill:#8c2b00;fill-opacity:1;fill-rule:evenodd;stroke:none;stroke-width:2.4000001;stroke-linecap:round;stroke-linejoin:miter;stroke-miterlimit:4;stroke-dasharray:none;stroke-dashoffset:0;stroke-opacity:0.35514018"
     d="m 31.26637,35.031 h 6.430311 c 2.29011,0 4.133773,1.8437 4.133773,4.1338 v 11.7889 c 0,2.2901 -1.843663,4.1337 -4.133773,4.1337 H 31.26637 c -2.29011,0 -4.133773,-1.8436 -4.133773,-4.1337 V 39.1648 c 0,-2.2901 1.843663,-4.1338 4.133773,-4.1338 z"
     id="rect4733" />
  <g
     style="font-style:normal;font-variant:normal;font-weight:bold;font-stretch:normal;font-size:20.30624962px;line-height:125%;font-family:Sans;-inkscape-font-specification:'Sans Bold';letter-spacing:0px;word-spacing:0px;fill:#ffffff;fill-opacity:1;stroke:none;stroke-width:1px;stroke-linecap:butt;stroke-linejoin:miter;stroke-opacity:1"
     id="text4735"
     transform="translate(0,-1004.3622)">
    <path
       inkscape:connector-curvature="0"
       d="m 36.951661,1048.6983 q 1.497189,0.3867 2.270572,1.3485 0.783298,0.9519 0.783298,2.4292 0,2.2012 -1.685578,3.3513 -1.685577,1.1403 -4.917919,1.1403 -1.140244,0 -2.290403,-0.1884 -1.140243,-0.1785 -2.260656,-0.5453 v -2.9448 q 1.070837,0.5354 2.121844,0.813 1.060922,0.2677 2.082184,0.2677 1.517019,0 2.320148,-0.5255 0.813043,-0.5255 0.813043,-1.5071 0,-1.0113 -0.832874,-1.5269 -0.822958,-0.5255 -2.439129,-0.5255 h -1.526935 v -2.459 h 1.606256 q 1.437698,0 2.141675,-0.4462 0.703976,-0.4561 0.703976,-1.3782 0,-0.8527 -0.684146,-1.3187 -0.684146,-0.466 -1.933456,-0.466 -0.92211,0 -1.864051,0.2082 -0.94194,0.2082 -1.873965,0.6148 v -2.7961 q 1.130328,-0.3173 2.240826,-0.4759 1.110498,-0.1587 2.181336,-0.1587 2.885312,0 4.313095,0.9519 1.437698,0.9419 1.437698,2.8456 0,1.2989 -0.684146,2.1318 -0.684146,0.8229 -2.022693,1.16 z"
       id="path4796" />
  </g>
  <path
     id="path6593"
     d="M 17.316406 14.242188 A 1.90019 1.90019 0 0 0 16.132812 17.628906 C 17.548457 18.788324 19.164604 19.96641 20.90625 21.134766 C 19.560832 29.261456 17.176411 39.163244 13.486328 47.564453 A 1.90019 1.90019 0 1 0 16.964844 49.091797 C 20.609442 40.794142 22.963616 31.370685 24.382812 23.34375 C 32.232503 28.084265 41.790878 32.304499 49.097656 33.808594 A 1.9002861 1.9002861 0 0 0 49.863281 30.085938 C 40.750743 28.210128 26.043187 20.833759 18.541016 14.689453 A 1.90019 1.90019 0 0 0 17.316406 14.242188 z "
     style="color:#000000;font-style:normal;font-variant:normal;font-weight:normal;font-stretch:normal;font-size:medium;line-height:normal;font-family:sans-serif;font-variant-ligatures:normal;font-variant-position:normal;font-variant-caps:normal;font-variant-numeric:normal;font-variant-alternates:normal;font-feature-settings:normal;text-indent:0;text-align:start;text-decoration:none;text-decoration-line:none;text-decoration-style:solid;text-decoration-color:#000000;letter-spacing:normal;word-spacing:normal;text-transform:none;writing-mode:lr-tb;direction:ltr;text-orientation:mixed;dominant-baseline:auto;baseline-shift:baseline;text-anchor:start;white-space:normal;shape-padding:0;clip-rule:nonzero;display:inline;overflow:visible;visibility:visible;opacity:1;isolation:auto;mix-blend-mode:normal;color-interpolation:sRGB;color-interpolation-filters:linearRGB;solid-color:#000000;solid-opacity:1;vector-effect:none;fill:url(#linearGradient6591);fill-opacity:1;fill-rule:evenodd;stroke:none;stroke-width:4.6;stroke-linecap:round;stroke-linejoin:miter;stroke-miterlimit:4;stroke-dasharray:none;stroke-dashoffset:0;stroke-opacity:1;color-rendering:auto;image-rendering:auto;shape-rendering:auto;text-rendering:auto;enable-background:accumulate;paint-order:stroke fill markers" />
</svg>
