<?xml version="1.0" encoding="UTF-8" standalone="no"?>
<svg
   xmlns:dc="http://purl.org/dc/elements/1.1/"
   xmlns:cc="http://creativecommons.org/ns#"
   xmlns:rdf="http://www.w3.org/1999/02/22-rdf-syntax-ns#"
   xmlns:svg="http://www.w3.org/2000/svg"
   xmlns="http://www.w3.org/2000/svg"
   xmlns:xlink="http://www.w3.org/1999/xlink"
   version="1.1"
   id="svg2"
   viewBox="0 0 48 48"
   height="48"
   width="48">
  <defs
     id="defs4">
    <linearGradient
       id="linearGradient4141">
      <stop
         style="stop-color:#fa8282;stop-opacity:1"
         offset="0"
         id="stop4145" />
      <stop
         style="stop-color:#d61e1e;stop-opacity:1;"
         offset="1"
         id="stop4143" />
    </linearGradient>
    <radialGradient
       gradientUnits="userSpaceOnUse"
       gradientTransform="matrix(1.423094,0,0,1.3801554,-8.731714,-10.711587)"
       r="19.836867"
       fy="27.86997"
       fx="20.637764"
       cy="27.86997"
       cx="20.637764"
       id="radialGradient4147"
       xlink:href="#linearGradient4141" />
  </defs>
  <metadata
     id="metadata7">
    <rdf:RDF>
      <cc:Work
         rdf:about="">
        <dc:format>image/svg+xml</dc:format>
        <dc:type
           rdf:resource="http://purl.org/dc/dcmitype/StillImage" />
        <dc:title></dc:title>
      </cc:Work>
    </rdf:RDF>
  </metadata>
  <g
     transform="translate(0,-1004.3622)"
     id="layer1">
    <path
       id="path4136"
       transform="translate(0,1004.3622)"
       d="M 41.455078 5.3984375 C 36.241317 8.1055692 30.443283 12.068416 24.650391 16.773438 C 20.529891 12.676495 16.102109 8.7917542 11.535156 5.4492188 L 5.1582031 13.298828 C 9.2934071 15.651184 13.796046 18.777215 18.285156 22.240234 C 13.627595 26.476621 9.1208134 31.090458 5.0859375 35.816406 L 13.351562 42.503906 C 16.756069 37.710247 20.81024 32.647036 25.021484 27.699219 C 31.010491 32.764677 36.627447 38.069306 40.867188 42.539062 L 43.408203 40.185547 C 40.097267 34.675844 35.376969 28.347867 29.820312 22.189453 C 34.565533 16.853242 39.29369 11.832656 43.347656 7.7148438 L 41.455078 5.3984375 z "
       style="fill:url(#radialGradient4147);fill-opacity:1;fill-rule:evenodd;stroke:#000000;stroke-width:1px;stroke-linecap:butt;stroke-linejoin:miter;stroke-opacity:1" />
  </g>
</svg>
